SplineFontDB: 3.0
FontName: AbhayaLibre-Regular
FullName: AbhayaLibre
FamilyName: AbhayaLibre
Weight: Regular
Copyright: Copyright (c) 1997-2015 Pushpananda Ekanayake (http://isiwara.lk), Copyright (c) 2015 mooniak (http://mooniak.com)\n
UComments: "2015-2-15: Created with FontForge (http://fontforge.org) The  Free Font Editor"
Version: 1.0
ItalicAngle: 0
UnderlinePosition: -102
UnderlineWidth: 51
Ascent: 819
Descent: 205
InvalidEm: 0
UFOAscent: 819
UFODescent: -205
LayerCount: 2
Layer: 0 0 "Back" 1
Layer: 1 0 "Fore" 0
PreferredKerning: 4
FSType: 0
OS2Version: 0
OS2_WeightWidthSlopeOnly: 0
OS2_UseTypoMetrics: 0
CreationTime: 1429518268
ModificationTime: 1439626256
PfmFamily: 16
TTFWeight: 400
TTFWidth: 5
LineGap: 94
VLineGap: 0
OS2TypoAscent: 819
OS2TypoAOffset: 0
OS2TypoDescent: -205
OS2TypoDOffset: 0
OS2TypoLinegap: 94
OS2WinAscent: 918
OS2WinAOffset: 0
OS2WinDescent: 205
OS2WinDOffset: 0
HheadAscent: 918
HheadAOffset: 0
HheadDescent: -205
HheadDOffset: 0
OS2CapHeight: 0
OS2XHeight: 0
OS2Vendor: 'PfEd'
OS2UnicodeRanges: 00000002.00000000.00000000.00000000
Lookup: 1 0 0 "ss06" { "ss06-0"  } ['ss06' ('latn' <'dflt' > ) ]
Lookup: 1 0 0 "ss05" { "ss05-0"  } ['ss05' ('latn' <'dflt' > ) ]
Lookup: 1 0 0 "ss04" { "ss04-0"  } ['ss04' ('latn' <'dflt' > ) ]
Lookup: 1 0 0 "ss03" { "ss03-0"  } ['ss03' ('latn' <'dflt' > ) ]
Lookup: 1 0 0 "ss02" { "ss02-0"  } ['ss02' ('latn' <'dflt' > ) ]
Lookup: 1 0 0 "ss01" { "ss01-0"  } ['ss01' ('latn' <'dflt' > ) ]
Lookup: 4 0 0 "si_akhands" { "si_akhands subtable"  } ['akhn' ('sinh' <'dflt' > ) ]
Lookup: 4 0 0 "si_reph" { "si_reph subtable"  } ['rphf' ('sinh' <'dflt' > ) ]
Lookup: 4 0 0 "si_halant_1" { "si_halant_1 subtable"  } ['haln' ('sinh' <'dflt' > ) ]
Lookup: 4 0 0 "si_abvs_1" { "si_abvs_1 subtable"  } ['abvs' ('sinh' <'dflt' > ) ]
Lookup: 4 0 0 "si_abvs_2" { "si_abvs_2 subtable"  } ['abvs' ('sinh' <'dflt' > ) ]
Lookup: 4 0 0 "si_abvs_3" { "si_abvs_3 subtable"  } ['abvs' ('sinh' <'dflt' > ) ]

StartChar: si_NnI
Encoding: 225 -1 0
GlifName: si_N_nI_
Width: 963
VWidth: 1000
Flags: HMW
LayerCount: 2
Back
Fore
SplineSet
203.25 500 m 0
 203.25 595.465620213 335.782008941 640 452 640 c 0
 545.62752846 640 644 603.414062506 644 524.5 c 0
 644 503.737860504 636.54876709 483.973739624 624 471 c 1
 610.5822337 465.814753645 608.102539062 458.3984375 575 454 c 129
 597.608398438 468.721679688 609 487.530273438 609 511 c 0
 609 554.43359375 549.455078125 573 474 573 c 0
 383.841796875 573 240 557.794921875 240 486.75 c 0
 240 453.946289062 270.610351562 432.844726562 316 429 c 1
 286.1171875 422.8671875 286.836840724 419.094662214 270 416 c 1
 235.96861041 423.249969482 203.25 453.854492188 203.25 500 c 0
EndSplineSet
Refer: 19 3499 N 1 0 0 1 0 0 2
Validated: 5
LCarets2: 1 0
Ligature2: "si_abvs_1-0 subtable" si_Nna si_MatraI
Ligature2: "si_abvs_1 subtable" si_Nna si_MatraI
EndChar

StartChar: si_A
Encoding: 3 3461 1
GlifName: si_A_
Width: 573
VWidth: 1000
Flags: MW
LayerCount: 2
Back
Fore
SplineSet
384 207 m 9
 384 235 l 17
 393 230 403.666666667 229 411 229 c 0
 440.170365761 229 464 249 464 287 c 0
 464 311 460 326 448 345 c 0
 437.325961395 361.900561124 421.450986646 371 421.450986646 398 c 0
 421.450986646 399.934865834 421.681802112 401.93171373 422 404 c 1
 438 418 l 0
 457 422 l 1
 450 418 445 414 445 403 c 0
 445 369 526 354 526 281 c 0
 526 228.79640641 479.320433706 200 428 200 c 0
 414.666666667 200 400 202 384 207 c 9
359 -215 m 1
 359 -39 359 137 359 313 c 0
 359 350 368 379.666666667 386 401 c 0
 401.333333333 418.333333333 419 429.666666667 439 435 c 1
 462 424 l 1
 392 393 388 352 388 315 c 2
 388 -215 l 1
 359 -215 l 1
33 160 m 0
 33 248 94 309 202 309 c 2
 316 309 l 1
 314.512785982 352.872813538 287 393 241 393 c 0
 205 393 196.04296875 375.694335938 188 358 c 0
 183 347 172 331 147 331 c 0
 125 331 106 344.66015625 106 369 c 0
 106 410 154 433 211 433 c 0
 295 433 347.022958637 382 347.022958637 289.999996282 c 0
 347.022958637 289.003232324 347.014753113 288.003211652 347 287 c 1
 252 287 l 2
 130 287 113 200 113 164 c 0
 113 88 161 23 297 23 c 0
 410 23 480 50 523 83 c 1
 523 51 l 1
 472 17 386 -4 282 -4 c 0
 118 -4 33 62 33 160 c 0
EndSplineSet
Validated: 5
EndChar

StartChar: si_Ca
Encoding: 27 3488 2
GlifName: si_C_a
Width: 597
VWidth: 1000
Flags: MW
LayerCount: 2
Back
Fore
SplineSet
64 165 m 4
 64 195.720703125 73.775390625 227.831054688 97 248 c 4
 113.126953125 262.004882812 132 273 158 278 c 5
 191.760742188 290.19921875 232.875 302 270 302 c 6
 287 302 l 5
 287.08203125 304.041015625 287.0859375 306.041015625 287.0859375 308 c 4
 287.0859375 362 253 395 216 395 c 4
 171 395 163 371 157.5 355 c 4
 150.951171875 335.948242188 140.87109375 323 119 323 c 4
 103 323 83 333.368164062 83 359 c 4
 83 406 133 431.5 188 431.5 c 4
 276 431.5 319.146484375 376 319.146484375 290 c 4
 319.146484375 286.721679688 319.100585938 280.387695312 319 277 c 5
 250 277 l 6
 205.559570312 277 166.1171875 264.814453125 141 249 c 4
 114 232 101 206.05078125 101 180 c 4
 101 94 208 71 298 71 c 4
 451 71 541 158 541 300 c 4
 541 442 437.498046875 553 303 553 c 4
 223.666992188 553 160.666992188 524.666992188 116 470 c 5
 84 470 l 5
 132.666992188 540 205 577 303 577 c 4
 463.151367188 577 575 443 575 274 c 4
 575 114 478 0 295 0 c 4
 174 0 64 46 64 165 c 4
14 270 m 5
 14 302 l 5
 285 302 l 5
 315 277 l 5
 148 277 l 6
 77 276 30 272.666992188 14 270 c 5
EndSplineSet
Validated: 5
EndChar

StartChar: si_I
Encoding: 7 3465 3
GlifName: si_I_
Width: 593
VWidth: 1000
Flags: MW
LayerCount: 2
Back
Fore
SplineSet
32.769301342 220.978179218 m 4
 32.769301342 356.900041772 148 432.229789777 284.186584566 432.229789777 c 4
 436 432.229789777 544.072655356 353.230064025 544.072655356 198.289822617 c 4
 544.072655356 92.3992805878 472.804973932 9.9053684654 384 -6 c 5
 417.360050834 -12.0654637881 439.019305478 -35.5646106219 439.019305478 -74.6171329825 c 4
 439.019305478 -134.43844808 364.215441002 -160.272357038 298.362581423 -160.272357038 c 4
 236.041211731 -160.272357038 172.567829085 -139.055521608 172.567829085 -75.6591555653 c 4
 172.567829085 -50.1902726369 190.396707259 -38.4572252022 206.999999554 -38.4572252022 c 4
 222 -38.4572252022 235 -47.772668172 235 -65 c 4
 235 -70.548340286 231.33117885 -81.8987817032 231.33117885 -93.9999994603 c 4
 231.33117885 -114 242.210661318 -137.40759163 300.488905387 -137.40759163 c 4
 339.383175946 -137.40759163 375.052783758 -120.936614414 375.052783758 -83.377550246 c 4
 375.052783758 -40.6169352357 334.405273438 -14.646484375 267.46875 -14.646484375 c 4
 258.713867188 -14.646484375 258.543945312 -15.0908203125 249 -16 c 5
 249 12 l 5
 260.678710938 12.9736328125 262.404296875 13.4248046875 273.107421875 13.4248046875 c 4
 289.881835938 13.4248046875 306.879979999 11.3077791959 324.407906495 11.3077791959 c 4
 423.445479405 11.3077791959 506 72.2427249302 506 179 c 4
 506 292.451180536 404.848523881 357.365080788 285.138234493 357.365080788 c 4
 174.761412308 357.365080788 73.420326121 308.982448025 73.420326121 204.134968762 c 4
 73.420326121 133.530159124 136.393554688 80.98046875 222.573242188 80.98046875 c 4
 276 80.98046875 317 96 333 120 c 5
 318 108 299.454101562 104.978515625 285.064453125 104.978515625 c 4
 244 104.978515625 208 138.5703125 208 179 c 4
 208 225.263671875 242 259.68359375 286.35546875 259.68359375 c 4
 343.78515625 259.68359375 376 221.615234375 376 170 c 4
 376 90 310 54 220 54 c 4
 113 54 32.769301342 116.842503605 32.769301342 220.978179218 c 4
236.995117188 182 m 4
 236.995117188 153.790039062 260.796875 132.014648438 288 132.014648438 c 4
 316.145507812 132.014648438 339.004882812 154.809570312 339.004882812 182 c 4
 339.004882812 210.209960938 315.203125 231.985351562 288 231.985351562 c 4
 259.854492188 231.985351562 236.995117188 209.190429688 236.995117188 182 c 4
EndSplineSet
Validated: 1
EndChar

StartChar: si_Va
Encoding: 55 3520 4
GlifName: si_V_a
Width: 597
VWidth: 1000
Flags: MW
LayerCount: 2
Back
Fore
SplineSet
33 165 m 4
 33 250 98 304 199 304 c 6
 260 304 l 5
 260.08203125 306.041015625 260.0859375 306.041015625 260.0859375 308 c 4
 260.0859375 362 226 395 189 395 c 4
 144 395 136 371 130.5 355 c 4
 123.950844566 335.947911466 113.871196443 323 92 323 c 4
 76 323 56 333.368164062 56 359 c 4
 56 406 106 431.5 161 431.5 c 4
 249 431.5 292.146076529 376 292.146076529 290.0000267 c 4
 292.146076529 286.721575577 292.100390271 283.38817163 292 280 c 5
 202 280 l 6
 128 280 68 245.215820312 68 180 c 4
 68 94 180 71 270 71 c 4
 423 71 514 158 514 300 c 4
 514 442 410.498046875 553 276 553 c 4
 196.666992188 553 133.666992188 524.666992188 89 470 c 5
 57 470 l 5
 105.666666667 540 178 577 276 577 c 4
 436.151392369 577 548 443 548 274 c 4
 548 114 450 0 267 0 c 4
 146 0 33 46 33 165 c 4
EndSplineSet
Validated: 1
EndChar

StartChar: si_Ii
Encoding: 8 3466 5
GlifName: si_I_i
Width: 528
VWidth: 1000
Flags: MW
LayerCount: 2
Back
Fore
SplineSet
409.65625 468.34375 m 4
 409.65625 447.361328125 426.670898438 430.346679688 447.653320312 430.346679688 c 4
 468.635742188 430.346679688 485.650390625 447.361328125 485.650390625 468.34375 c 4
 485.650390625 489.326171875 468.635742188 506.340820312 447.653320312 506.340820312 c 4
 426.670898438 506.340820312 409.65625 489.326171875 409.65625 468.34375 c 4
383.306640625 468 m 4
 383.306640625 503.534179688 412.119140625 532.346679688 447.653320312 532.346679688 c 4
 483.1875 532.346679688 512 503.534179688 512 468 c 4
 512 432.465820312 483.1875 403.653320312 447.653320312 403.653320312 c 4
 412.119140625 403.653320312 383.306640625 432.465820312 383.306640625 468 c 4
144.65625 538.34375 m 4
 144.65625 517.361328125 161.670898438 500.346679688 182.653320312 500.346679688 c 4
 203.635742188 500.346679688 220.650390625 517.361328125 220.650390625 538.34375 c 4
 220.650390625 559.326171875 203.635742188 576.340820312 182.653320312 576.340820312 c 4
 161.670898438 576.340820312 144.65625 559.326171875 144.65625 538.34375 c 4
118.306640625 538 m 4
 118.306640625 573.534179688 147.119140625 602.346679688 182.653320312 602.346679688 c 4
 218.1875 602.346679688 247 573.534179688 247 538 c 4
 247 502.465820312 218.1875 473.653320312 182.653320312 473.653320312 c 4
 147.119140625 473.653320312 118.306640625 502.465820312 118.306640625 538 c 4
31 213 m 4
 31 322.52211473 95.4624211491 380.154341698 170 422 c 4
 223.263083971 449.696803665 250.105838186 465.264791571 308 517 c 4
 355 559 374 623 409 623 c 4
 425 623 432 616.333007812 432 605 c 4
 432 585 408.666666667 555.666666667 360 515 c 4
 327.333333333 487.666666667 289.666666667 461.333333333 247 436 c 5
 252 437 253.262695312 437 262 437 c 4
 333 437 388 413 429.5 366.5 c 4
 465.350590935 326.33006076 482 281.003971989 482 225 c 4
 482 102 383.523302632 0 248 0 c 4
 123.953919804 0 31 89.1821923439 31 213 c 4
66 237 m 4
 66 143.671016059 131.981483069 73 240 73 c 4
 345 73 430 149 430 254 c 4
 430 356 355.594726562 414 264 414 c 4
 166.78125 414 66 339.359738008 66 237 c 4
EndSplineSet
Validated: 1
EndChar

StartChar: si_U
Encoding: 9 3467 6
GlifName: si_U_
Width: 651
VWidth: 1000
Flags: MW
LayerCount: 2
Back
Fore
SplineSet
32 99 m 4
 32 210 121 296 264 296 c 6
 507 296 l 5
 504 346 460.752569308 390 408 390 c 4
 380.302185915 390 360.699662251 377.104442714 347 354.5 c 4
 339.454261497 342.04953147 330 328 305 328 c 4
 283 328 267 345.182366328 267 365 c 4
 267 410 313 431.5 376 431.5 c 4
 468.871700649 431.5 539.074783684 370 539.074783684 275.999995706 c 4
 539.074783684 274.341975608 539.048557478 272.675233006 539 271 c 5
 298 271 l 6
 174 271 109 203.63883956 109 110 c 4
 109 -30 216 -128 341 -128 c 4
 468 -128 574 -40 574 69 c 5
 603 69 l 5
 603 -64 480 -161 328 -161 c 4
 177 -161 32 -62 32 99 c 4
EndSplineSet
Validated: 1
EndChar

StartChar: si_Tta
Encoding: 34 3495 7
GlifName: si_T_ta
Width: 603
VWidth: 1000
Flags: MW
LayerCount: 2
Back
Fore
SplineSet
31.5960301257 207.869486361 m 4
 31.5960301257 322.618280415 126.170095138 391.378618529 232.000003444 391.378618529 c 4
 259 391.378618529 291.655125054 386.085841646 321 375 c 13
 321 346 l 21
 293.88667132 358.911108895 266 365.351950183 233.999997455 365.351950183 c 4
 148.491642868 365.351950183 65.9040652651 314.122642713 65.9040652651 217.756690347 c 4
 65.9040652651 115.897355797 175.908160921 70.7524940739 276.179776643 70.7524940739 c 4
 418.412454023 70.7524940739 523.085468421 148.526365796 523.085468421 295.660472353 c 4
 523.085468421 431.780189984 415.576556737 553.085177402 275.440057829 553.085177402 c 4
 194.707908634 553.085177402 132.781765602 525.005127203 90 470 c 13
 57 470 l 21
 103.927953012 539.371756626 176.649876667 577.079858394 273.087127664 577.079858394 c 4
 446.243363388 577.079858394 557.006697374 433.236971394 557.006697374 271.182978806 c 4
 557.006697374 115.25051458 447.244413075 -1.15398720145 285.242387952 -1.15398720145 c 4
 132.917850402 -1.15398720145 31.5960301257 80.6392374287 31.5960301257 207.869486361 c 4
EndSplineSet
Validated: 1
EndChar

StartChar: si_E
Encoding: 15 3473 8
GlifName: si_E_
Width: 595
VWidth: 1000
Flags: MW
LayerCount: 2
Back
Fore
SplineSet
45 165 m 4
 45 195.720703125 54.775390625 227.831054688 78 248 c 4
 94.126953125 262.004882812 113 273 139 278 c 5
 172.760742188 290.19921875 213.875 302 251 302 c 6
 263 302 l 5
 263.08203125 304.041015625 263.0859375 306.041015625 263.0859375 308 c 4
 263.0859375 356 228 395 191 395 c 4
 152 395 143 374 138.5 356 c 4
 133.614257812 336.456054688 122.87109375 323 101 323 c 4
 85 323 64 333 64 360 c 4
 64 403 107 431.5 165 431.5 c 4
 253 431.5 295.146484375 363 295.146484375 290 c 4
 295.146484375 286.721679688 295.100585938 280.387695312 295 277 c 5
 231 277 l 6
 186.559570312 277 147.1171875 264.814453125 122 249 c 4
 95 232 82 206.05078125 82 180 c 4
 82 94 189 71 279 71 c 4
 432 71 513 148 513 267 c 4
 513 323.666666667 496 376 471 412 c 5
 456.333007812 379.333007812 426 359 383 359 c 4
 319.844284656 359 283 414 283 480 c 4
 283 530 298 566 325 597 c 5
 386 564 456.96484375 492.2421875 493 430 c 4
 531.783203125 363.01171875 545 315 545 245 c 4
 545 117 459 0 276 0 c 4
 155 0 45 46 45 165 c 4
16 270 m 5
 16 302 l 5
 261 302 l 5
 291 277 l 5
 129 277 l 6
 58 276 32 272.666992188 16 270 c 5
313 484 m 4
 313 434.666666667 333 395 390 395 c 4
 414 395 441.763671875 406.140625 452 440 c 5
 422 486 372 532 334 560 c 5
 322 542 313 518.666666667 313 484 c 4
EndSplineSet
Validated: 5
EndChar

StartChar: si_Os
Encoding: 18 3476 9
GlifName: si_O_s
Width: 636
VWidth: 1000
Flags: MW
LayerCount: 2
Back
Fore
SplineSet
274 363 m 4
 274 337 295 316 321 316 c 4
 347 316 368 337 368 363 c 4
 368 389 347 410 321 410 c 4
 295 410 274 389 274 363 c 4
30 224 m 4
 30 332 74 431.5 148 431.5 c 4
 167.006835938 431.5 173 428 180 423 c 4
 190.609375 415.421875 198.873046875 401 198.873046875 371 c 4
 198.873046875 357 199 340.014648438 199 337 c 4
 199 284 240 253 295 253 c 4
 348 253 389 281 389 326 c 4
 389 327 389 329 388 331 c 5
 382 318 358.65625 289 318 289 c 4
 271.278320312 289 245 324.079101562 245 360 c 260
 245 402 277 434 322 434 c 4
 381 434 418 389 418 330 c 4
 418 268 367 224 296 224 c 4
 225.25445084 224 172 267 172 339 c 4
 172 344.219726562 172.27544052 362.934877611 172.27544052 371.999999557 c 4
 172.27544052 392 168.197801988 406 145 406 c 4
 94 406 61 327 61 254 c 4
 61 149.666457941 116 70 199 70 c 4
 273 70 293 107.666992188 293 141 c 6
 293 167 l 5
 317 167 l 5
 317 140 l 6
 317 95.748046875 356 71 410 71 c 4
 505.558649722 71 554 181.873239616 554 286 c 4
 554 433.479491635 458 555 298 555 c 4
 199 555 139 525 92 466 c 5
 62 466 l 5
 107 531 175 578 302 578 c 4
 486 578 590 431.114542606 590 254 c 4
 590 126.500578052 543 0 406 0 c 4
 365 0 321 16 305 55 c 5
 283 15 246 0 196 0 c 4
 78 0 30 127 30 224 c 4
EndSplineSet
Validated: 1
EndChar

StartChar: si_Ka
Encoding: 21 3482 10
GlifName: si_K_a
Width: 746
VWidth: 1000
Flags: MW
LayerCount: 2
Back
Fore
SplineSet
21 22 m 5
 28.6966338402 91.2697045622 74.4524773728 184.16496867 109 232 c 4
 135 268 150 282 168 301 c 5
 180 314 193 330 193 352 c 4
 193 374 183.407917035 392 158 392 c 4
 144 392 122.478515625 384.287109375 116 363 c 4
 109 340 112.653628896 340.109331446 106 323 c 4
 99 305 84 297 69 297 c 4
 35 297 29 328 29 340 c 4
 29 394.098632812 79.3632281498 433 136 433 c 4
 185.711963719 433 220.079101562 402 220.079101562 356 c 4
 220.079101562 351.467773438 219.723632812 345.794921875 219 341 c 5
 281 401 366 434 453 434 c 4
 603 434 701.000000002 328 701 192 c 4
 700.999999999 109.999777824 659 -1 556 -1 c 4
 540 -1 518 2 506 11 c 5
 506 38 l 5
 516 31 533 26 557 26 c 4
 607 26 649 80 649 153 c 4
 649 285 534.341514142 368 400 368 c 4
 326.666666667 368 266 348 219 308 c 5
 243 314 274.666992188 316 302 316 c 4
 422 316 515 251 515 126 c 4
 515 67.8472233203 482 -1 397 -1 c 4
 351 -1 317.333333333 20.3333333333 296 63 c 5
 278.666666667 21.6666666667 246.021148364 -1 204 -1 c 4
 117 -1 120 73 87 73 c 4
 64.6748046875 73 50 51 47 11 c 5
 21 22 l 5
70 95 m 1
 76 98.3333333333 82.3333333333 100 89 100 c 0
 118 100 142 71 199 71 c 0
 250.182680149 71 281 101.864211954 281 162 c 0
 281 164.208984375 281.041015625 161.3046875 281 163 c 1
 307 163 l 1
 306.963867188 161.6640625 307 163.330078125 307 162 c 0
 307 96.92631064 334 71 392 71 c 0
 454.088867188 71 474 123 474 159 c 0
 474 242 400.87890625 291 298 291 c 0
 241.333007812 291 203 282 182 273 c 1
 164.666992188 258.333007812 145 234.666992188 129 212 c 0
 100.333007812 171.333007812 80.6666666667 131.666666667 70 95 c 1
EndSplineSet
Validated: 1
EndChar

StartChar: si_Na
Encoding: 44 3505 11
GlifName: si_N_a
Width: 806
VWidth: 1000
Flags: MW
LayerCount: 2
Back
Fore
SplineSet
27 124 m 5
 40.7929072222 117.80318661 52.6277304998 115.127928182 63 115.127928182 c 4
 124 115.127928182 130 201 207 278 c 5
 222 293 225.818359375 314.123046875 225.818359375 327 c 4
 225.818359375 365 210 388.551757812 176.461914062 388.551757812 c 4
 147 388.551757812 135 367 133.747070312 345 c 4
 132.665910467 326.016080293 124.893554688 297 93 297 c 4
 69 297 55.1416015625 315 55.1416015625 341 c 4
 55.1416015625 383 89.0173697483 431 154 431 c 4
 224 431 253.021484375 380 253.021484375 333 c 4
 253.021484375 331.984375 253 322 251 315 c 5
 302 375 400.63630409 432.778158251 505.999705561 432.778158251 c 4
 646 432.778158251 760 335.012578119 760 183 c 4
 760 62.6098238798 687 -1.2212249427 613.000002085 -1.2212249427 c 4
 581 -1.2212249427 555 10 542 21 c 5
 542 52 l 5
 566 30 592.007025006 26.3469673742 609.999998276 26.3469673742 c 4
 661 26.3469673742 704 70.1055097822 704 149 c 4
 704 293 570 370.321757521 448.000003924 370.321757521 c 4
 375 370.321757521 309.728660757 344.88762706 266 295 c 5
 291.868777723 304.341503066 317.103110119 308.102003375 345.043984241 308.102003375 c 4
 428.954738746 308.102003375 498.167706599 248.943565796 498.167706599 168.852729339 c 4
 498.167706599 52.8253283098 398.034743185 -1.12218963832 276.065197429 -1.12218963832 c 4
 150.102540557 -1.12218963832 67.0808080808 40.5852069078 27 124 c 5
107 102 m 5
 153.257237239 81.9872621893 205.412698335 72.4533905482 263.508417596 72.4533905482 c 4
 374 72.4533905482 453.645120832 110 453.645120832 189.999995741 c 4
 453.645120832 246 399.033203125 284 338 284 c 4
 160 284 180 144 107 102 c 5
EndSplineSet
Validated: 1
EndChar

StartChar: si_Kha
Encoding: 22 3483 12
GlifName: si_K_ha
Width: 630
VWidth: 1000
Flags: MW
LayerCount: 2
Back
Fore
SplineSet
92.740234375 72 m 4
 92.740234375 48.3095703125 112.309570312 28.740234375 136 28.740234375 c 4
 159.690429688 28.740234375 179.259765625 48.3095703125 179.259765625 72 c 4
 179.259765625 95.6904296875 159.690429688 115.259765625 136 115.259765625 c 4
 112.309570312 115.259765625 92.740234375 95.6904296875 92.740234375 72 c 4
32 183 m 4
 32 322 123.838867188 396 240 396 c 4
 333 396 413 343.14453125 413 258 c 4
 413 201 385 153 346 115 c 5
 349.333333333 115.666666667 352.333333333 116 355 116 c 4
 384 116 390 67 434 67 c 4
 500 67 546 198 546 301 c 4
 546 467 445 576 294 576 c 4
 205 576 139 542.666992188 97 470 c 5
 64 470 l 5
 108.666666667 553.333333333 186 601 298 601 c 4
 464 601 584 473 584 286 c 4
 584 150 524 0 416 0 c 4
 352 0 348 54 321 54 c 260
 308 54 282 34 240 -21 c 5
 204 -18 l 5
 217.333007812 -4.6669921875 246.086001436 34.0256170965 288 84 c 4
 340 146 367 194 367 232 c 4
 367 286 328 320 236 320 c 4
 155.867967399 320 63 272 63 156 c 4
 63 144 66 118 72 101 c 5
 80 129 108 145 135 145 c 4
 180.808201089 145 210 116 210 72 c 4
 210 37 180 -1 141 -1 c 4
 56 -1 32 108 32 183 c 4
EndSplineSet
Validated: 1
EndChar

StartChar: si_Pa
Encoding: 46 3508 13
GlifName: si_P_a
Width: 616
VWidth: 1000
Flags: MW
LayerCount: 2
Back
Fore
SplineSet
31.3313942639 183.554236057 m 4
 31.3313942639 274.623686336 99.2296726839 326.928127469 206.999992832 326.928127469 c 4
 220 326.928127469 231.208483236 326.289067581 244 325 c 5
 244.46074454 328.824179686 244.682006201 332.490731105 244.682006201 336.000018199 c 4
 244.682006201 375 219.122578671 395.274253688 188.000000927 395.274253688 c 4
 155.970149562 395.274253688 143.560777761 378.802322884 138.653731877 360.000000482 c 4
 135 346 122.345703125 328.073242188 94 328.073242188 c 4
 75 328.073242188 55.3251953125 340 55.3251953125 365 c 4
 55.3251953125 409 103 433.625654084 158.189212207 433.625654084 c 4
 230.547628845 433.625654084 274.869626667 401 274.869626667 334.000351519 c 4
 274.869626667 322.637138529 273.631835938 311.303710938 271 298 c 5
 253.180664062 300.375976562 218.23046875 301.717773438 217 301.717773438 c 4
 139.720703125 301.717773438 69 275.738098097 69 201 c 4
 69 106.583973361 193 71 307 71 c 4
 413.550560931 71 540 110 540 205 c 4
 540 277.999460492 472 303.612307156 394.000002487 303.612307156 c 4
 370.819078063 303.612307156 346.926878013 301.168523275 324 297 c 5
 322.072237276 307.92398877 321.143157328 318.266754681 321.143157328 327.99999265 c 4
 321.143157328 397 365.956884184 433.118522656 438.844851469 433.118522656 c 4
 505 433.118522656 541.018818118 392.966132064 541.018818118 354.00000109 c 4
 541.018818118 334 532.547911667 316.666882281 514 303 c 5
 554.33230994 279.472819202 574.005875264 240.742748716 574.005875264 186.451529958 c 4
 574.005875264 55.5619188946 447.644682871 -7.1054273576e-15 307 0 c 4
 158.589562849 0 31.3313942639 45.9203100819 31.3313942639 183.554236057 c 4
353.184269997 336 m 4
 353.184269997 332.227818093 353.463260313 328.864525744 354 325 c 5
 370.954790497 327.055126121 387.344972512 328.097600692 402.999995377 328.097600692 c 4
 436 328.097600692 464.459880481 323.7643284 489 315 c 5
 500.332281081 325.70270991 505.478854717 338.485512262 505.478854717 350.99999917 c 4
 505.478854717 380 479 404.638085784 432.00000156 404.638085784 c 4
 388.777760128 404.638085784 353.184269997 381 353.184269997 336 c 4
EndSplineSet
Validated: 1
EndChar

StartChar: si_Ga
Encoding: 23 3484 14
GlifName: si_G_a
Width: 636
VWidth: 1000
Flags: MW
LayerCount: 2
Back
Fore
SplineSet
34 207 m 4
 34 330 109 431.5 220 431.5 c 4
 223.953128016 431.5 228.954101562 431.25 233 431 c 5
 233 408 l 5
 229.64453125 408.284179688 225.310546875 408.450195312 222 408.450195312 c 4
 136 408.450195312 69 332 69 230 c 4
 69 147 117.309455467 71 206 71 c 4
 265 71 318 98.6416015625 318 158 c 4
 318 196 298.453333284 217 267 217 c 4
 259.666666667 217 250 215 243 210 c 5
 242 204 241 195.333333333 241 192 c 5
 216 192 l 5
 226.196066844 316.90181884 288 431.5 410 431.5 c 4
 522 431.5 586 332 586 217 c 4
 586 95 500.052817527 -1 369 -1 c 4
 359 -1 348.666666667 -0.333333333333 338 1 c 5
 338 26 l 5
 346 25 354 24 362 24 c 4
 469 24 543 100 543 200 c 4
 543 301 484 371 393 371 c 4
 316.349609375 371 263 313 247 236 c 5
 255 240 263.333333333 241 270 241 c 4
 318 241 352 202 352 136 c 4
 352 56 295 -2 208 -2 c 4
 97 -2 34 96 34 207 c 4
EndSplineSet
Validated: 1
EndChar

StartChar: si_Gha
Encoding: 24 3485 15
GlifName: si_G_ha
Width: 677
VWidth: 1000
Flags: MW
LayerCount: 2
Back
Fore
SplineSet
51 154 m 4
 51 226 92 269 144 285 c 5
 177.760742188 297.19921875 231.875 308 269 308 c 6
 281 308 l 5
 281.08203125 310.041015625 281.0859375 310.041015625 281.0859375 312 c 4
 281.0859375 360 249 395 212 395 c 4
 173 395 162 371 156.5 355 c 4
 149.951171875 335.948242188 139.87109375 323 118 323 c 4
 102 323 82 333.368164062 82 359 c 4
 82 406 132 431.5 187 431.5 c 4
 275 431.5 313.146484375 369 313.146484375 296 c 4
 313.146484375 292.721679688 313.100585938 286.387695312 313 283 c 5
 216 283 l 6
 163 283 89 248 89 175 c 4
 89 116.176395544 142 71 212 71 c 4
 228 71 241.666992188 72.6669921875 245 76 c 5
 243 86 242 98 242 106 c 4
 242 180 295 200 332 200 c 4
 369 200 422 180 422 106 c 4
 422 98 421 86 419 76 c 5
 422.333007812 72.6669921875 436 71 452 71 c 4
 521 71 593 108.442151114 593 178 c 4
 593 248 541 291 448 291 c 4
 412 291 386 289 353 282 c 5
 352.814453125 285.706054688 352.717070236 287.374324769 352.717070236 290.99999647 c 4
 352.717070236 375 400.57421875 432 476 432 c 4
 530 432 579 408 579 350 c 4
 579 328.666992188 565 306 550 297 c 5
 597.333333333 273.666666667 628 221.08203125 628 166 c 4
 628 58 556.928710938 -1 465 -1 c 4
 446.333007812 -1 418 2 387 11 c 5
 384 17 383 27.6669921875 383 35 c 260
 383 69 392 71 392 106 c 4
 392 153 358 171 332 171 c 4
 306 171 272 153 272 106 c 4
 272 71 281 69 281 35 c 260
 281 27.6669921875 280 17 277 11 c 5
 246 2 217.666666667 -1 199 -1 c 4
 108.173759358 -1 51 76 51 154 c 4
5 276 m 5
 5 308 l 5
 279 308 l 5
 309 283 l 5
 147 283 l 6
 76 282 21 278.666992188 5 276 c 5
382 310 m 5
 395 314 419 316 445 316 c 4
 479 316 511.998046875 310.734375 525 306 c 5
 537 319 540 334 540 346 c 260
 540 379 506.477539062 393 470 393 c 4
 418 393 386.666666667 364.666666667 382 310 c 5
EndSplineSet
Validated: 5
EndChar

StartChar: si_Ja
Encoding: 29 3490 16
GlifName: si_J_a
Width: 598
VWidth: 1000
Flags: MW
LayerCount: 2
Back
Fore
SplineSet
33 170 m 4
 33 249.202148438 96 312 208 312 c 4
 226.110770276 312 227 312 235 311 c 5
 236.333333333 317.666666667 237 324.333333333 237 331 c 4
 237 362 220 391 183 391 c 4
 160.990234375 391 144.896484375 378.047851562 138 363 c 4
 127 339 118.029296875 322 91 322 c 4
 72 322 55 335.666992188 55 361 c 4
 55 409.774414062 106.897999968 432 154 432 c 4
 220.892617187 432 266 393.392270225 266 326 c 4
 266 314 264.666666667 301.333333333 262 288 c 5
 250 289 238 290 229 290 c 4
 110 290 70 233 70 186 c 4
 70 97 189.23046875 71 292 71 c 4
 398 71 514 97 514 186 c 4
 514 237 470 289 355 289 c 4
 333 289 314 286 300 285 c 5
 295.333333333 301 293 316.333333333 293 331 c 4
 293 409 350 434 419 434 c 4
 460 434 520 412 520 353 c 4
 520 324.446289062 503 285 438 285 c 4
 384 285 363 332 363 375 c 4
 363 462 412.06640625 530.62890625 456 571 c 4
 493 605 524 617 544 617 c 4
 560 617 568 606 568 596 c 4
 568 569 498 561 449 511 c 4
 426.342773438 487.880859375 391 444 391 374 c 4
 391 339 407 311 440 311 c 4
 469 311 489 328.515699661 489 355 c 260
 489 387.990914009 459 407 415 407 c 4
 344 407 323 374 323 334 c 4
 323 326.666666667 324 318.333333333 326 309 c 5
 334 310 343 311 356 311 c 4
 447 311 549 283 549 168 c 4
 549 45 423.685369974 0 298 0 c 4
 160.148102377 0 33 44 33 170 c 4
EndSplineSet
Validated: 5
EndChar

StartChar: si_Cha
Encoding: 28 3489 17
GlifName: si_C_ha
Width: 598
VWidth: 1000
Flags: MW
LayerCount: 2
Back
Fore
SplineSet
33 170 m 0
 33 249.202148438 96 312 208 312 c 0
 212.687824287 312 222.031734411 311.804530396 227 311.25 c 1
 228.333007812 317.916992188 229 324.333007812 229 331 c 0
 229 362 214 391 177 391 c 0
 154.990234375 391 143.896484375 378.047851562 137 363 c 0
 126 339 118.029296875 322 91 322 c 0
 72 322 53 334.666992188 53 360 c 0
 53 408.774414062 100.8984375 432 148 432 c 0
 214.892578125 432 258 393.392578125 258 326 c 0
 258 314 256.666992188 301.333007812 254 288 c 5
 247.47129019 289.195069551 238 290 229 290 c 0
 110 290 70 233 70 186 c 0
 70 97 189.23046875 71 292 71 c 0
 398 71 514 97 514 186 c 0
 514 239 470 289 355 289 c 0
 333 289 298 286 284 285 c 1
 282 292 279 308 279 319 c 0
 279 401 336 435 406 435 c 0
 478 435 532 392 532 297 c 0
 532 240 506 160 433 160 c 0
 373 160 348.514648438 223 348.514648438 293 c 0
 348.514648438 396.658203125 389.831054688 495.583984375 430 545.5 c 0
 462.834960938 586.301757812 505.044921875 617 541.75 617 c 0
 557.75 617 568 606 568 596 c 0
 568 555.893710905 519.950979925 589.361178467 451.75 516 c 0
 411.392136061 472.588593562 376.517578125 391 376.517578125 292 c 0
 376.517578125 245 388 187 435 187 c 0
 478 187 504 244 504 295 c 0
 504 378 464 410 402 410 c 0
 358 410 306 389 306 324 c 0
 306 319 306 314 307 310 c 1
 314 311 334 312.319335938 350 312.319335938 c 0
 388 312.319335938 433.868164062 309.013671875 473 291 c 0
 516.536132812 270.959960938 549 228 549 168 c 0
 549 45 423.685369974 0 298 0 c 0
 160.148102377 0 33 44 33 170 c 0
EndSplineSet
Validated: 5
EndChar

StartChar: si_Ddha
Encoding: 37 3498 18
GlifName: si_D_dha
Width: 647
VWidth: 1000
Flags: MW
LayerCount: 2
Back
Fore
SplineSet
15 288 m 1
 15 315 l 1
 258 315 l 1
 255.1640625 357.533203125 225 391.267578125 195 391.267578125 c 0
 177.364257812 391.267578125 162.118164062 387.385742188 148 363 c 0
 137 344 123.646484375 339.263671875 110 339.263671875 c 0
 90 339.263671875 73.2109375 353 73.2109375 374.122070312 c 0
 73.2109375 414 120.100585938 432.166992188 162.279296875 432.166992188 c 0
 246.407226562 432.166992188 290.626953125 373.979492188 292 288 c 1
 220 288 l 2
 126.957367049 288 83.3915037787 230 83.3915037787 174.000001556 c 0
 83.3915037787 121.64183372 123.262203778 71 198 71 c 0
 247.046364159 71 299 95.1647551294 299 143 c 2
 299 178 l 1
 326 178 l 1
 326 143 l 2
 326 97.0862774658 373.775105866 71 424 71 c 0
 520.489182971 71 561.143554688 159 561.143554688 263.217773438 c 0
 561.143554688 323.443906398 541.893936181 378.101185861 514.781311907 424.172354314 c 1
 498.322078305 395.420690655 470.675857802 363.000000112 422 363 c 0
 356 363 318 411 318 477 c 0
 318 541 348 586 359 603 c 1
 473 558 597.987304688 407 597.987304688 249.221679688 c 0
 597.987304688 123 553.344729094 0 426 0 c 0
 364 0 334.630436238 28.5207489381 313 59 c 1
 283.406198924 21.686076905 250 0 199 0 c 0
 97.9838045205 0 45.8804869702 81.1902905721 45.8804869702 161.999997835 c 0
 45.8804869702 212 71.0486818679 264.197947883 125 288 c 1
 15 288 l 1
347 481 m 0
 347 422.5 376 393 424 393 c 0
 460.039107667 393 484.713564121 424.252790834 497.29199099 451.286521432 c 1
 456.522516153 509.25509357 405.419747342 550.055861963 373 566 c 1
 361 552 347 515.234375 347 481 c 0
EndSplineSet
Validated: 1
EndChar

StartChar: si_Nna
Encoding: 38 3499 19
GlifName: si_N_na
Width: 963
VWidth: 1000
Flags: HMW
LayerCount: 2
Back
Fore
SplineSet
22 178 m 1
 213 306 426.094726562 401.813476562 653 483 c 0
 725.666992188 509 796 527 828 527 c 0
 851.333333333 527 863 518 863 500 c 0
 863 484.666666667 851.333333333 474.666666667 828 470 c 0
 798.666666667 465.333333333 750.516558006 455.372144137 683 443 c 0
 492 408 278 301 115 208 c 1
 176 208 194 73 350 73 c 0
 456.877214768 73 549 133 549 237 c 0
 549 330 481.552734375 408 357 408 c 0
 269.047851562 408 199 360 199 288 c 0
 199 213 264 182 322 182 c 1
 405 178 l 1
 384 164 362 156 321 156 c 0
 232 156 170 207.99333363 170 283 c 0
 170 382 258.142578125 433 359 433 c 0
 440 433 584 390 584 213 c 0
 584 114 520 0 365 0 c 0
 167 0 180 181 99 181 c 0
 71 181 54 168 33 154 c 1
 22 178 l 1
267.396484375 253 m 0
 267.396484375 302.172851562 307.827148438 342.603515625 357 342.603515625 c 0
 406.172851562 342.603515625 446.603515625 302.172851562 446.603515625 253 c 0
 446.603515625 203.827148438 406.172851562 163.396484375 357 163.396484375 c 0
 307.827148438 163.396484375 267.396484375 203.827148438 267.396484375 253 c 0
296.23046875 254 m 0
 296.23046875 220.009765625 323.009765625 193.23046875 357 193.23046875 c 0
 390.990234375 193.23046875 417.76953125 220.009765625 417.76953125 254 c 0
 417.76953125 287.990234375 390.990234375 314.76953125 357 314.76953125 c 0
 323.009765625 314.76953125 296.23046875 287.990234375 296.23046875 254 c 0
548.840820312 161 m 0
 548.840820312 229.840820312 591.45703125 285.5703125 645 285.5703125 c 0
 678.264852937 285.5703125 702.666611286 273.635200218 718.564707547 251.392238845 c 1
 723.035031048 300.342165552 754.134390615 347.787109366 815 347.787109375 c 0
 881 347.787109375 915.36328125 264.7578125 915.36328125 168 c 0
 915.36328125 73 883 -0.787109375 800 -0.787109375 c 0
 748.10533203 -0.787109375 718.595375908 33.0143837606 713.721124729 67.7436353538 c 1
 697.390407373 47.7453010704 674.144597409 36.4296875 645 36.4296875 c 0
 591.45703125 36.4296875 548.840820312 92.1591796875 548.840820312 161 c 0
577.389648438 162 m 0
 577.389648438 109.791992188 606.911132812 67.5283203125 644 67.5283203125 c 0
 686.255859375 67.5283203125 710.610351562 105.122070312 710.610351562 162 c 0
 710.610351562 221.91015625 689.026367188 256.471679688 644 256.471679688 c 0
 606.911132812 256.471679688 577.389648438 214.208007812 577.389648438 162 c 0
734 105 m 0
 734 44 769 34 792 34 c 0
 843 34 852 95 852 169 c 0
 852 245 836 309 799 309 c 0
 755.595314955 309 741.163589292 262.643264987 737.827713757 201.985301446 c 0
 740.054656677 189.562558877 741.159179567 175.873783075 741.159179688 161 c 0
 741.159179688 141.248416123 738.720694837 123.260522647 734.013925874 107.477250439 c 0
 734.004768711 106.655105922 734.000000004 105.829548258 734 105 c 0
EndSplineSet
Validated: 5
EndChar

StartChar: si_Nndda
Encoding: 39 3500 20
GlifName: si_N_ndda
Width: 731
VWidth: 1000
Flags: MW
LayerCount: 2
Back
Fore
SplineSet
102 288 m 1
 102 315 l 1
 348 315 l 1
 345.1640625 357.533203125 315 391.267578125 285 391.267578125 c 0
 267.364257812 391.267578125 252.118164062 387.385742188 238 363 c 0
 227 344 213.646484375 339.263671875 200 339.263671875 c 0
 180 339.263671875 163.2109375 353 163.2109375 374.122070312 c 0
 163.2109375 414 210.100585938 432.166992188 252.279296875 432.166992188 c 0
 336.407226562 432.166992188 380.626953125 373.979492188 382 288 c 1
 307 288 l 2
 213.95703125 288 170.391601562 230 170.391601562 174 c 0
 170.391601562 121.641601562 210.26171875 71 285 71 c 0
 334.045898438 71 386 95.1650390625 386 143 c 2
 386 178 l 1
 413 178 l 1
 413 143 l 2
 413 97.0859375 460.775390625 71 511 71 c 0
 607.489257812 71 649.143554688 167.485351562 649.143554688 273.217773438 c 0
 649.143554688 428 543 556.08984375 385.46484375 556.08984375 c 0
 304.965820312 556.08984375 240.203125 524.90234375 193 468 c 1
 160 468 l 1
 214.2578125 545.93359375 296.737304688 582.020507812 391.119140625 582.020507812 c 0
 565.635742188 582.020507812 684.987304688 444 684.987304688 258.221679688 c 0
 684.987304688 126.286132812 634.0078125 -0.025390625 514.655273438 -0.025390625 c 0
 450.02734375 -0.025390625 421.630859375 28.5205078125 400 59 c 1
 370.40625 21.6865234375 337 0 286 0 c 0
 184.983398438 0 132.880859375 81.1904296875 132.880859375 162 c 0
 132.880859375 212 158.048828125 264.198242188 212 288 c 1
 102 288 l 1
27 221 m 0
 27 352.699751668 99.7561968728 433 239 433 c 0
 248 433 271 433 293 427 c 1
 272 416 194 406 177 400 c 1
 102 382 56 319.267578125 56 218 c 0
 56 137.333007812 83 75.3330078125 135 30 c 1
 135 0 l 1
 68.5828449348 33.2085775326 27 120.069879655 27 221 c 0
EndSplineSet
Validated: 5
EndChar

StartChar: si_Ta
Encoding: 40 3501 21
GlifName: si_T_a
Width: 704
VWidth: 1000
Flags: MW
LayerCount: 2
Back
Fore
SplineSet
22 25 m 1
 35 130 103 242 159 306 c 1
 167 315 178.960354973 330 178.960354973 348.999999236 c 0
 178.960354973 371 169.701300131 388 151 388 c 0
 134.319335938 388 119.702084404 376.211489924 119 355.5 c 128
 118 326 111 295 76 295 c 0
 50.4970703125 295 37 316.58246164 37 342 c 0
 37 392 78 433 127 433 c 0
 177.34375 433 206.099609375 399 206.099609375 356 c 0
 206.099609375 351 206 352 205 347 c 1
 271 420 359 435 423 435 c 0
 562 435 664 334 664 185 c 0
 664 85.001953125 613 -1 521 -1 c 0
 494 -1 472 5 455 14 c 1
 455 44 l 1
 468 36 490 27 511 27 c 0
 578 27 610 85.4251099599 610 151 c 0
 610 271.552627534 508.436980455 379 367 379 c 0
 296.333333333 379 241 354.666666667 201 306 c 1
 222.333333333 315.333333333 249 320 281 320 c 0
 382 320 459 268 459 162 c 0
 459 70 392 -2 282 -2 c 0
 134 -2 140 79 89 79 c 0
 65 79 52.6666666667 53 44 9 c 1
 22 25 l 1
71 100 m 1
 80 107 91.6666666667 109 103 109 c 0
 140 109 176 73 254 73 c 0
 340.858332255 73 417 103.291024103 417 188 c 0
 417 259.56850938 350 296 283 296 c 0
 233.648986133 296 188 284 157 260 c 1
 125.500976562 221.500976562 92 165 71 100 c 1
EndSplineSet
Validated: 1
EndChar

StartChar: si_Dda
Encoding: 36 3497 22
GlifName: si_D_da
Width: 647
VWidth: 1000
Flags: MW
LayerCount: 2
Back
Fore
SplineSet
15 288 m 1
 15 315 l 1
 261 315 l 1
 258.164478188 357.532827182 228 391.267578125 198 391.267578125 c 0
 180.364257812 391.267578125 165.118202841 387.385986725 151 363 c 0
 140 344 126.646484375 339.263671875 113 339.263671875 c 0
 93 339.263671875 76.2109375 353 76.2109375 374.122070312 c 0
 76.2109375 414 123.100792732 432.167358968 165.27885421 432.167358968 c 0
 249.407348514 432.167358968 293.626701618 373.979249619 295 288 c 1
 220 288 l 2
 126.957367049 288 83.3915037787 230 83.3915037787 174.000001556 c 0
 83.3915037787 121.64183372 123.262203778 71 198 71 c 0
 247.046364159 71 299 95.1647551294 299 143 c 2
 299 178 l 1
 326 178 l 1
 326 143 l 2
 326 97.0862774658 373.775105866 71 424 71 c 0
 520.489182971 71 562.143099583 167.485004935 562.143099583 273.218225728 c 0
 562.143099583 428 456 556.09016266 298.464776119 556.09016266 c 0
 217.965924033 556.09016266 153.202703235 524.901888832 106 468 c 1
 73 468 l 1
 127.257569341 545.9335996 209.737496069 582.020255488 304.118964686 582.020255488 c 0
 478.635692634 582.020255488 597.987383913 444 597.987383913 258.221926564 c 0
 597.987383913 126.285711076 547.007371766 -0.0251311659364 427.655553183 -0.0251311659364 c 0
 363.027670828 -0.0251311659364 334.630436238 28.5207489381 313 59 c 1
 283.406198924 21.686076905 250 0 199 0 c 0
 97.9838045205 0 45.8804869702 81.1902905721 45.8804869702 161.999997835 c 0
 45.8804869702 212 71.0486818679 264.197947883 125 288 c 1
 15 288 l 1
EndSplineSet
Validated: 1
EndChar

StartChar: si_Tha
Encoding: 41 3502 23
GlifName: si_T_ha
Width: 614
VWidth: 1000
Flags: MW
LayerCount: 2
Back
Fore
SplineSet
33 235 m 4
 33 344.829101562 134 430 245 430 c 5
 245 405 l 5
 148 405 67 335.844726562 67 242 c 4
 67 122 172.859375 71 305 71 c 4
 433 71 531 154.362304688 531 281 c 4
 531 337.666992188 514 388 493 420 c 5
 478.333007812 387.333007812 448 367 405 367 c 4
 341.844726562 367 305 422 305 488 c 4
 305 538 320 574 347 605 c 5
 408 572 478.964640054 500.242069569 515 438 c 4
 553.783203125 371.01171875 566 322 566 252 c 4
 566 102.630859375 450 -1 295 -1 c 4
 150.697265625 -1 33 92.060546875 33 235 c 4
335 492 m 4
 335 442.666992188 355 403 412 403 c 4
 436 403 463.763671875 414.140625 474 448 c 5
 444 494 394 540 356 568 c 5
 344 550 335 526.666992188 335 492 c 4
EndSplineSet
Validated: 1
EndChar

StartChar: si_Ha
Encoding: 59 3524 24
GlifName: si_H_a
Width: 653
VWidth: 1000
Flags: MW
LayerCount: 2
Back
Fore
SplineSet
32.955072243 155.113004833 m 0
 32.955072243 246 100 303.35267071 194.00000399 303.35267071 c 0
 197.957701716 303.35267071 201.958859853 303.223164665 206 303 c 1
 206 345.316862256 182 383.05591496 144.456595979 383.05591496 c 0
 123.504556884 383.05591496 111.797734694 370.856405871 106 355.69271051 c 0
 100 340 86.6728515625 327.240234375 65.802734375 327.240234375 c 0
 46 327.240234375 33.0236931219 341 33.0236931219 364.000000718 c 0
 33.0236931219 394.207779183 61.7023205405 432.033407495 118.454977226 432.033407495 c 0
 197.349468601 432.033407495 237.805156657 360.444190658 239 278 c 1
 227.31985131 279.352438269 215.953374632 280.020701546 204.99999651 280.020701546 c 0
 125 280.020701546 69.7502819416 245.325077118 69.7502819416 175.35945891 c 0
 69.7502819416 105.728297678 133.657431312 72 208 72 c 0
 274.436769939 72 330.111487969 100.488408082 330.111487969 164.323187208 c 0
 330.111487969 194.870510204 315 212.412279499 294.999999474 212.412279499 c 0
 281.517899979 212.412279499 267.753468094 203.010789627 261 182 c 1
 239 192 l 1
 248 317 329.087366383 432.009345794 430.301685736 432.009345794 c 0
 542.17352523 432.009345794 605.018348624 328.650705644 605.018348624 210.961535223 c 0
 605.018348624 92.0044933398 516 -1.30330825989 392.999994701 -1.30330825989 c 0
 379.685193513 -1.30330825989 365.993045889 -0.266479263683 352 2 c 1
 352 29 l 1
 364.328223026 27.0869998752 376.35311101 26.2051161814 388.000004424 26.2051161814 c 0
 487 26.2051161814 557.147781594 93.4058364165 557.147781594 192.821331899 c 0
 557.147781594 288.168710145 504.79384916 362 414 362 c 0
 340.666666667 362 293 317.666666667 271 229 c 1
 280.834632615 234.531980846 290.634007167 237.170373002 300.000001328 237.170373002 c 0
 338 237.170373002 366.162675468 199.139276778 366.162675468 145.349815118 c 0
 366.162675468 52.9926813027 295.501309239 -0.762226007727 201.033156494 -0.762226007727 c 0
 103.482897226 -0.762226007727 32.955072243 61.0614182824 32.955072243 155.113004833 c 0
EndSplineSet
Validated: 1
EndChar

StartChar: si_DdI
Encoding: 211 -1 25
GlifName: si_D_dI_
Width: 647
VWidth: 1000
Flags: HMW
LayerCount: 2
Back
Fore
SplineSet
79.25 562 m 4
 79.25 476 205.25 483 294.25 478 c 4
 395.268554688 472.325195312 466 472 519 414 c 4
 546.813531616 383.562550307 562 326.617757797 562 268 c 5
 598 255 l 5
 598 343.803343773 561.146484375 423.256835938 512 459 c 4
 457.000141778 499.000194944 358.119140625 501.456054688 293.25 504 c 4
 191.25 508 121.25 508 121.25 554 c 4
 121.25 605.885742188 239.59375 611 315.25 611 c 4
 423.25 611 519 600.2734375 519 544 c 4
 519 506 464 491 428 490 c 5
 478 474 l 5
 512 480 566 502 566 554 c 4
 566 639 451.25 670 315.25 670 c 4
 215.25 670 79.25 652 79.25 562 c 4
15 288 m 5
 15 315 l 5
 261 315 l 5
 258.164478188 357.532827182 228 391.267578125 198 391.267578125 c 4
 180.364257812 391.267578125 165.118202841 387.385986725 151 363 c 4
 140 344 126.646484375 339.263671875 113 339.263671875 c 4
 93 339.263671875 76.2109375 353 76.2109375 374.122070312 c 4
 76.2109375 414 123.100792732 432.167358968 165.27885421 432.167358968 c 4
 249.407348514 432.167358968 293.626701618 373.979249619 295 288 c 5
 220 288 l 6
 126.957367049 288 83.3915037787 230 83.3915037787 174.000001556 c 4
 83.3915037787 121.64183372 123.262203778 71 198 71 c 4
 247.046364159 71 299 95.1647551294 299 143 c 6
 299 178 l 5
 326 178 l 5
 326 143 l 6
 326 97.0862774658 373.775105866 71 424 71 c 4
 520.489182971 71 561.893554688 167.485351562 561.893554688 273.217773438 c 5
 577.31640625 269.888671875 591.31386711 262.436035303 597.987383913 258.221926564 c 5
 597.987383913 126.285711076 547.007371766 -0.0251311659364 427.655553183 -0.0251311659364 c 4
 363.027670828 -0.0251311659364 334.630436238 28.5207489381 313 59 c 5
 283.406198924 21.686076905 250 0 199 0 c 4
 97.9838045205 0 45.8804869702 81.1902905721 45.8804869702 161.999997835 c 4
 45.8804869702 212 71.0486818679 264.197947883 125 288 c 5
 15 288 l 5
EndSplineSet
Validated: 5
Ligature2: "si_abvs_1-0 subtable" si_Dda si_MatraI
Ligature2: "si_abvs_1 subtable" si_Dda si_MatraI
EndChar

StartChar: si_DdIi
Encoding: 212 -1 26
GlifName: si_D_dI_i
Width: 647
VWidth: 1000
Flags: HMW
LayerCount: 2
Back
Fore
SplineSet
414.447265625 555 m 4
 414.447265625 585.181640625 441.6171875 609.45703125 474.75 609.45703125 c 4
 507.8828125 609.45703125 535.052734375 585.181640625 535.052734375 555 c 4
 535.052734375 524.818359375 507.8828125 500.54296875 474.75 500.54296875 c 4
 441.6171875 500.54296875 414.447265625 524.818359375 414.447265625 555 c 4
79.5 562 m 4
 79.5 476 205 483 294 478 c 4
 395.018554688 472.325195312 466.75 472 519.75 414 c 4
 547.563531616 383.562550307 562 332.978780184 562 270 c 5
 598 254 l 5
 598 348.428710938 561.896484375 423.256835938 512.75 459 c 4
 457.750141778 499.000194944 357.869140625 501.456054688 293 504 c 4
 191 508 121.5 508 121.5 554 c 4
 121.5 605.885742188 239.34375 611 315 611 c 4
 357.211914062 611 394.75 609 401.75 608 c 5
 395.75 600 382.75 583 382.75 558 c 4
 382.75 505 430.75 474 474.75 474 c 4
 518.75 474 566.75 505 566.75 558 c 4
 566.75 642.977783203 451 670 315 670 c 4
 215 670 79.5 652 79.5 562 c 4
15 288 m 1
 15 315 l 1
 261 315 l 1
 258.164478188 357.532827182 228 391.267578125 198 391.267578125 c 0
 180.364257812 391.267578125 165.118202841 387.385986725 151 363 c 0
 140 344 126.646484375 339.263671875 113 339.263671875 c 0
 93 339.263671875 76.2109375 353 76.2109375 374.122070312 c 0
 76.2109375 414 123.100792732 432.167358968 165.27885421 432.167358968 c 0
 249.407348514 432.167358968 293.626701618 373.979249619 295 288 c 1
 220 288 l 2
 126.957367049 288 83.3915037787 230 83.3915037787 174.000001556 c 0
 83.3915037787 121.64183372 123.262203778 71 198 71 c 0
 247.046364159 71 299 95.1647551294 299 143 c 2
 299 178 l 1
 326 178 l 1
 326 143 l 2
 326 97.0862774658 373.775105866 71 424 71 c 0
 520.489182971 71 561.893554688 167.485351562 561.893554688 273.217773438 c 1
 577.31640625 269.888671875 591.31386711 262.436035303 597.987383913 258.221926564 c 1
 597.987383913 126.285711076 547.007371766 -0.0251311659364 427.655553183 -0.0251311659364 c 0
 363.027670828 -0.0251311659364 334.630436238 28.5207489381 313 59 c 1
 283.406198924 21.686076905 250 0 199 0 c 0
 97.9838045205 0 45.8804869702 81.1902905721 45.8804869702 161.999997835 c 0
 45.8804869702 212 71.0486818679 264.197947883 125 288 c 1
 15 288 l 1
EndSplineSet
Validated: 5
Ligature2: "si_abvs_2-0 subtable" si_Dda si_MatraIi
Ligature2: "si_abvs_2 subtable" si_Dda si_MatraIi
EndChar

StartChar: si_vocalicR
Encoding: 11 3469 27
GlifName: si_vocalicR_
Width: 894
VWidth: 1000
Flags: HMW
LayerCount: 2
Back
Fore
SplineSet
31 154 m 0
 31 261 117 316 209 316 c 0
 222 316 250 314 263 310 c 1
 263 312 263 311.041992188 263 313 c 0
 263 358 231 395 194 395 c 0
 153 395 142 371 136.5 355 c 0
 129.951171875 335.948242188 119.87109375 323 98 323 c 0
 82 323 62 333.368164062 62 359 c 0
 62 406 112 431.5 167 431.5 c 0
 255 431.5 293.146484375 369 293.146484375 296 c 0
 293.146484375 292.721679688 293 288 293 282 c 1
 278 285 241 291 212 291 c 0
 143 291 69 255 69 175 c 0
 69 116.176757812 122 71 192 71 c 0
 247.764648438 71 301 101.782226562 301 152 c 2
 301 182 l 1
 328 182 l 1
 328 152 l 2
 328 96.326171875 389.229492188 71 451 71 c 0
 520 71 571 115 571 175 c 0
 571 255 508 291 432 291 c 0
 400 291 371 289 333 282 c 1
 332.814453125 285.706054688 332.716796875 287.374023438 332.716796875 291 c 0
 332.716796875 375 380.57421875 432 456 432 c 0
 510 432 559 408 559 350 c 0
 559 328.666992188 545 306 530 297 c 1
 577.333007812 273.666992188 608 221.08203125 608 166 c 0
 608 58 538 0 440 0 c 0
 375.333007812 0 332 31 313 82 c 1
 292 30 251 -1 183 -1 c 0
 88 -1 31 76 31 154 c 0
362 310 m 1
 373 313 401 316 425 316 c 0
 459 316 483 313 505 306 c 1
 517 319 520 334 520 346 c 256
 520 379 486.477539062 393 450 393 c 0
 398 393 366.666992188 364.666992188 362 310 c 1
EndSplineSet
Refer: 70 3544 N 1 0 0 1 584 0 2
Validated: 1
EndChar

StartChar: si_vocalicRr
Encoding: 12 3470 28
GlifName: si_vocalicR_r
Width: 1140
VWidth: 1000
Flags: HMW
LayerCount: 2
Back
Fore
SplineSet
31 154 m 0
 31 261 117 316 209 316 c 0
 222 316 250 314 263 310 c 1
 263 312 263 311.041992188 263 313 c 0
 263 358 231 395 194 395 c 0
 153 395 142 371 136.5 355 c 0
 129.951171875 335.948242188 119.87109375 323 98 323 c 0
 82 323 62 333.368164062 62 359 c 0
 62 406 112 431.5 167 431.5 c 0
 255 431.5 293.146484375 369 293.146484375 296 c 0
 293.146484375 292.721679688 293 288 293 282 c 1
 278 285 241 291 212 291 c 0
 143 291 69 255 69 175 c 0
 69 116.176757812 122 71 192 71 c 0
 247.764648438 71 301 101.782226562 301 152 c 2
 301 182 l 1
 328 182 l 1
 328 152 l 2
 328 96.326171875 389.229492188 71 451 71 c 0
 520 71 571 115 571 175 c 0
 571 255 508 291 432 291 c 0
 400 291 371 289 333 282 c 1
 332.814453125 285.706054688 332.716796875 287.374023438 332.716796875 291 c 0
 332.716796875 375 380.57421875 432 456 432 c 0
 510 432 559 408 559 350 c 0
 559 328.666992188 545 306 530 297 c 1
 577.333007812 273.666992188 608 221.08203125 608 166 c 0
 608 58 538 0 440 0 c 0
 375.333007812 0 332 31 313 82 c 1
 292 30 251 -1 183 -1 c 0
 88 -1 31 76 31 154 c 0
362 310 m 1
 373 313 401 316 425 316 c 0
 459 316 483 313 505 306 c 1
 517 319 520 334 520 346 c 256
 520 379 486.477539062 393 450 393 c 0
 398 393 366.666992188 364.666992188 362 310 c 1
EndSplineSet
Refer: 70 3544 N 1 0 0 1 830 0 2
Refer: 70 3544 N 1 0 0 1 584 0 2
Validated: 1
EndChar

StartChar: si_Ee
Encoding: 16 3474 29
GlifName: si_E_e
Width: 595
VWidth: 1000
Flags: HMW
LayerCount: 2
Back
Fore
SplineSet
469 515 m 17
 475 512 491.229492188 509 502 509 c 0
 532 509 555 522 555 558 c 0
 555 614 490 631 469 648 c 9
 469 515 l 17
441 447 m 25
 441 693 l 17
 497 646 596 650 596 557 c 0
 596 517 566 484 519 484 c 0
 495.293945312 484 478 489 469 492 c 9
 469 417 l 25
 441 447 l 25
45 165 m 0
 45 195.720703125 54.775390625 227.831054688 78 248 c 0
 94.126953125 262.004882812 113 273 139 278 c 1
 172.760742188 290.19921875 207.875 302 245 302 c 2
 257 302 l 1
 257.08203125 304.041015625 257.0859375 306.041015625 257.0859375 308 c 0
 257.0859375 347 231 389 194 389 c 0
 155 389 144 365 138.5 349 c 0
 131.951171875 329.948242188 121.87109375 317 100 317 c 0
 84 317 64 327.368164062 64 353 c 0
 64 400 114 425.5 169 425.5 c 0
 257 425.5 289.146484375 352 289.146484375 290 c 0
 289.146484375 286.721679688 289.100585938 280.387695312 289 277 c 1
 231 277 l 2
 186.559570312 277 147.1171875 264.814453125 122 249 c 0
 95 232 82 206.05078125 82 180 c 0
 82 94 189 71 279 71 c 0
 432 71 513 152 513 261 c 0
 513 317.666992188 496 358 471 394 c 1
 456.333007812 361.333007812 426 341 383 341 c 0
 319.844726562 341 283 396 283 462 c 0
 283 512 298 548 325 579 c 1
 386 546 454.108202787 472.49835122 493 412 c 0
 529 356 545 309 545 239 c 0
 545 119 459 0 276 0 c 0
 155 0 45 46 45 165 c 0
16 270 m 1
 16 302 l 1
 255 302 l 1
 285 277 l 1
 129 277 l 2
 58 276 32 272.666992188 16 270 c 1
313 466 m 0
 313 416.666992188 333 377 390 377 c 0
 414 377 441.763671875 388.140625 452 422 c 1
 422 468 372 514 334 542 c 1
 322 524 313 500.666992188 313 466 c 0
EndSplineSet
EndChar

StartChar: si_Oo
Encoding: 19 3477 30
GlifName: si_O_o
Width: 636
VWidth: 1000
Flags: HMW
LayerCount: 2
Back
Fore
SplineSet
139 543 m 4
 139 531 163 526 163 515 c 4
 163 513 162 510 160 508 c 5
 193 514 232.674804688 519 279 519 c 4
 387 519 472 490 530 422 c 5
 497 537 400 590 284 590 c 4
 212 590 139 567 139 543 c 4
42 442 m 13
 42 473 l 21
 74 485 126 499 126 508 c 4
 126 520 98 524 98 546 c 4
 98 583 163 629 278 629 c 4
 486 629 560 490 572 356 c 5
 583 329 590 292 590 245 c 5
 552 250 l 21
 552.613870443 257.46875706 552.826146051 264.803810992 552.826146051 271.999991627 c 4
 552.826146051 410 443 493.75 282 493.75 c 4
 206 493.75 123 480 42 442 c 13
274 363 m 0
 274 337 295 316 321 316 c 0
 347 316 368 337 368 363 c 0
 368 389 347 410 321 410 c 0
 295 410 274 389 274 363 c 0
30 224 m 0
 30 332 74 431.5 148 431.5 c 0
 167.006835938 431.5 173 428 180 423 c 0
 190.609375 415.421875 198.873046875 401 198.873046875 371 c 0
 198.873046875 357 199 340.014648438 199 337 c 0
 199 284 240 253 295 253 c 0
 348 253 389 281 389 326 c 0
 389 327 389 329 388 331 c 1
 382 318 358.65625 289 318 289 c 0
 271.278320312 289 245 324.079101562 245 360 c 256
 245 402 277 434 322 434 c 0
 381 434 418 389 418 330 c 0
 418 268 367 224 296 224 c 0
 225.25445084 224 172 267 172 339 c 0
 172 344.219726562 172.27544052 362.934877611 172.27544052 371.999999557 c 0
 172.27544052 392 168.197801988 406 145 406 c 0
 94 406 61 327 61 254 c 0
 61 149.666457941 116 70 199 70 c 0
 273 70 293 107.666992188 293 141 c 2
 293 167 l 1
 317 167 l 1
 317 140 l 2
 317 95.748046875 356 71 410 71 c 0
 505.558649722 71 554 181.873239616 554 286 c 1
 570 274 576 264 590 254 c 1
 590 126.500578052 543 0 406 0 c 0
 365 0 321 16 305 55 c 1
 283 15 246 0 196 0 c 0
 78 0 30 127 30 224 c 0
EndSplineSet
Validated: 5
EndChar

StartChar: si_Nnga
Encoding: 26 3487 31
GlifName: si_N_nga
Width: 749
VWidth: 1000
Flags: HMW
LayerCount: 2
Back
Fore
SplineSet
151 207 m 0
 151 330 226 431.5 337 431.5 c 0
 340.953125 431.5 345.954101562 431.25 350 431 c 1
 350 408 l 1
 346.64453125 408.284179688 342.310546875 408.450195312 339 408.450195312 c 0
 253 408.450195312 186 332 186 230 c 0
 186 147 234.309570312 71 323 71 c 0
 382 71 435 98.6416015625 435 158 c 0
 435 196 415.453125 217 384 217 c 0
 376.666992188 217 367 215 360 210 c 1
 359 204 358 195.333007812 358 192 c 1
 333 192 l 1
 343.196289062 316.901367188 405 431.5 527 431.5 c 0
 639 431.5 703 332 703 217 c 0
 703 95 617.052734375 -1 486 -1 c 0
 476 -1 465.666992188 -0.3330078125 455 1 c 1
 455 26 l 1
 463 25 471 24 479 24 c 0
 586 24 660 100 660 200 c 0
 660 301 601 371 510 371 c 0
 433.349609375 371 380 313 364 236 c 1
 372 240 380.333007812 241 387 241 c 0
 435 241 469 202 469 136 c 0
 469 56 412 -2 325 -2 c 0
 214 -2 151 96 151 207 c 0
27 221 m 4
 27 352.699751668 99.7561968728 433 239 433 c 4
 248 433 311 433 337 431.5 c 5
 316 420.5 273 415 256 409 c 5
 120 409 56 342 56 218 c 4
 56 137.333007812 83 75.3330078125 135 30 c 5
 135 0 l 5
 68.5828449348 33.2085775326 27 120.069879655 27 221 c 4
EndSplineSet
Validated: 5
EndChar

StartChar: si_Nya
Encoding: 31 3492 32
GlifName: si_N_ya
Width: 1024
VWidth: 1000
Flags: HMW
LayerCount: 2
Back
Fore
SplineSet
603 168.5 m 0
 603 273.5 676 316.5 795 316.5 c 2
 915 316.5 l 1
 905.276367188 362.685546875 853.25 395.5 809.25 395.5 c 0
 790.25 395.5 774.298828125 383.411132812 765.75 365.5 c 128
 755.25 343.5 739.051757812 335.5 724.25 335.5 c 0
 699.25 335.5 686.25 350.5 686.25 371.5 c 0
 686.25 407.783203125 726.25 432.5 781.25 432.5 c 0
 866.989257812 432.5 932.904296875 388.502929688 951 293.5 c 1
 814 293.5 l 2
 726 293.5 680 256.5 680 172.5 c 0
 680 88.5 750 26.5 833 26.5 c 0
 879.077148438 26.5 916 45.5 956 91.5 c 1
 979 74.5 l 1
 948.459960938 38.8701171875 878 -28.5 878 -104.5 c 0
 878 -170.598632812 917.217773438 -195.6171875 981 -210.5 c 1
 981 -238.5 l 1
 967 -241.166992188 949 -242.5 927 -242.5 c 0
 856.43359375 -240.540039062 821 -199.518554688 821 -142.5 c 0
 821 -103.833007812 844.333007812 -53.1669921875 891 9.5 c 1
 856 -0.5 833.333007812 -1.5 806 -1.5 c 0
 675 -1.5 603 68.5 603 168.5 c 0
195 95 m 1
 201 98.3330078125 207.333007812 100 214 100 c 0
 243 100 267 71 324 71 c 0
 375.182617188 71 406 101.864257812 406 162 c 0
 406 164.208984375 406.041015625 161.3046875 406 163 c 1
 432 163 l 1
 431.963867188 161.6640625 432 163.330078125 432 162 c 0
 432 96.9267578125 459 71 517 71 c 0
 579.088867188 71 599 123 599 159 c 0
 599 242 525.87890625 291 423 291 c 0
 366.333007812 291 328 282 307 273 c 1
 289.666992188 258.333007812 270 234.666992188 254 212 c 0
 225.333007812 171.333007812 205.666992188 131.666992188 195 95 c 1
146 22 m 5
 153.696289062 91.26953125 199.452148438 184.165039062 234 232 c 4
 260 268 275 282 293 301 c 5
 305 314 318 330 318 352 c 4
 318 374 308.408203125 392 283 392 c 4
 269 392 247.478515625 384.287109375 241 363 c 4
 234 340 237.653320312 340.109375 231 323 c 4
 224 305 209 297 194 297 c 4
 160 297 154 328 154 340 c 4
 154 394.098632812 204.36328125 433 261 433 c 4
 310.711914062 433 345.079101562 402 345.079101562 356 c 4
 345.079101562 351.467773438 344.723632812 345.794921875 344 341 c 5
 372.357403847 362.046370158 409.339493752 388.188406944 480 412 c 4
 550.909946961 435.895651054 608.200195312 442 689.25 442 c 4
 715.791992188 442 783.740234375 439.388671875 827.5 427.25 c 5
 725.25 413.5 l 5
 714.280273438 414.815429688 693.461914062 415 683.25 415 c 4
 633.81640625 415 596.183440039 410.733531298 564 405 c 4
 480.979432402 390.209753149 419.010754317 364.724364206 344 308 c 5
 368 314 399.666992188 316 427 316 c 4
 547 316 640 251 640 126 c 4
 640 67.84765625 607 -1 522 -1 c 4
 476 -1 442.333007812 20.3330078125 421 63 c 5
 403.666992188 21.6669921875 371.021484375 -1 329 -1 c 4
 242 -1 245 73 212 73 c 4
 189.674804688 73 175 51 172 11 c 5
 146 22 l 5
27 221 m 0
 27 352.699751668 99.755859375 434.25 239 434.25 c 0
 248 434.25 271 434.25 293 428.25 c 1
 272 417.25 194 406.5 177 400.5 c 1
 102 382.5 56 319.267578125 56 218 c 0
 56 137.333007812 83 75.3330078125 135 30 c 1
 135 0 l 1
 68.5828449348 33.2085775326 27 120.069879655 27 221 c 0
EndSplineSet
Validated: 5
EndChar

StartChar: si_Jnya
Encoding: 32 3493 33
GlifName: si_J_nya
Width: 842
VWidth: 1000
Flags: HMW
LayerCount: 2
Back
Fore
SplineSet
421 169 m 4
 421 274 494 317 613 317 c 6
 733 317 l 5
 723.276367188 363.185546875 694 396 650 396 c 4
 631 396 615.048828125 383.911132812 606.5 366 c 132
 596 344 579.801757812 336 565 336 c 4
 540 336 527 351 527 372 c 4
 527 408.283203125 567 433 622 433 c 4
 707.739257812 433 750.904296875 389.002929688 769 294 c 5
 632 294 l 6
 544 294 498 257 498 173 c 4
 498 89 568 27 651 27 c 4
 697.077148438 27 734 46 774 92 c 5
 797 75 l 5
 766.459960938 39.3701171875 696 -28 696 -104 c 4
 696 -170.098632812 735.217773438 -195.1171875 799 -210 c 5
 799 -238 l 5
 785 -240.666992188 767 -242 745 -242 c 4
 674.43359375 -240.040039062 639 -199.018554688 639 -142 c 4
 639 -103.333007812 662.333007812 -52.6669921875 709 10 c 5
 674 0 651.333007812 -1 624 -1 c 4
 493 -1 421 69 421 169 c 4
134 207 m 4
 134 330 209 431.5 320 431.5 c 4
 323.953125 431.5 328.954101562 431.25 333 431 c 5
 333 408 l 5
 329.64453125 408.284179688 325.310546875 408.450195312 322 408.450195312 c 4
 236 408.450195312 169 332 169 230 c 4
 169 147 217.309570312 71 306 71 c 4
 365 71 418 98.6416015625 418 158 c 4
 418 196 398.453125 217 367 217 c 4
 359.666992188 217 349 214 344 210 c 5
 343 204 342 195.333007812 342 192 c 5
 315 192 l 5
 328.677595439 352.298149849 406.221009374 438 560 438 c 4
 591 438 640.988111734 436.424769759 674 426 c 5
 553 409.25 l 5
 547.39453125 409.405273438 543.216796875 409.5 537.5 409.5 c 4
 430.520985901 409.5 369.280935389 339.916498026 347 236 c 5
 355 240 363.333007812 241 370 241 c 4
 418 241 452 202 452 136 c 4
 452 56 395 -2 308 -2 c 4
 197 -2 134 96 134 207 c 4
27 221 m 0
 27 352.699751668 99.7561968728 433 239 433 c 0
 248 433 301 433 324 431.5 c 1
 320 431.5 231 406 231 406 c 1
 97 406 56 312.399347689 56 218 c 0
 56 137.333007812 83 75.3330078125 135 30 c 1
 135 0 l 1
 68.5828449348 33.2085775326 27 120.069879655 27 221 c 0
EndSplineSet
Validated: 5
EndChar

StartChar: si_Da
Encoding: 42 3503 34
GlifName: si_D_a
Width: 456
VWidth: 1000
Flags: MW
LayerCount: 2
Back
Fore
SplineSet
31 169 m 4
 31 274 104 317 223 317 c 6
 343 317 l 5
 333.276719951 363.185580234 304 396 260 396 c 4
 241 396 225.048478374 383.911097545 216.5 366 c 4
 206 344 189.801757812 336 175 336 c 4
 150 336 137 351 137 372 c 4
 137 408.283203125 177 433 232 433 c 4
 317.739153659 433 360.904173939 389.003086822 379 294 c 5
 242 294 l 6
 154 294 108 257 108 173 c 4
 108 89 178 27 261 27 c 4
 307.077148438 27 344 46 384 92 c 5
 407 75 l 5
 376.460069993 39.3700816582 306 -28 306 -104 c 4
 306 -170.098346832 345.218242257 -195.11758986 409 -210 c 5
 409 -238 l 5
 395 -240.666666667 377 -242 355 -242 c 4
 284.433558686 -240.039821075 249 -199.018509689 249 -142 c 4
 249 -103.333333333 272.333333333 -52.6666666667 319 10 c 5
 284 0 261.333007812 -1 234 -1 c 4
 103 -1 31 69 31 169 c 4
EndSplineSet
Validated: 1
EndChar

StartChar: si_Nda
Encoding: 45 3507 35
GlifName: si_N_da
Width: 526
VWidth: 1000
Flags: HMW
LayerCount: 2
Back
Fore
SplineSet
27 221 m 0
 27 352.699751668 98 435 255 435 c 0
 260 435 301 434 329 428.5 c 1
 313.325195312 418.376953125 265.65625 410.732421875 225 405.248046875 c 1
 119.088937194 397.472636818 56 342.137456542 56 218 c 0
 56 137.333007812 83 75.3330078125 135 30 c 1
 135 0 l 1
 68.5828449348 33.2085775326 27 120.069879655 27 221 c 0
115 169 m 0
 115 274 188 317 307 317 c 2
 427 317 l 1
 417.276367188 363.185546875 368 394 330 394 c 0
 311 394 295.048828125 383.911132812 286.5 366 c 128
 276 344 259.801757812 336 245 336 c 0
 220 336 207 351 207 372 c 0
 207 408.283203125 239 431 294 431 c 0
 379.739257812 431 444.904296875 389.002929688 463 294 c 1
 326 294 l 2
 238 294 192 257 192 173 c 0
 192 89 262 27 345 27 c 0
 391.077148438 27 428 46 468 92 c 1
 491 75 l 1
 460.459960938 39.3701171875 390 -28 390 -104 c 0
 390 -153.119529127 411.657402596 -179.553226995 448.958792491 -196 c 0
 461.852730561 -201.685141309 476.61592378 -206.176973626 493 -210 c 1
 493 -238 l 1
 479 -240.666992188 461 -242 439 -242 c 0
 368.43359375 -240.040039062 333 -199.018554688 333 -142 c 0
 333 -103.333007812 356.333007812 -52.6669921875 403 10 c 1
 368 0 345.333007812 -1 318 -1 c 0
 187 -1 115 69 115 169 c 0
EndSplineSet
Validated: 5
EndChar

StartChar: si_Pha
Encoding: 47 3509 36
GlifName: si_P_ha
Width: 579
VWidth: 1000
Flags: HMW
LayerCount: 2
Back
SplineSet
33 165 m 4
 33 268.952759133 116 309 229 309 c 6
 249 309 l 5
 249.08203125 311.041015625 249.0859375 313.041015625 249.0859375 315 c 4
 249.0859375 358 219 395 182 395 c 4
 143 395 132 371 126.5 355 c 4
 119.951171875 335.948242188 109.87109375 323 88 323 c 4
 72 323 52 333.368164062 52 359 c 4
 52 406 102 431.5 157 431.5 c 4
 245 431.5 281.146484375 364 281.146484375 297 c 4
 281.146484375 293.721679688 281.100585938 287.387695312 281 284 c 5
 221 284 l 6
 128 284 70 245.663822637 70 180 c 4
 70 94 177 71 267 71 c 4
 420 71 501 148 501 267 c 4
 501 319.599564278 486.352858011 368.464982407 464.256352317 403.999997684 c 4
 462.547670026 406.747855293 460.794443182 409.416001819 459 412 c 5
 444.333007812 379.333007812 414 359 371 359 c 4
 307.844726562 359 271 414 271 480 c 4
 271 530 286 566 313 597 c 5
 374 564 444.96484375 492.2421875 481 430 c 4
 519.783203125 363.01171875 533 315 533 245 c 4
 533 117 447 0 264 0 c 4
 143 0 33 46 33 165 c 4
301 484 m 4
 301 434.666992188 321 395 378 395 c 4
 402 395 429.763671875 406.140625 440 440 c 5
 410 486 360 532 322 560 c 5
 310 542 301 518.666992188 301 484 c 4
EndSplineSet
Fore
SplineSet
33 165 m 0
 33 268.952759133 116 309 229 309 c 2
 249 309 l 1
 249.08203125 311.041015625 249.0859375 313.041015625 249.0859375 315 c 0
 249.0859375 358 219 395 182 395 c 0
 143 395 132 371 126.5 355 c 0
 119.951171875 335.948242188 109.87109375 323 88 323 c 0
 72 323 52 333.368164062 52 359 c 0
 52 406 102 431.5 157 431.5 c 0
 245 431.5 281.146484375 364 281.146484375 297 c 0
 281.146484375 293.721679688 281.100585938 287.387695312 281 284 c 1
 221 284 l 2
 128 284 70 245.663822637 70 180 c 0
 70 94 177 71 267 71 c 0
 420 71 501 148 501 267 c 0
 501 323.637011121 484.123683132 375.821896305 459 412 c 1
 444.333007812 379.333007812 414 359 371 359 c 0
 307.844726562 359 271 414 271 480 c 0
 271 530 286 566 313 597 c 1
 374 564 444.96484375 492.2421875 481 430 c 0
 519.783203125 363.01171875 533 315 533 245 c 0
 533 117 447 0 264 0 c 0
 143 0 33 46 33 165 c 0
301 484 m 0
 301 434.666992188 321 395 378 395 c 0
 402 395 429.763671875 406.140625 440 440 c 1
 410 486 360 532 322 560 c 1
 310 542 301 518.666992188 301 484 c 0
EndSplineSet
Validated: 1
EndChar

StartChar: si_Ba
Encoding: 48 3510 37
GlifName: si_B_a
Width: 619
VWidth: 1000
Flags: MW
LayerCount: 2
Back
Fore
SplineSet
101.490234375 76 m 4
 101.490234375 49.5400390625 123.540039062 27.490234375 150 27.490234375 c 4
 176.459960938 27.490234375 198.509765625 49.5400390625 198.509765625 76 c 4
 198.509765625 102.459960938 176.459960938 124.509765625 150 124.509765625 c 4
 123.540039062 124.509765625 101.490234375 102.459960938 101.490234375 76 c 4
33 187 m 4
 33 313.6875 120.106831661 396 247 396 c 4
 338.787219745 396 423 344.764432331 423 257 c 4
 423 126 304 167 304 101 c 4
 304 76.3333333333 319.666666667 64 351 64 c 4
 461.83477875 64 530 202 530 313 c 4
 530 458 442 561 292 561 c 4
 198 561 132.666992188 530 94 470 c 5
 64 470 l 5
 98.6666666667 542 178.570940778 585 292 585 c 4
 470 585 575 465.142527885 575 284 c 4
 575 141.309689556 518.060138365 -2 381 -2 c 4
 321.201842249 -2 273 34.5565970056 273 94 c 4
 273 186 388 156 388 237 c 4
 388 296 308.910429407 320 237 320 c 4
 146 320 64 267 64 162 c 4
 64 136 69 106 77 91 c 5
 81 126 109.4375 153 150 153 c 4
 193 153 229 119 229 77 c 4
 229 29 190 -1 150 -1 c 4
 68 -1 33 91.123046875 33 187 c 4
EndSplineSet
Validated: 1
EndChar

StartChar: si_Bha
Encoding: 49 3511 38
GlifName: si_B_ha
Width: 670
VWidth: 1000
Flags: MW
LayerCount: 2
Back
Fore
SplineSet
6 271 m 5
 6 303 l 5
 212 303 l 5
 171 278 l 5
 140 278 l 6
 69 277 22 273.666992188 6 271 c 5
48.955078125 155.11328125 m 0
 48.955078125 253 148 303.352539062 218 303.352539062 c 0
 221.958007812 303.352539062 217.958984375 303.223632812 222 303 c 1
 222 345.31640625 198 383.055664062 160.45703125 383.055664062 c 0
 139.504882812 383.055664062 127.797851562 370.856445312 122 355.692382812 c 0
 116 340 102.672851562 327.240234375 81.802734375 327.240234375 c 0
 62 327.240234375 49.0234375 341 49.0234375 364 c 0
 49.0234375 394.208007812 77.7021484375 432.033203125 134.455078125 432.033203125 c 0
 213.349609375 432.033203125 253.8046875 360.444335938 255 278 c 1
 243 280 233 280.020507812 229 280.020507812 c 0
 163 280.020507812 85.75 245.325195312 85.75 175.359375 c 0
 85.75 105.728515625 149.657226562 72 224 72 c 0
 290.436523438 72 346.111328125 100.48828125 346.111328125 164.323242188 c 0
 346.111328125 194.870117188 331 212.412109375 311 212.412109375 c 0
 297.517578125 212.412109375 283.75390625 203.010742188 277 182 c 1
 255 192 l 1
 264 317 345.086914062 432.009765625 446.301757812 432.009765625 c 0
 558.173828125 432.009765625 621.018554688 328.650390625 621.018554688 210.961914062 c 0
 621.018554688 92.0048828125 532 -1.3037109375 409 -1.3037109375 c 0
 395.685546875 -1.3037109375 381.993164062 -0.2666015625 368 2 c 1
 368 29 l 1
 380.328125 27.0869140625 392.353515625 26.205078125 404 26.205078125 c 0
 503 26.205078125 573.147460938 93.40625 573.147460938 192.821289062 c 0
 573.147460938 288.168945312 520.793945312 362 430 362 c 0
 356.666992188 362 309 317.666992188 287 229 c 1
 296.834960938 234.532226562 306.633789062 237.169921875 316 237.169921875 c 0
 354 237.169921875 382.163085938 199.139648438 382.163085938 145.349609375 c 0
 382.163085938 52.9931640625 311.500976562 -0.7626953125 217.033203125 -0.7626953125 c 0
 119.482421875 -0.7626953125 48.955078125 61.0615234375 48.955078125 155.11328125 c 0
EndSplineSet
Validated: 5
EndChar

StartChar: si_Ma
Encoding: 50 3512 39
GlifName: si_M_a
Width: 631
VWidth: 1000
Flags: MW
LayerCount: 2
Back
Fore
SplineSet
264 352 m 0
 264 325 286 303 313 303 c 0
 340 303 362 325 362 352 c 0
 362 379 340 401 313 401 c 0
 286 401 264 379 264 352 c 0
33 250 m 0
 33 339 79 432 156 432 c 0
 204.891601562 432 209 398 209 373 c 0
 209 346 204 338 204 302 c 0
 204 247 245 218 300 218 c 0
 360 218 401 255 401 314 c 0
 401 342 392 359 387 366 c 1
 389 356 389 351 389 343 c 0
 389 306 361 271 313 271 c 0
 262 271 233 315 233 351 c 0
 233 397 269.997395904 432 318 432 c 0
 387 432 431 382 431 306 c 0
 431 237 375 186 302 186 c 0
 242 186 173 216 173 295 c 0
 173 334 180 348 180 379 c 0
 180 391.165039062 175.568359375 405 154 405 c 0
 106 405 68 346 68 267 c 0
 68 134 172.7734375 71 308 71 c 0
 450.352539062 71 550 166 550 307 c 0
 550 443.715820312 444 560 303 560 c 0
 222 560 158 531 110 469 c 1
 78 469 l 1
 127 544 209.294921875 586 302 586 c 0
 462 586 585 454 585 292 c 0
 585 110 475.091796875 0 310 0 c 0
 143 0 33 94 33 250 c 0
EndSplineSet
Validated: 1
EndChar

StartChar: si_Mba
Encoding: 51 3513 40
GlifName: si_M_ba
Width: 636
VWidth: 1000
Flags: HMW
LayerCount: 2
Back
Fore
SplineSet
30 226.75 m 0
 30 332.007246437 74 431.5 148 431.5 c 0
 167.006835938 431.5 173 428 180 423 c 0
 190.609375 415.421875 198.873046875 401 198.873046875 371 c 0
 198.873046875 357 199 340.014648438 199 337 c 0
 199 284 240 253 295 253 c 0
 348 253 389 281 389 326 c 0
 389 327 389 329 388 331 c 1
 382 318 358.65625 289 318 289 c 0
 271.278320312 289 245 324.079101562 245 360 c 256
 245 402 277 434 322 434 c 0
 381 434 418 389 418 330 c 0
 418 268 367 224 296 224 c 0
 225.25445084 224 172 267 172 339 c 0
 172 344.219726562 172.27544052 362.934877611 172.27544052 371.999999557 c 0
 172.27544052 392 168.197801988 406 145 406 c 0
 94 406 61 327 61 254 c 0
 61 158.921030212 108.25 72 191.25 72 c 0
 213.25 72 220.826171875 75.66796875 225.25 79 c 1
 223.25 87 222.25 101 222.25 108 c 0
 222.25 180 277.25 200 310.25 200 c 0
 343.25 200 398.25 180 398.25 108 c 0
 398.25 101 397.25 87 395.25 79 c 1
 399.673828125 75.66796875 407.25 72 429.25 72 c 0
 498.25 72 554 181.873239616 554 286 c 0
 554 433.479491635 458 556 298 556 c 0
 199 556 140 525 93 466 c 1
 62 466 l 1
 107 531 173 579 300 579 c 0
 488 579 590 431.114542606 590 254 c 0
 590 126.500578052 530.25 0 414.25 0 c 0
 390.25 0 371.25 4 350.25 17 c 1
 350.25 28.8495805662 353.026106797 39.3841631758 356.456017092 50 c 4
 361.99918551 67.1565336585 369.25 84.525292307 369.25 108 c 0
 369.25 142 345.690429688 171 310.25 171 c 0
 274.809570312 171 251.25 142 251.25 108 c 0
 251.25 85.4368745826 257.948613534 68.5146868783 263.391016534 52 c 0
 267.114511883 40.7012483689 270.25 29.5932397911 270.25 17 c 1
 249.25 4 230.25 0 206.25 0 c 0
 88.25 0 30 116.782937559 30 226.75 c 0
274 363 m 0
 274 337 295 316 321 316 c 0
 347 316 368 337 368 363 c 0
 368 389 347 410 321 410 c 0
 295 410 274 389 274 363 c 0
EndSplineSet
EndChar

StartChar: si_Ya
Encoding: 52 3514 41
GlifName: si_Y_a
Width: 636
VWidth: 1000
Flags: MW
LayerCount: 2
Back
Fore
SplineSet
30 185 m 4
 30 305 106.325380748 389 223 389 c 4
 233 389 242.333333333 388.333333333 251 387 c 5
 251 359 l 5
 240.333333333 361 229.666666667 362 219 362 c 4
 130.336145814 362 64 298 64 212 c 4
 64 126 118.286132812 71 193 71 c 4
 242 71 295 97 295 146 c 6
 295 176 l 5
 322 176 l 5
 322 147 l 6
 322 98.2716829231 378 71 435 71 c 4
 516.554344526 71 555 120 555 186 c 4
 555 272 494 300 408 300 c 4
 378 300 348.666666667 296.333333333 322 289 c 5
 321.333333333 296.333333333 321 303.333333333 321 310 c 4
 321 388.666666667 366.93359375 433 451 433 c 4
 511 433 558 409 558 357 c 4
 558 338 548 312 521 303 c 5
 564.333333333 277 592 227.798828125 592 167 c 4
 592 71 528 -1 436 -1 c 4
 369.969703923 -1 327 25 307 71 c 5
 284.333333333 23 244 -1 186 -1 c 4
 85.4659984779 -1 30 82 30 185 c 4
350 319 m 5
 366 323 390 325 410 325 c 4
 446 325 475 321.333333333 497 314 c 5
 510 320 519 334 519 350 c 4
 519 381.860375463 486 397 451 397 c 4
 392.005859375 397 352.618461191 372.678454422 350 319 c 5
EndSplineSet
Validated: 1
EndChar

StartChar: si_Ra
Encoding: 53 3515 42
GlifName: si_R_a
Width: 528
VWidth: 1000
Flags: MW
LayerCount: 2
Back
Fore
SplineSet
31 213 m 4
 31 322.52211473 93.8328089646 382.031933756 169 415 c 4
 226 440 324 462 411 526 c 4
 461.773406003 563.350551542 474 607 503 607 c 4
 516 607 526 600.333007812 526 589 c 4
 526 564 503 535 442 500 c 4
 405.055615481 478.802402325 335 446 291 434 c 5
 340 431.5 390.810650326 409.850717105 429.5 366.5 c 4
 465.350590935 326.33006076 482 281.003971989 482 225 c 4
 482 102 383.523302632 0 248 0 c 4
 123.953919804 0 31 89.1821923439 31 213 c 4
66 237 m 4
 66 143.671016059 131.981483069 73 240 73 c 4
 345 73 430 149 430 254 c 4
 430 356 355.594726562 411 264 411 c 4
 166.78125 411 66 339.359738008 66 237 c 4
EndSplineSet
Validated: 1
EndChar

StartChar: si_La
Encoding: 54 3517 43
GlifName: si_L_a
Width: 670
VWidth: 1000
Flags: MW
LayerCount: 2
Back
Fore
SplineSet
31 135 m 4
 31 322.923338698 169.392391422 432 364 432 c 4
 487.659863223 432 611 392.852912814 611 280 c 4
 611 210.441249513 553 171 485 171 c 4
 417 171 368 212 368 282 c 5
 265 282 l 5
 265 308 l 5
 518 308 l 5
 518 282 l 5
 396 282 l 5
 395.839051588 280.658763231 395.747210892 279.325013247 395.747210892 278.000001216 c 4
 395.747210892 242 438 216 486 216 c 4
 541 216 575 245 575 294 c 4
 575 373 489 404 370 404 c 4
 220 404 107 299.162673918 107 161 c 4
 107 -6 220 -111 381 -111 c 4
 488 -111 594 -50 594 66 c 4
 594 72 592 80 590 84 c 5
 624 84 l 5
 624.248734182 79.2740505423 624.335204447 74.6070958657 624.335204447 70.0000108564 c 4
 624.335204447 -72 499.652597213 -154 361 -154 c 4
 180 -154 31 -58 31 135 c 4
EndSplineSet
Validated: 1
EndChar

StartChar: si_Sha
Encoding: 56 3521 44
GlifName: si_S_ha
Width: 631
VWidth: 1000
Flags: HMW
LayerCount: 2
Back
Fore
SplineSet
34 206 m 0
 34 334 106.999015752 432 234 432 c 0
 238 432 248 431.5 251 431 c 1
 251 408 l 1
 246.640021914 408.302776256 242.304586527 408.462817593 238.000003267 408.462817593 c 0
 140 408.462817593 67 339.924804688 67 230 c 256
 67 146 112.190335299 70 202 70 c 0
 254 70 309 100 309 157 c 0
 309 197 290.465150791 218 259 218 c 0
 253 218 245 217 237 211 c 1
 235 206 234 197 233 192 c 1
 208 192 l 1
 222 328 276 432 399 432 c 0
 523.00100806 432 582 312.364303026 582 196 c 0
 582 128.199579906 558.073707854 36.9960192483 529 1 c 1
 502 1 l 1
 505.333333333 5.66666666667 507 10 507 14 c 0
 507 20.6666666667 503.333333333 24 496 24 c 0
 475 24 465 -3 427 -3 c 0
 390.405730212 -3 367 36 367 75 c 0
 367 138.084780925 413 184 484 184 c 0
 501.333007812 184 523 180 534 176 c 1
 534 271.674666835 475.593344867 370 383 370 c 0
 307.183804487 370 252 314 240 238 c 1
 247 241 255.333333333 242 262 242 c 0
 310 242 343 208 343 138 c 0
 343 62 289 -1 198 -1 c 0
 90.9953272048 -1 34 92 34 206 c 0
398 79 m 0
 398 51 408 27 433 27 c 0
 458 27 480 53 500 53 c 0
 508 53 516 49 519 42 c 1
 527.659193992 65.091183978 531.710863092 96.0902571853 533.236737882 121.99999892 c 4
 533.776252249 131.161089982 534 139.685929324 534 147 c 1
 520 155 503 158 482 158 c 0
 432 158 398 125 398 79 c 0
EndSplineSet
Validated: 1
EndChar

StartChar: si_Ssa
Encoding: 57 3522 45
GlifName: si_S_sa
Width: 598
VWidth: 1000
Flags: MW
LayerCount: 2
Back
Fore
SplineSet
31.3313942639 183.554236057 m 4
 31.3313942639 274.623686336 99.2296726839 326.928127469 206.999992832 326.928127469 c 4
 220 326.928127469 231.208483236 326.289067581 244 325 c 5
 244.46074454 328.824179686 244.682006201 332.490731105 244.682006201 336.000018199 c 4
 244.682006201 375 219.122578671 395.274253688 188.000000927 395.274253688 c 4
 155.970149562 395.274253688 143.560777761 378.802322884 138.653731877 360.000000482 c 4
 135 346 122.345703125 328.073242188 94 328.073242188 c 4
 75 328.073242188 55.3251953125 340 55.3251953125 365 c 4
 55.3251953125 409 103 433.625654084 158.189212207 433.625654084 c 4
 230.547628845 433.625654084 274.869626667 401 274.869626667 334.000351519 c 4
 274.869626667 322.637138529 273.631835938 311.303710938 271 298 c 5
 253.180664062 300.375976562 218.23046875 301.717773438 217 301.717773438 c 4
 139.720703125 301.717773438 69 275.738098097 69 201 c 4
 69 106.583973361 193 71 307 71 c 4
 413.550560931 71 540 110 540 205 c 4
 540 277.999460492 472 303.612307156 394.000002487 303.612307156 c 4
 370.819078063 303.612307156 346.926878013 301.168523275 324 297 c 5
 322.072237276 307.92398877 321.143157328 318.266754681 321.143157328 327.99999265 c 4
 321.143157328 397 365.956884184 433.118522656 438.844851469 433.118522656 c 4
 505 433.118522656 541.018818118 392.966132064 541.018818118 354.00000109 c 4
 541.018818118 334 532.547911667 316.666882281 514 303 c 5
 554.33230994 279.472819202 574.005875264 240.742748716 574.005875264 186.451529958 c 4
 574.005875264 55.5619188946 447.644682871 -7.1054273576e-15 307 0 c 4
 158.589562849 0 31.3313942639 45.9203100819 31.3313942639 183.554236057 c 4
353.184269997 336 m 4
 353.184269997 332.227818093 353.463260313 328.864525744 354 325 c 5
 370.954790497 327.055126121 387.344972512 328.097600692 402.999995377 328.097600692 c 4
 436 328.097600692 464.459880481 323.7643284 489 315 c 5
 500.332281081 325.70270991 505.478854717 338.485512262 505.478854717 350.99999917 c 4
 505.478854717 380 479 404.638085784 432.00000156 404.638085784 c 4
 388.777760128 404.638085784 353.184269997 381 353.184269997 336 c 4
172 198 m 4
 172 226 192 254 288 254 c 4
 311 254 358.093257182 255.452635905 389 261 c 4
 428 268 460 287 469 296 c 5
 501 289 l 5
 479 268 440 248 399 240 c 5
 418.333007812 231.333007812 432 216.333007812 432 197 c 4
 432 152 375 135 296 135 c 4
 240.326165766 135 172 149 172 198 c 4
202 198 m 4
 202 175 234.333007812 161 299 161 c 4
 367 161 402 175 402 197 c 4
 402 221.67578125 368 232 298 232 c 4
 233 232 202 220 202 198 c 4
EndSplineSet
Validated: 5
EndChar

StartChar: si_Sa
Encoding: 58 3523 46
GlifName: si_S_a
Width: 677
VWidth: 1000
Flags: MW
LayerCount: 2
Back
Fore
SplineSet
51 154 m 4
 51 226 92 269 144 285 c 5
 177.760742188 297.19921875 231.875 308 269 308 c 6
 283 308 l 5
 283.08203125 310.041015625 283.0859375 309.041015625 283.0859375 311 c 4
 283.0859375 357 251 395 214 395 c 4
 173 395 162 371 156.5 355 c 4
 149.951171875 335.948242188 139.87109375 323 118 323 c 4
 102 323 82 333.368164062 82 359 c 4
 82 406 132 431.5 187 431.5 c 4
 275 431.5 313.146484375 369 313.146484375 296 c 4
 313.146484375 292.721679688 313.100585938 286.387695312 313 283 c 5
 216 283 l 6
 163 283 89 248 89 175 c 4
 89 116.176395544 142 71 212 71 c 4
 267.764588955 71 321 101.781809699 321 152 c 6
 321 182 l 5
 348 182 l 5
 348 152 l 6
 348 96.3260473105 409.229844561 71 471 71 c 4
 540 71 591 114 591 182 c 4
 591 261 536 291 450 291 c 4
 418 291 391 289 353 282 c 5
 352.814453125 285.706054688 352.717070236 287.374324769 352.717070236 290.99999647 c 4
 352.717070236 375 400.57421875 432 476 432 c 4
 530 432 579 408 579 350 c 4
 579 328.666992188 565 306 550 297 c 5
 597.333333333 273.666666667 628 221.08203125 628 166 c 4
 628 58 558 0 460 0 c 4
 395.333007812 0 352 31 333 82 c 5
 312 30 271 -1 203 -1 c 4
 108 -1 51 76 51 154 c 4
5 276 m 5
 5 308 l 5
 281 308 l 5
 309 283 l 5
 147 283 l 6
 76 282 21 278.666992188 5 276 c 5
382 310 m 5
 393 313 421 316 445 316 c 4
 479 316 503 313 525 306 c 5
 537 319 540 334 540 346 c 260
 540 379 506.477539062 393 470 393 c 4
 418 393 386.666666667 364.666666667 382 310 c 5
EndSplineSet
Validated: 5
EndChar

StartChar: si_Kh.halant
Encoding: 100 -1 47
GlifName: si_K_h.halant
Width: 630
VWidth: 1000
Flags: HMW
LayerCount: 2
Back
Fore
SplineSet
139 543 m 0
 139 567 212 590 284 590 c 0
 400 590 494 537 527 422 c 1
 469 490 387 519 279 519 c 0
 232.674804688 519 193 514 160 508 c 1
 162 510 163 513 163 515 c 0
 163 526 139 531 139 543 c 0
42 442 m 17
 123 480 200 493.75 276 493.75 c 4
 445 493.75 542.826171875 409 542.826171875 283 c 0
 542.826171875 279 543 283 543 275 c 9
 582 267 l 1
 582 301 575 338 569 356 c 1
 557 490 486 629 278 629 c 0
 163 629 98 583 98 546 c 0
 98 524 126 520 126 508 c 0
 126 499 74 485 42 473 c 9
 42 442 l 17
92.740234375 72 m 0
 92.740234375 48.3095703125 112.309570312 28.740234375 136 28.740234375 c 0
 159.690429688 28.740234375 179.259765625 48.3095703125 179.259765625 72 c 0
 179.259765625 95.6904296875 159.690429688 115.259765625 136 115.259765625 c 0
 112.309570312 115.259765625 92.740234375 95.6904296875 92.740234375 72 c 0
32 183 m 0
 32 322 123.838867188 396 240 396 c 0
 333 396 413 343.14453125 413 258 c 0
 413 201 385 153 346 115 c 1
 349.333007812 115.666992188 352.333007812 116 355 116 c 0
 384 116 387 71 431 71 c 0
 483 71 543 187 543 280 c 1
 582 272 l 1
 582 139 516 0 416 0 c 0
 352 0 348 54 321 54 c 256
 308 54 282 34 240 -21 c 1
 204 -18 l 1
 217.333007812 -4.6669921875 246.0859375 34.025390625 288 84 c 0
 340 146 367 194 367 232 c 0
 367 286 328 320 236 320 c 0
 155.868164062 320 63 272 63 156 c 0
 63 144 66 118 72 101 c 1
 80 129 108 145 135 145 c 0
 180.80859375 145 210 116 210 72 c 0
 210 37 180 -1 141 -1 c 0
 56 -1 32 108 32 183 c 0
EndSplineSet
Validated: 5
LCarets2: 1 0
Ligature2: "si_halant_1-0 subtable" si_Kha si_Halant
Ligature2: "si_halant_1 subtable" si_Kha si_Halant
EndChar

StartChar: anusvara
Encoding: 1 3458 49
GlifName: anusvara
Width: 364
VWidth: 1000
Flags: MW
LayerCount: 2
Back
Fore
SplineSet
67.00390625 176 m 4
 67.00390625 119.72265625 114.44921875 74.1181640625 173 74.1181640625 c 4
 231.55078125 74.1181640625 278.99609375 119.72265625 278.99609375 176 c 4
 278.99609375 232.27734375 231.55078125 277.881835938 173 277.881835938 c 4
 114.44921875 277.881835938 67.00390625 232.27734375 67.00390625 176 c 4
29.8935546875 165 m 4
 29.8935546875 242.111328125 94.3466796875 305.30078125 173 305.30078125 c 4
 251.653320312 305.30078125 316.106445312 242.111328125 316.106445312 165 c 4
 316.106445312 87.888671875 251.653320312 24.69921875 173 24.69921875 c 4
 94.3466796875 24.69921875 29.8935546875 87.888671875 29.8935546875 165 c 4
EndSplineSet
Validated: 1
EndChar

StartChar: visarga
Encoding: 2 3459 50
GlifName: visarga
Width: 248
VWidth: 1000
Flags: MW
LayerCount: 2
Back
Fore
SplineSet
60.4599609375 111 m 4
 60.4599609375 80.7001953125 84.7001953125 56.4599609375 115 56.4599609375 c 4
 145.299804688 56.4599609375 169.540039062 80.7001953125 169.540039062 111 c 4
 169.540039062 141.299804688 145.299804688 165.540039062 115 165.540039062 c 4
 84.7001953125 165.540039062 60.4599609375 141.299804688 60.4599609375 111 c 4
31 110 m 4
 31 156 69 194 115 194 c 4
 161 194 199 156 199 110 c 4
 199 64 161 26 115 26 c 4
 69 26 31 64 31 110 c 4
60.4599609375 313 m 4
 60.4599609375 282.700195312 84.7001953125 258.459960938 115 258.459960938 c 4
 145.299804688 258.459960938 169.540039062 282.700195312 169.540039062 313 c 4
 169.540039062 343.299804688 145.299804688 367.540039062 115 367.540039062 c 4
 84.7001953125 367.540039062 60.4599609375 343.299804688 60.4599609375 313 c 4
31 312 m 4
 31 358 69 396 115 396 c 4
 161 396 199 358 199 312 c 4
 199 266 161 228 115 228 c 4
 69 228 31 266 31 312 c 4
EndSplineSet
Validated: 1
EndChar

StartChar: si_Nga
Encoding: 25 3486 55
GlifName: si_N_ga
Width: 617
VWidth: 1000
Flags: HMW
LayerCount: 2
Back
Fore
SplineSet
87.990234375 346.602539062 m 0
 87.990234375 319.533203125 111.912109375 297.5 141.5 297.5 c 0
 171.087890625 297.5 195.009765625 319.533203125 195.009765625 346.602539062 c 0
 195.009765625 373.671875 171.087890625 395.705078125 141.5 395.705078125 c 0
 111.912109375 395.705078125 87.990234375 373.671875 87.990234375 346.602539062 c 0
46 468 m 1
 105.333007812 544 183.666992188 582 281 582 c 0
 440.94921875 582 570 445 570 260 c 0
 570 114 516 0 416 0 c 0
 354.286132812 0 329.342773438 21.388671875 298 59 c 1
 267.333007812 20.3330078125 233 0 188 0 c 0
 106.568359375 0 51 60.353515625 51 140.25 c 0
 51 212.25 108.784179688 257.5 179 257.5 c 0
 215 257.5 244.5 250.75 279.5 250.75 c 0
 325.5 250.75 343.25 273.75 343.25 309.75 c 0
 343.25 381.358398438 266.830078125 411.211914062 213.75 411.211914062 c 0
 199.41881304 411.211914062 189.790910587 410.17143243 181.75 409 c 1
 200.75 399 222.5 379.75522422 222.5 345.25 c 0
 222.5 309.180664062 189.25 271.75 141.25 271.75 c 0
 100.252929688 271.75 60.5 302.727191925 60.5 345.75 c 0
 60.5 401.989155545 119.234549455 434 207.5 434 c 0
 310.5 434 372 378.705702066 372 306.25 c 0
 372 265.25 347.614257812 223.5 280.25 223.5 c 0
 238.93359375 223.5 224 230.5 181 230.5 c 0
 131.791992188 230.5 89 204.25 89 156.25 c 0
 89 104.25 129.615234375 71 186 71 c 0
 235.067382812 71 284 96.162109375 284 144 c 2
 284 177 l 1
 311 177 l 1
 311 144 l 2
 311 97.7841796875 361.8359375 70 412 70 c 0
 492 70 535 160 535 282 c 0
 535 439 424.647460938 558 278 558 c 0
 198.666992188 558 132 528 78 468 c 1
 46 468 l 1
EndSplineSet
Validated: 1
EndChar

StartChar: si_Jha
Encoding: 30 3491 56
GlifName: si_J_ha
Width: 1087
VWidth: 1000
Flags: HMW
LayerCount: 2
Back
Fore
SplineSet
70 95 m 1
 76 98.3330078125 82.3330078125 100 89 100 c 0
 118 100 142 71 199 71 c 0
 250.182617188 71 281 101.864257812 281 162 c 0
 281 164.208984375 281.041015625 161.3046875 281 163 c 1
 307 163 l 1
 306.963867188 161.6640625 307 163.330078125 307 162 c 0
 307 96.9267578125 334 71 392 71 c 0
 454.088867188 71 474 123 474 159 c 0
 474 242 400.87890625 291 298 291 c 0
 241.333007812 291 203 282 182 273 c 1
 164.666992188 258.333007812 145 234.666992188 129 212 c 0
 100.333007812 171.333007812 80.6669921875 131.666992188 70 95 c 1
21 22 m 1
 28.6962890625 91.26953125 74.4521484375 184.165039062 109 232 c 0
 135 268 150 282 168 301 c 1
 180 314 193 330 193 352 c 0
 193 374 183.408203125 392 158 392 c 0
 144 392 122.478515625 384.287109375 116 363 c 0
 109 340 112.653320312 340.109375 106 323 c 0
 99 305 84 297 69 297 c 0
 35 297 29 328 29 340 c 0
 29 394.098632812 79.36328125 433 136 433 c 0
 185.711914062 433 220.079101562 402 220.079101562 356 c 0
 220.079101562 351.467773438 219.723632812 345.794921875 219 341 c 1
 279.982421875 397.272460938 371 434 475 434 c 0
 575 434 642 414 671 398 c 1
 614 390 l 1
 570 402 518 406 474 406 c 0
 342 406 266.999023438 350.053710938 219 308 c 1
 243 314 274.666992188 316 302 316 c 0
 422 316 515 251 515 126 c 0
 515 67.84765625 482 -1 397 -1 c 0
 351 -1 317.333007812 20.3330078125 296 63 c 1
 278.666992188 21.6669921875 246.021484375 -1 204 -1 c 0
 117 -1 120 73 87 73 c 0
 64.6748046875 73 50 51 47 11 c 1
 21 22 l 1
483 195 m 0
 483 288 536.248046875 363.668945312 602 387 c 0
 622.666992188 394.333007812 645.666992188 398 671 398 c 1
 671 373 l 1
 667.651367188 373.2890625 664.31640625 373.436523438 661 373.436523438 c 0
 582 373.436523438 517 301 517 212 c 0
 517 135.557617188 564.567382812 71 638 71 c 0
 688.911132812 71 740 92 740 156 c 2
 740 196 l 1
 768 196 l 1
 768 156 l 2
 768 92 817.830078125 71 867 71 c 0
 962.709960938 71 1005 181 1005 284 c 0
 1005 442 890.908203125 556 744 556 c 0
 663.333007812 556 599.666992188 527.333007812 547 468 c 1
 515 468 l 1
 571.666992188 542.666992188 649.666992188 580 749 580 c 0
 912 580 1039 446 1039 261 c 0
 1039 139 997.875976562 0 872 0 c 0
 822.666992188 0 783 19.6669921875 753 59 c 1
 722.333007812 20.3330078125 684.671875 0 640 0 c 0
 538 0 483 96 483 195 c 0
EndSplineSet
Validated: 5
EndChar

StartChar: si_Ndja
Encoding: 33 3494 57
GlifName: si_N_dja
Width: 699
VWidth: 1000
Flags: MW
LayerCount: 2
Back
Fore
SplineSet
134 170 m 0
 134 249.202148438 197 312 309 312 c 0
 327.110351562 312 328 312 336 311 c 1
 337.333007812 317.666992188 338 324.333007812 338 331 c 0
 338 362 321 391 284 391 c 0
 261.990234375 391 245.896484375 378.047851562 239 363 c 0
 228 339 219.029296875 322 192 322 c 0
 173 322 156 335.666992188 156 361 c 0
 156 409.774414062 207.8984375 432 255 432 c 0
 321.892578125 432 367 393.392578125 367 326 c 0
 367 314 365.666992188 301.333007812 363 288 c 1
 351 289 339 290 330 290 c 0
 211 290 171 233 171 186 c 0
 171 97 290.23046875 71 393 71 c 0
 499 71 615 97 615 186 c 0
 615 237 571 289 456 289 c 0
 434 289 415 286 401 285 c 1
 396.333007812 301 394 316.333007812 394 331 c 0
 394 409 451 434 520 434 c 0
 561 434 621 412 621 353 c 0
 621 324.446289062 604 285 539 285 c 0
 485 285 464 332 464 375 c 0
 464 462 513.06640625 530.62890625 557 571 c 0
 594 605 625 617 645 617 c 0
 661 617 669 606 669 596 c 0
 669 569 599 561 550 511 c 0
 527.342773438 487.880859375 492 444 492 374 c 0
 492 339 508 311 541 311 c 0
 570 311 590 328.515625 590 355 c 256
 590 387.991210938 560 407 516 407 c 0
 445 407 424 374 424 334 c 0
 424 326.666992188 425 318.333007812 427 309 c 1
 435 310 444 311 457 311 c 0
 548 311 650 283 650 168 c 0
 650 45 524.685546875 0 399 0 c 0
 261.1484375 0 134 44 134 170 c 0
27 221 m 4
 27 352.699751668 99.7561968728 433 239 433 c 4
 248 433 271 433 293 427 c 5
 272 416 194 406 177 400 c 5
 102 382 56 319.267578125 56 218 c 4
 56 137.333007812 83 75.3330078125 135 30 c 5
 135 0 l 5
 68.5828449348 33.2085775326 27 120.069879655 27 221 c 4
EndSplineSet
Validated: 5
EndChar

StartChar: si_Ttha
Encoding: 35 3496 58
GlifName: si_T_tha
Width: 614
VWidth: 1000
Flags: MW
LayerCount: 2
Back
Fore
SplineSet
33 195 m 4
 33 288 86.2482372121 363.668729333 152 387 c 4
 172.666666667 394.333333333 195.666666667 398 221 398 c 5
 221 373 l 5
 217.651266367 373.288683934 214.316413559 373.436185075 211.000002588 373.436185075 c 4
 132 373.436185075 67 301 67 212 c 4
 67 135.557617188 114.567764155 71 188 71 c 4
 238.911494873 71 290 92 290 156 c 6
 290 196 l 5
 318 196 l 5
 318 156 l 6
 318 92 367.829957552 71 417 71 c 4
 512.709679823 71 555 158 555 247 c 4
 555 318 525 388 504 420 c 5
 489.333007812 387.333007812 459 367 416 367 c 4
 352.844726562 367 316 422 316 488 c 4
 316 538 331 574 358 605 c 5
 419 572 489.96484375 500.2421875 526 438 c 4
 564.783203125 371.01171875 589 307 589 232 c 4
 589 130 547.875544195 0 422 0 c 4
 372.666666667 0 333 19.6666666667 303 59 c 5
 272.333333333 20.3333333333 234.671641514 0 190 0 c 4
 88 0 33 96 33 195 c 4
346 492 m 4
 346 442.666992188 366 403 423 403 c 4
 447 403 474.763671875 414.140625 485 448 c 5
 455 494 405 540 367 568 c 5
 355 550 346 526.666992188 346 492 c 4
EndSplineSet
Validated: 1
EndChar

StartChar: si_Dha
Encoding: 43 3504 59
GlifName: si_D_ha
Width: 638
VWidth: 1000
Flags: MW
LayerCount: 2
Back
Fore
SplineSet
33 195 m 4
 33 288 86.2482372121 363.668729333 152 387 c 4
 172.666666667 394.333333333 195.666666667 398 221 398 c 5
 221 373 l 5
 217.651266367 373.288683934 214.316413559 373.436185075 211.000002588 373.436185075 c 4
 132 373.436185075 67 301 67 212 c 4
 67 135.557617188 114.567764155 71 188 71 c 4
 238.911494873 71 290 92 290 156 c 6
 290 196 l 5
 318 196 l 5
 318 156 l 6
 318 92 367.829957552 71 417 71 c 4
 512.709679823 71 555 181 555 284 c 4
 555 442 440.908203125 556 294 556 c 4
 213.333007812 556 149.666992188 527.333007812 97 468 c 5
 65 468 l 5
 121.666666667 542.666666667 199.666666667 580 299 580 c 4
 462 580 589 446 589 261 c 4
 589 139 547.875544195 0 422 0 c 4
 372.666666667 0 333 19.6666666667 303 59 c 5
 272.333333333 20.3333333333 234.671641514 0 190 0 c 4
 88 0 33 96 33 195 c 4
EndSplineSet
Validated: 1
EndChar

StartChar: si_Lla
Encoding: 60 3525 60
GlifName: si_L_la
Width: 636
VWidth: 1000
Flags: MW
LayerCount: 2
Back
Fore
SplineSet
31 114 m 4
 31 191.989158132 80 297 179 297 c 6
 542 297 l 5
 542 352 510 403 444 403 c 4
 398 403 364 366 364 330 c 5
 333 330 l 5
 333 366 302 404 259 404 c 4
 203 404 157 362 157 276 c 4
 157 164 242.826942967 104 334 104 c 4
 416 104 471 129.333333333 497 170 c 5
 526 170 l 5
 502 91 437 43 334 43 c 4
 217.771521071 43 126 138 126 274 c 4
 126 373 187.046491464 432 260 432 c 4
 296 432 333 415 349 377 c 5
 367 415 409 432 445 432 c 4
 532 432 576 362 576 271 c 5
 192 271 l 6
 150 271 96 234.039928557 96 142 c 4
 96 -11.8141645762 224 -108 373 -108 c 4
 486 -108 588.079610022 -29.6738442335 591 74 c 5
 618 74 l 5
 618 -68 472 -153 343 -153 c 4
 168 -153 31 -57 31 114 c 4
EndSplineSet
Validated: 5
EndChar

StartChar: si_Fa
Encoding: 61 3526 61
GlifName: si_F_a
Width: 607
VWidth: 1000
Flags: MW
LayerCount: 2
Back
Fore
SplineSet
33 212 m 4
 33 316 78 431 186 431 c 4
 246 431 280 398 296 359 c 5
 312 398 346 431 406 431 c 4
 514 431 559 316 559 212 c 4
 559 110 511.110351562 -1 410 -1 c 4
 398 -1 385.333007812 1.3330078125 372 6 c 5
 372 32 l 5
 382.666992188 28 393.666992188 26 405 26 c 4
 476 26 524 99 524 196 c 4
 524 282 494 360 408 360 c 4
 356 360 312 334 312 263 c 6
 312 222 l 5
 280 222 l 5
 280 263 l 6
 280 334 236 360 184 360 c 4
 98 360 68 282 68 196 c 4
 68 99 116 26 187 26 c 4
 198.333333333 26 209.333333333 28 220 32 c 5
 220 6 l 5
 206.666666667 1.33333333333 194 -1 182 -1 c 4
 80.8892185394 -1 33 110 33 212 c 4
EndSplineSet
Validated: 1
EndChar

StartChar: si_Halant
Encoding: 62 3530 62
GlifName: si_H_alant
Width: 2
VWidth: 1000
Flags: MW
LayerCount: 2
Back
Fore
SplineSet
-140 348 m 5
 -140 681 l 5
 -86 639 10 634 10 542 c 4
 10 498 -24.8083679498 468 -68 468 c 4
 -82.6666666667 468 -97.6666666667 471.333333333 -113 478 c 5
 -113 331 l 5
 -140 348 l 5
-113 503 m 5
 -104.333333333 498.333333333 -93.3333333333 496 -80 496 c 4
 -42 496 -27 521 -27 545 c 4
 -27 587 -66 607 -113 638 c 5
 -113 503 l 5
EndSplineSet
Validated: 1
EndChar

StartChar: si_MatraAa
Encoding: 63 3535 63
GlifName: si_M_atraA_a
Width: 312
VWidth: 1000
Flags: MW
LayerCount: 2
Back
Fore
SplineSet
22 110.099609375 m 4
 22 117.506835938 22.3330078125 124.9140625 23 132.3203125 c 5
 50 132.3203125 l 5
 49.3330078125 127.606445312 49 122.556640625 49 117.169921875 c 4
 49 68.6904296875 73 36 118 36.400390625 c 4
 176.99766472 36.9253264439 204 90.5400390625 204 201 c 4
 204 311.459960938 177 365.599609375 118 365.599609375 c 4
 80 365.599609375 49 333.309570312 49 284.830078125 c 4
 49 279.443359375 49.3330078125 274.393554688 50 269.6796875 c 5
 23 269.6796875 l 5
 22.3330078125 277.0859375 22 284.494140625 22 291.900390625 c 4
 22 360.728515625 74 403 133 403 c 4
 224 403 270 329.26953125 270 201 c 4
 270 72.73046875 224 -1 133 -1 c 4
 65.587890625 -1 22 41.271484375 22 110.099609375 c 4
EndSplineSet
Validated: 33
EndChar

StartChar: si_MatraAe
Encoding: 64 3536 64
GlifName: si_M_atraA_e
Width: 334
VWidth: 1000
Flags: MW
LayerCount: 2
Back
Fore
SplineSet
3 313 m 5
 3 339 l 5
 249 339 l 21
 248.333333333 337 247.333333333 331.666666667 246 323 c 5
 178 223 153 129 153 50 c 4
 153 -54 206 -93 264 -93 c 4
 276.666666667 -93 289.333333333 -91.3333333333 302 -88 c 5
 306 -106 l 5
 278.666666667 -136.666666667 248 -147 207 -147 c 4
 122 -147 84 -73 84 14 c 4
 84 133 158 254 211 313 c 5
 3 313 l 5
EndSplineSet
Validated: 1
EndChar

StartChar: si_MatraAae
Encoding: 65 3537 65
GlifName: si_M_atraA_ae
Width: 336
VWidth: 1000
Flags: MW
LayerCount: 2
Back
Fore
SplineSet
4 315 m 5
 4 339 l 5
 249 339 l 5
 249 317 l 5
 122 223 l 5
 272 223 l 5
 272 201 l 5
 226 168 159 96 159 13 c 4
 159 -74 217.188687962 -106 306 -106 c 5
 306 -131 l 5
 280.666992188 -142.333007812 254.333333333 -148 229 -148 c 4
 138.408193748 -148 90 -91.2396990465 90 -12 c 4
 90 78 169.63042168 155.42028112 235 199 c 5
 72 199 l 5
 72 218 l 5
 205 315 l 5
 4 315 l 5
EndSplineSet
Validated: 1
EndChar

StartChar: si_MatraI
Encoding: 66 3538 66
GlifName: si_M_atraI_
Width: 2
VWidth: 1000
Flags: MW
LayerCount: 2
Back
Fore
SplineSet
-545 518 m 4
 -545 626.291015625 -432.37890625 671 -313 671 c 4
 -193.62109375 671 -81 626.291015625 -81 518 c 4
 -81 443.45703125 -147.142578125 408.07421875 -224 405 c 5
 -224 426 l 5
 -170.32421875 428.825195312 -115 454 -115 509 c 4
 -115 580.088867188 -224.091796875 598 -313 598 c 4
 -401.908203125 598 -511 580.088867188 -511 509 c 4
 -511 454 -455.67578125 428.825195312 -402 426 c 5
 -402 405 l 5
 -478.857421875 408.07421875 -545 443.45703125 -545 518 c 4
EndSplineSet
Validated: 1
EndChar

StartChar: si_MatraIi
Encoding: 67 3539 67
GlifName: si_M_atraI_i
Width: 2
VWidth: 1000
Flags: MW
LayerCount: 2
Back
Fore
SplineSet
-250 514 m 4
 -250 483 -220 458 -184 458 c 4
 -148 458 -118 483 -118 514 c 4
 -118 545 -148 570 -184 570 c 4
 -220 570 -250 545 -250 514 c 4
-587 517 m 4
 -587 624.2109375 -463.053882536 671 -336 671 c 260
 -219.285943513 671 -83 627.398935547 -83 524 c 4
 -83 468.768116676 -127.72265625 429 -184 429 c 4
 -242 429 -282 470 -282 515 c 4
 -282 560 -250 582 -231 591 c 5
 -242 594 -281 600 -335 600 c 4
 -429.163908941 600 -550 578 -550 499 c 4
 -550 460.333333333 -528 435 -490 426 c 5
 -497 406 l 5
 -550.245580402 410.73294048 -587 456 -587 517 c 4
EndSplineSet
Validated: 1
EndChar

StartChar: si_MatraU
Encoding: 68 3540 68
GlifName: si_M_atraU_
Width: 2
VWidth: 1000
Flags: MW
LayerCount: 2
Back
Fore
SplineSet
-594 -149 m 4
 -594 -90 -549.819451749 -51 -495 -51 c 4
 -451 -51 -418.333007812 -68 -399 -110 c 5
 -429 -122 l 5
 -438 -99 -458 -81 -491 -81 c 4
 -526.629882812 -81 -559 -103 -559 -143 c 4
 -559 -182 -530 -199 -479 -199 c 6
 -89 -199 l 5
 -89 128 l 5
 -56 219 l 5
 -56 -235 l 5
 -482 -235 l 6
 -549 -235 -594 -203 -594 -149 c 4
EndSplineSet
Validated: 1
EndChar

StartChar: si_MatraUu
Encoding: 69 3542 69
GlifName: si_M_atraU_u
Width: 2
VWidth: 1000
Flags: MW
LayerCount: 2
Back
Fore
SplineSet
-582 -148 m 4
 -582 -90 -533 -50 -480 -50 c 4
 -438 -50 -405.666992188 -65 -383 -101 c 5
 -413 -112 l 5
 -425 -93 -446 -78 -475 -78 c 4
 -514 -78 -546 -102 -546 -139 c 4
 -546 -176.366210938 -515 -201 -472 -201 c 4
 -388 -201 -305 -127 -210 -127 c 4
 -167 -127 -118 -146 -91 -178 c 5
 -91 142 l 5
 -58 202 l 5
 -58 -241 l 5
 -81 -241 l 5
 -96 -205 -139 -154 -207 -154 c 4
 -298 -154 -373 -247 -471 -247 c 4
 -526 -247 -582 -216 -582 -148 c 4
EndSplineSet
Validated: 1
EndChar

StartChar: si_MatraR
Encoding: 70 3544 70
GlifName: si_M_atraR_
Width: 313
VWidth: 1000
Flags: MW
LayerCount: 2
Back
Fore
SplineSet
32.8818359375 249 m 4
 32.8818359375 329 69.0087890625 393 143 393 c 4
 229.896484375 393 264 298 264 203 c 4
 264 144 247 52.4365234375 247 23 c 4
 247 15.6669921875 247.333007812 9 248 3 c 5
 218 3 l 5
 215.333007812 12.3330078125 210.333007812 17 203 17 c 4
 190.846679688 17 165 -1 131 -1 c 4
 72 -1 33 49.259765625 33 106 c 4
 33 153.333007812 55 186.333007812 99 205 c 4
 125 216.333007812 166 222 203 222 c 5
 203 312 176 358 133 358 c 4
 81.28515625 358 57.953125 308 57.953125 246 c 4
 57.953125 244.333007812 57.9638671875 243.666015625 58 242 c 5
 33 242 l 5
 32.91796875 244.677734375 32.8818359375 246.344726562 32.8818359375 249 c 4
63 107 m 4
 63 64.650390625 91.8193359375 28 133 28 c 4
 159 28 186.259765625 43 196 43 c 4
 199.333007812 43 202.333007812 42 205 40 c 5
 203 53.3330078125 202 78.8330078125 202 116.5 c 4
 202 147.87890625 203.157226562 168 203.157226562 186 c 4
 203.157226562 188.99609375 203.111328125 192.663085938 203 195 c 5
 188 195 152 194 123 185 c 4
 87.3154296875 173.92578125 63 150.544921875 63 107 c 4
EndSplineSet
Validated: 1
EndChar

StartChar: si_MatraE
Encoding: 71 3545 71
GlifName: si_M_atraE_
Width: 633
VWidth: 1000
Flags: HMW
LayerCount: 2
Back
Fore
SplineSet
236 245 m 0
 236 219.497070312 261 198.075195312 291 198.075195312 c 0
 321 198.075195312 346 219.497070312 346 245 c 0
 346 270.502929688 321 291.924804688 291 291.924804688 c 0
 261 291.924804688 236 270.502929688 236 245 c 0
33 212 m 0
 33 346.856925545 160.549331826 432 301 432 c 0
 448.707025307 432 571.822206459 339.955728948 584 206 c 1
 555 206 l 1
 537 324 430 404 301 404 c 0
 187.17578125 404 76 340 76 238 c 0
 76 142 163.286132812 71 269 71 c 0
 358 71 455 104.917256131 455 189 c 0
 455 243.911166832 408.951991217 277.675811197 360 287 c 1
 372.666666667 273 379 256 379 240 c 0
 379 192 335 166 292 166 c 0
 246 166 203 198 203 242 c 256
 203 289.587990978 248 322 304 322 c 0
 406 322 491 268 491 168 c 0
 491 68 412 0 269 0 c 0
 134 0 33 83.6284822101 33 212 c 0
EndSplineSet
EndChar

StartChar: si_MatraLs
Encoding: 77 3551 72
GlifName: si_M_atraL_s
Width: 441
VWidth: 1000
Flags: MW
LayerCount: 2
Back
Fore
SplineSet
33 321 m 4
 33 369.666666667 49 404 70 428 c 5
 105 428 l 5
 83 410 62 374.666666667 62 322 c 4
 62 276.28960624 88.3798828125 238 134 238 c 4
 168 238 186 261.458054261 186 290 c 4
 186 307.333333333 179.333333333 323 166 337 c 5
 165.43405583 342.206686368 165.138671875 344.20703125 165.138671875 349 c 4
 165.138671875 398 193.307617188 432 259 432 c 4
 362 432 393 315.586702165 393 220 c 4
 393 101 350 -2 245 -2 c 4
 171 -2 134 53.9697691033 134 120 c 4
 134 132 135.333333333 144.333333333 138 157 c 5
 164 157 l 5
 162 146.333333333 161 135.666666667 161 125 c 4
 161 71.0175803871 188.383377864 26 241 26 c 4
 300 26 323 100 323 238 c 4
 323 350.01785572 296 407 248 407 c 4
 214 407 192.861596777 389 192.861596777 349.999997723 c 4
 192.861596777 347.718695153 192.863719061 345.384916441 193 343 c 5
 217 330.333333333 229 312 229 288 c 4
 229 237.916216467 185.493164062 212 135 212 c 4
 72 212 33 261.448089092 33 321 c 4
EndSplineSet
Validated: 1
EndChar

StartChar: si_MatraLl
Encoding: 78 3571 73
GlifName: si_M_atraL_l
Width: 441
VWidth: 1000
Flags: MW
LayerCount: 2
Back
Fore
SplineSet
33 321 m 4
 33 369.666666667 49 404 70 428 c 5
 105 428 l 5
 83 410 62 374.666666667 62 322 c 4
 62 276.28960624 88.3798828125 238 134 238 c 4
 168 238 186 261.458054261 186 290 c 4
 186 307.333333333 179.333333333 323 166 337 c 5
 165.43405583 342.206686368 165.138671875 344.20703125 165.138671875 349 c 4
 165.138671875 398 193.307617188 432 259 432 c 4
 362 432 393 315.586702165 393 220 c 4
 393 101 350 -2 245 -2 c 4
 171 -2 134 53.9697691033 134 120 c 4
 134 132 135.333333333 144.333333333 138 157 c 5
 164 157 l 5
 162 146.333333333 161 135.666666667 161 125 c 4
 161 71.0175803871 188.383377864 26 241 26 c 4
 300 26 323 100 323 238 c 4
 323 350.01785572 296 407 248 407 c 4
 214 407 192.861596777 389 192.861596777 349.999997723 c 4
 192.861596777 347.718695153 192.863719061 345.384916441 193 343 c 5
 217 330.333333333 229 312 229 288 c 4
 229 237.916216467 185.493164062 212 135 212 c 4
 72 212 33 261.448089092 33 321 c 4
EndSplineSet
Validated: 1
EndChar

StartChar: si_MatraRr
Encoding: 79 3570 74
GlifName: si_M_atraR_r
Width: 571
VWidth: 1000
Flags: MW
LayerCount: 2
Back
Fore
SplineSet
291.881835938 249 m 0
 291.881835938 329 328.008789062 393 402 393 c 0
 488.896484375 393 523 298 523 203 c 0
 523 144 506 52.4365234375 506 23 c 0
 506 15.6669921875 506.333007812 9 507 3 c 1
 477 3 l 1
 474.333007812 12.3330078125 469.333007812 17 462 17 c 0
 449.846679688 17 424 -1 390 -1 c 0
 331 -1 292 49.259765625 292 106 c 0
 292 153.333007812 314 186.333007812 358 205 c 0
 384 216.333007812 425 222 462 222 c 1
 462 312 435 358 392 358 c 0
 340.28515625 358 316.953125 308 316.953125 246 c 0
 316.953125 244.333007812 316.963867188 243.666015625 317 242 c 1
 292 242 l 1
 291.91796875 244.677734375 291.881835938 246.344726562 291.881835938 249 c 0
322 107 m 0
 322 64.650390625 350.819335938 28 392 28 c 0
 418 28 445.259765625 43 455 43 c 0
 458.333007812 43 461.333007812 42 464 40 c 1
 462 53.3330078125 461 78.8330078125 461 116.5 c 0
 461 147.87890625 462.157226562 168 462.157226562 186 c 0
 462.157226562 188.99609375 462.111328125 192.663085938 462 195 c 1
 447 195 411 194 382 185 c 0
 346.315429688 173.92578125 322 150.544921875 322 107 c 0
32.8818359375 249 m 0
 32.8818359375 329 69.0087890625 393 143 393 c 0
 229.896484375 393 264 298 264 203 c 0
 264 144 247 52.4365234375 247 23 c 0
 247 15.6669921875 247.333007812 9 248 3 c 1
 218 3 l 1
 215.333007812 12.3330078125 210.333007812 17 203 17 c 0
 190.846679688 17 165 -1 131 -1 c 0
 72 -1 33 49.259765625 33 106 c 0
 33 153.333007812 55 186.333007812 99 205 c 0
 125 216.333007812 166 222 203 222 c 1
 203 312 176 358 133 358 c 0
 81.28515625 358 57.953125 308 57.953125 246 c 0
 57.953125 244.333007812 57.9638671875 243.666015625 58 242 c 1
 33 242 l 1
 32.91796875 244.677734375 32.8818359375 246.344726562 32.8818359375 249 c 0
63 107 m 0
 63 64.650390625 91.8193359375 28 133 28 c 0
 159 28 186.259765625 43 196 43 c 0
 199.333007812 43 202.333007812 42 205 40 c 1
 203 53.3330078125 202 78.8330078125 202 116.5 c 0
 202 147.87890625 203.157226562 168 203.157226562 186 c 0
 203.157226562 188.99609375 203.111328125 192.663085938 203 195 c 1
 188 195 152 194 123 185 c 0
 87.3154296875 173.92578125 63 150.544921875 63 107 c 0
EndSplineSet
Validated: 1
EndChar

StartChar: si_MatraU.alt
Encoding: 85 -1 77
GlifName: si_M_atraU_.alt
Width: 2
VWidth: 1000
Flags: HMW
LayerCount: 2
Back
Fore
SplineSet
-314 -80 m 4
 -314 -30 -285.143184174 5.07406131771 -245 20.75 c 5
 -236 0.75 l 5
 -258.686523438 -11.890625 -276 -34 -276 -63 c 4
 -276 -109.283203125 -225.952148438 -132 -174.5 -132 c 4
 -113.5 -132 -67.5576171875 -93.734375 -67.5576171875 -45 c 4
 -67.5576171875 -42.0390625 -67.8310546875 -39.0380859375 -68.25 -36 c 5
 -37 -36 l 5
 -34.6455078125 -45.416015625 -34.5654296875 -60.2900390625 -34.5654296875 -69.5 c 4
 -34.5654296875 -122.145507812 -78.298828125 -191.5 -179 -191.5 c 4
 -246.73828125 -191.5 -314 -149.233398438 -314 -80 c 4
EndSplineSet
Validated: 1
EndChar

StartChar: si_MatraUu.alt
Encoding: 86 -1 78
GlifName: si_M_atraU_u.alt
Width: 746
VWidth: 1000
Flags: HMW
LayerCount: 2
Back
Fore
SplineSet
-294.053710938 -129 m 4
 -294.053710938 -93.3486328125 -262.709960938 -71.125 -230.053710938 -67 c 5
 -285.053710938 -39 l 5
 -198.053710938 -14 l 5
 -234.053710938 0 l 5
 -234.053710938 21 l 5
 -139.553710938 -14.5 l 5
 -226.053710938 -43 l 5
 -166.053710938 -75.5 l 5
 -194.053710938 -82.5 -254.053710938 -84.57421875 -254.053710938 -115 c 4
 -254.053710938 -146 -212.129882812 -155 -170.053710938 -155 c 4
 -116.053710938 -155 -70.3251953125 -131 -70.3251953125 -82 c 4
 -70.3251953125 -77 -70.8603515625 -69.38671875 -76.0537109375 -59 c 5
 -43.0537109375 -59 l 5
 -39.462890625 -71.1181640625 -38.75 -82.8330078125 -38.75 -94 c 4
 -38.75 -161 -90.0537109375 -205 -172.053710938 -205 c 4
 -230.053710938 -205 -294.053710938 -187.465820312 -294.053710938 -129 c 4
EndSplineSet
Validated: 1
EndChar

StartChar: si_Reph
Encoding: 88 -1 80
GlifName: si_R_eph
Width: 1
VWidth: 1000
Flags: HMW
LayerCount: 2
Back
Fore
SplineSet
-38.9140625 516 m 0
 -38.9140625 495.446289062 -20.31640625 478.806640625 2 478.806640625 c 0
 24.31640625 478.806640625 42.9140625 495.446289062 42.9140625 516 c 0
 42.9140625 536.553710938 24.31640625 553.193359375 2 553.193359375 c 0
 -20.31640625 553.193359375 -38.9140625 536.553710938 -38.9140625 516 c 0
-141 535 m 0
 -141 599 -82.8798828125 636 -1 636 c 0
 76 636 140 593 140 522 c 0
 140 498 131.666992188 476.333007812 115 457 c 1
 81.25 457 l 1
 94.419921875 469.38671875 109.75 493.734375 109.75 521 c 256
 109.75 578.241210938 59 608.75 -2 608.75 c 0
 -54.7783203125 608.75 -109.75 587.555664062 -109.75 535 c 0
 -109.75 495.924804688 -68.6962890625 477.215820312 -45.5 475.25 c 1
 -53.5 481.25 -66 496 -66 517 c 0
 -66 552 -34.646484375 577 1 577 c 0
 42 577 70 550 70 515 c 0
 70 476 35 450 -23 450 c 0
 -82 450 -141 479 -141 535 c 0
EndSplineSet
LCarets2: 1 1
Ligature2: "si_reph-0 subtable" si_Ra si_Halant
Ligature2: "si_reph subtable" si_Ra si_Halant
EndChar

StartChar: si_Rakar
Encoding: 89 -1 81
GlifName: si_R_akar
Width: 2
VWidth: 1000
Flags: HMW
LayerCount: 2
Back
Fore
SplineSet
-599 -44 m 5
 -572 -44 l 5
 -536.666666667 -119.333333333 -466.333333333 -157 -361 -157 c 4
 -218 -157 -89 -90 -89 50 c 4
 -89 71 -94 93 -101 102 c 5
 -90 133 l 5
 -72 106.333333333 -63 74.6666666667 -63 38 c 4
 -63 -123.729769303 -201 -219 -345 -219 c 4
 -478 -219 -561.666666667 -153.333333333 -599 -44 c 5
EndSplineSet
Validated: 1
EndChar

StartChar: si_KI
Encoding: 91 -1 82
GlifName: si_K_I_
Width: 746
VWidth: 1000
Flags: HMW
LayerCount: 2
Back
Fore
SplineSet
218 421 m 4
 218 590 330 671 473 671 c 4
 603 671 688 610 688 505 c 4
 688 444 658 402 610 383 c 5
 578 403 l 5
 618 405 656 440 656 486 c 4
 656 574 555 598 473 598 c 4
 336 598 244 527.63671875 244 404 c 4
 244 389.333007812 245.666992188 376.333007812 249 365 c 5
 225 343 l 5
 220.903461411 360.75166722 218 389.836914062 218 421 c 4
EndSplineSet
Refer: 10 3482 N 1 0 0 1 0 0 2
Validated: 5
LCarets2: 1 0
Ligature2: "si_abvs_1-0 subtable" si_Ka si_MatraI
Ligature2: "si_abvs_1 subtable" si_Ka si_MatraI
EndChar

StartChar: si_KIi
Encoding: 92 -1 83
GlifName: si_K_I_i
Width: 746
VWidth: 1000
Flags: HMW
LayerCount: 2
Back
SplineSet
218 421 m 4
 218 590 330 671 473 671 c 4
 603 671 689 600 689 495 c 4
 689 444 651 388 593 388 c 4
 535 388 500 433 500 477 c 4
 500 529 541 566 591 566 c 4
 596.334960938 566 608 565 620 561.896484375 c 5
 581 590 519.944893777 598 473 598 c 4
 336 598 244 527.63671875 244 404 c 4
 244 389.333007812 245.666992188 376.333007812 249 365 c 5
 225 343 l 5
 220.903461411 360.75166722 218 389.836914062 218 421 c 4
EndSplineSet
Fore
SplineSet
531.110351562 476 m 4
 531.110351562 444.0703125 558.428710938 417.290039062 591 417.290039062 c 4
 623.571289062 417.290039062 650.889648438 444.0703125 650.889648438 476 c 4
 650.889648438 507.9296875 623.571289062 534.709960938 591 534.709960938 c 4
 558.428710938 534.709960938 531.110351562 507.9296875 531.110351562 476 c 4
218 421 m 4
 218 590 330 671 473 671 c 4
 603 671 689 600 689 495 c 4
 689 444 651 388 593 388 c 4
 535 388 500 433 500 477 c 4
 500 539.223257684 556.51639219 578.315015106 620 561.896484375 c 5
 581 590 519.944893777 598 473 598 c 4
 336 598 244 527.63671875 244 404 c 4
 244 389.333007812 245.666992188 376.333007812 249 365 c 5
 225 343 l 5
 220.903461411 360.75166722 218 389.836914062 218 421 c 4
EndSplineSet
Refer: 10 3482 N 1 0 0 1 0 0 2
Validated: 37
LCarets2: 1 0
Ligature2: "si_abvs_2-0 subtable" si_Ka si_MatraIi
Ligature2: "si_abvs_2 subtable" si_Ka si_MatraIi
EndChar

StartChar: si_KU
Encoding: 93 -1 84
GlifName: si_K_U_
Width: 746
VWidth: 1000
Flags: HMW
LayerCount: 2
Back
Fore
SplineSet
443 -80 m 4
 443 -30 473 9 516 21 c 5
 522 -6 l 5
 500 -14 481 -34 481 -63 c 4
 481 -109.283325195 531.047637939 -132 582.5 -132 c 4
 643.5 -132 690.692382812 -93.734375 690.692382812 -45 c 4
 690.692382812 -42.0390625 690.418945312 -39.0380859375 690 -36 c 5
 720 -36 l 5
 722.354492188 -45.416015625 722.434570312 -60.2900390625 722.434570312 -69.5 c 4
 722.434570312 -122.145088196 678.701171875 -191.5 578 -191.5 c 4
 514.709960938 -191.5 443 -149.233265477 443 -80 c 4
21 22 m 1
 28.6966338402 91.2697045622 74.4524773728 184.16496867 109 232 c 0
 135 268 150 282 168 301 c 1
 180 314 193 330 193 352 c 0
 193 374 183.407917035 392 158 392 c 0
 144 392 122.478515625 384.287109375 116 363 c 0
 109 340 112.653628896 340.109331446 106 323 c 0
 99 305 84 297 69 297 c 0
 35 297 29 328 29 340 c 0
 29 394.098632812 79.3632281498 433 136 433 c 0
 185.711963719 433 220.079101562 402 220.079101562 356 c 0
 220.079101562 351.467773438 219.723632812 345.794921875 219 341 c 1
 281 401 366 434 453 434 c 0
 603 434 701 328 701 192 c 0
 701 112 656 0 565 0 c 0
 547 0 530 -3 520 -7 c 1
 512 19 l 1
 521 24 545 27 556 27 c 0
 607 27 649 74 649 153 c 0
 649 285 534.341514142 368 400 368 c 0
 326.666666667 368 266 348 219 308 c 1
 243 314 274.666992188 316 302 316 c 0
 422 316 515 251 515 126 c 0
 515 67.8472233203 482 -1 397 -1 c 0
 351 -1 317.333333333 20.3333333333 296 63 c 1
 278.666666667 21.6666666667 246.021148364 -1 204 -1 c 0
 117 -1 120 73 87 73 c 0
 64.6748046875 73 50 51 47 11 c 1
 21 22 l 1
70 95 m 1
 76 98.3333333333 82.3333333333 100 89 100 c 0
 118 100 142 71 199 71 c 0
 250.182680149 71 281 101.864211954 281 162 c 0
 281 164.208984375 281.041015625 161.3046875 281 163 c 1
 307 163 l 1
 306.963867188 161.6640625 307 163.330078125 307 162 c 0
 307 96.92631064 334 71 392 71 c 0
 454.088867188 71 474 123 474 159 c 0
 474 242 400.87890625 291 298 291 c 0
 241.333007812 291 203 282 182 273 c 1
 164.666992188 258.333007812 145 234.666992188 129 212 c 0
 100.333007812 171.333007812 80.6666666667 131.666666667 70 95 c 1
EndSplineSet
LCarets2: 1 0
Ligature2: "si_blws_1-0 subtable" si_Ka si_MatraU
Ligature2: "si_blws_1 subtable" si_Ka si_MatraU
EndChar

StartChar: si_KUu
Encoding: 94 -1 85
GlifName: si_K_U_u
Width: 746
VWidth: 1000
Flags: HMW
LayerCount: 2
Back
Fore
SplineSet
446 -129 m 0
 446 -93.3486328125 477.34375 -71.125 510 -67 c 1
 455 -39 l 1
 542 -14 l 1
 506 0 l 1
 506 21 l 1
 600.5 -14.5 l 1
 514 -43 l 1
 574 -75.5 l 1
 546 -82.5 486 -84.5746765137 486 -115 c 0
 486 -146 527.923828125 -155 570 -155 c 0
 624 -155 669.728515625 -131 669.728515625 -82 c 0
 669.728515625 -77 669.193359375 -69.38671875 664 -59 c 1
 697 -59 l 1
 700.590820312 -71.1181640625 701.303710938 -82.8330078125 701.303710938 -94 c 0
 701.303710938 -161 650 -205 568 -205 c 0
 510 -205 446 -187.465820312 446 -129 c 0
EndSplineSet
Refer: 10 3482 S 1 0 0 1 0 0 2
Validated: 5
Ligature2: "si_blws_3-0 subtable" si_Ka si_MatraUu
Ligature2: "si_blws_3 subtable" si_Ka si_MatraUu
EndChar

StartChar: si_KhI
Encoding: 101 -1 87
GlifName: si_K_hI_
Width: 630
VWidth: 1000
Flags: HMW
LayerCount: 2
Back
Fore
SplineSet
75 562 m 4
 75 476 196 483 285 478 c 4
 386.018554688 472.325195312 452 472 505 414 c 4
 532.813278968 383.56282679 544 334 544 286 c 5
 583 274 l 5
 583 356 547.146355231 423.257196196 498 459 c 4
 443 499 348.869306786 501.456105616 284 504 c 4
 182 508 117 508 117 554 c 4
 117 605.885742188 230.34375 611 306 611 c 4
 414 611 505 600.273077348 505 544 c 4
 505 506 450 491 414 490 c 5
 464 474 l 5
 498 480 552 502 552 554 c 4
 552 639 442 670 306 670 c 4
 206 670 75 652 75 562 c 4
92.740234375 72 m 0
 92.740234375 48.3095703125 112.309570312 28.740234375 136 28.740234375 c 0
 159.690429688 28.740234375 179.259765625 48.3095703125 179.259765625 72 c 0
 179.259765625 95.6904296875 159.690429688 115.259765625 136 115.259765625 c 0
 112.309570312 115.259765625 92.740234375 95.6904296875 92.740234375 72 c 0
32 183 m 0
 32 322 123.838867188 396 240 396 c 0
 333 396 413 343.14453125 413 258 c 0
 413 201 385 153 346 115 c 1
 349.333333333 115.666666667 352.333333333 116 355 116 c 0
 384 116 390 71 434 71 c 0
 493 71 544 188 544 291 c 1
 583 276 l 1
 583 143 524 0 416 0 c 0
 352 0 348 54 321 54 c 256
 308 54 282 34 240 -21 c 1
 204 -18 l 1
 217.333007812 -4.6669921875 246.086001436 34.0256170965 288 84 c 0
 340 146 367 194 367 232 c 0
 367 286 328 320 236 320 c 0
 155.867967399 320 63 272 63 156 c 0
 63 144 66 118 72 101 c 1
 80 129 108 145 135 145 c 0
 180.808201089 145 210 116 210 72 c 0
 210 37 180 -1 141 -1 c 0
 56 -1 32 108 32 183 c 0
EndSplineSet
Validated: 5
Ligature2: "si_abvs_1-0 subtable" si_Kha si_MatraI
Ligature2: "si_abvs_1 subtable" si_Kha si_MatraI
EndChar

StartChar: si_KhIi
Encoding: 102 -1 88
GlifName: si_K_hI_i
Width: 630
VWidth: 1000
Flags: HMW
LayerCount: 2
Back
Fore
SplineSet
399.697265625 555 m 4
 399.697265625 585.181640625 426.8671875 609.45703125 460 609.45703125 c 4
 493.1328125 609.45703125 520.302734375 585.181640625 520.302734375 555 c 4
 520.302734375 524.818359375 493.1328125 500.54296875 460 500.54296875 c 4
 426.8671875 500.54296875 399.697265625 524.818359375 399.697265625 555 c 4
75 562 m 4
 75 476 196 483 285 478 c 4
 386.018554688 472.325195312 452 472 505 414 c 4
 532.813278968 383.56282679 544 334 544 286 c 5
 583 274 l 5
 583 356 547.146355231 423.257196196 498 459 c 4
 443 499 348.869306786 501.456105616 284 504 c 4
 182 508 117 508 117 554 c 4
 117 605.885742188 230.34375 611 306 611 c 4
 348.211601105 611 380 609 387 608 c 5
 381 600 368 583 368 558 c 4
 368 505 416 474 460 474 c 4
 504 474 552 505 552 558 c 4
 552 639 442 670 306 670 c 4
 206 670 75 652 75 562 c 4
92.740234375 72 m 0
 92.740234375 48.3095703125 112.309570312 28.740234375 136 28.740234375 c 0
 159.690429688 28.740234375 179.259765625 48.3095703125 179.259765625 72 c 0
 179.259765625 95.6904296875 159.690429688 115.259765625 136 115.259765625 c 0
 112.309570312 115.259765625 92.740234375 95.6904296875 92.740234375 72 c 0
32 183 m 0
 32 322 123.838867188 396 240 396 c 0
 333 396 413 343.14453125 413 258 c 0
 413 201 385 153 346 115 c 1
 349.333333333 115.666666667 352.333333333 116 355 116 c 0
 384 116 390 71 434 71 c 0
 493 71 544 188 544 291 c 1
 583 276 l 1
 583 143 524 0 416 0 c 0
 352 0 348 54 321 54 c 256
 308 54 282 34 240 -21 c 1
 204 -18 l 1
 217.333007812 -4.6669921875 246.086001436 34.0256170965 288 84 c 0
 340 146 367 194 367 232 c 0
 367 286 328 320 236 320 c 0
 155.867967399 320 63 272 63 156 c 0
 63 144 66 118 72 101 c 1
 80 129 108 145 135 145 c 0
 180.808201089 145 210 116 210 72 c 0
 210 37 180 -1 141 -1 c 0
 56 -1 32 108 32 183 c 0
EndSplineSet
Validated: 5
Ligature2: "si_abvs_2-0 subtable" si_Kha si_MatraIi
Ligature2: "si_abvs_2 subtable" si_Kha si_MatraIi
EndChar

StartChar: si_KhU
Encoding: 103 -1 89
GlifName: si_K_hU_
Width: 630
VWidth: 1000
Flags: HMW
LayerCount: 2
Back
Fore
SplineSet
51.5 -142.5 m 0
 51.5 -90.4912109375 97.79296875 -50.5 153 -50.5 c 0
 194.90625 -50.5 232.25 -74.1416015625 247 -110 c 1
 217 -121.5 l 1
 209.982421875 -101.896484375 186 -80 153 -80 c 0
 116.295898438 -80 85 -106.713867188 85 -142.5 c 0
 85 -171.663085938 108.383789062 -199 174 -199 c 2
 542 -199 l 1
 542 128 l 1
 575 219 l 1
 575 -235 l 1
 157 -235 l 2
 87.83984375 -235 51.5 -186.091796875 51.5 -142.5 c 0
EndSplineSet
Refer: 12 3483 N 1 0 0 1 0 0 2
Validated: 5
LCarets2: 1 0
Ligature2: "si_blws_1-0 subtable" si_Kha si_MatraU
Ligature2: "si_blws_1 subtable" si_Kha si_MatraU
EndChar

StartChar: si_GI
Encoding: 110 -1 90
GlifName: si_G_I_
Width: 636
VWidth: 1000
Flags: HMW
LayerCount: 2
Back
Fore
SplineSet
150 537 m 4
 150 628 248.984240721 667 351 667 c 4
 456.344340239 667 559 618 559 523 c 4
 559 461 520 415 439 409 c 5
 421 431 l 5
 423.693006943 430.867557036 426.360675308 430.806027059 428.999997673 430.806027059 c 4
 487 430.806027059 530 462.29567805 530 512 c 4
 530 576.842773438 430.673828125 598 351 598 c 4
 269.52734375 598 191 568 191 516 c 4
 191 455.69682188 325 431.5 411 431.4921875 c 4
 412.005859375 431.4921875 412.006172073 431.494288345 413 431.5 c 5
 397 412 l 5
 237 415.333007812 150 462 150 537 c 4
34 207 m 4
 34 330 110 431.5 207 431.5 c 4
 210.953125 431.5 207.954101562 431.25 212 431 c 5
 212 408 l 5
 208.64453125 408.284179688 211.310546875 408.450195312 208 408.450195312 c 4
 136 408.450195312 69 332 69 230 c 4
 69 147 117.309455467 71 206 71 c 4
 265 71 318 98.6416015625 318 158 c 4
 318 196 298.453333284 217 267 217 c 4
 259.666666667 217 250 215 243 210 c 5
 242 204 241 195.333333333 241 192 c 5
 216 192 l 5
 226.196066844 316.90181884 288 431.5 410 431.5 c 4
 522 431.5 586 332 586 217 c 4
 586 95 500.052817527 -1 369 -1 c 4
 359 -1 348.666666667 -0.333333333333 338 1 c 5
 338 26 l 5
 346 25 354 24 362 24 c 4
 469 24 543 100 543 200 c 4
 543 301 484 371 393 371 c 4
 316.349609375 371 263 313 247 236 c 5
 255 240 263.333333333 241 270 241 c 4
 318 241 352 202 352 136 c 4
 352 56 295 -2 208 -2 c 4
 97 -2 34 96 34 207 c 4
EndSplineSet
LCarets2: 1 0
Ligature2: "si_abvs_1-0 subtable" si_Ga si_MatraI
Ligature2: "si_abvs_1 subtable" si_Ga si_MatraI
EndChar

StartChar: si_GIi
Encoding: 111 -1 91
GlifName: si_G_I_i
Width: 636
VWidth: 1000
Flags: HMW
LayerCount: 2
Back
Fore
SplineSet
34 207 m 0
 34 330 110 431.5 207 431.5 c 0
 210.953125 431.5 207.954101562 431.25 212 431 c 1
 212 408 l 2
 208.64453125 408.284179688 211.310546875 408.450195312 208 408.450195312 c 0
 136 408.450195312 69 332 69 230 c 0
 69 147 117.309455467 71 206 71 c 0
 265 71 318 98.6416015625 318 158 c 0
 318 196 298.453333284 217 267 217 c 0
 259.666666667 217 250 215 243 210 c 1
 242 204 241 195.333333333 241 192 c 2
 216 192 l 1
 223.923156852 289.058671436 263.009873644 379.895461337 337.290093503 415.571005091 c 1
 215.476947567 428.194139931 149.999999984 471.935237411 150 537 c 0
 150 628 248.984375 667 351 667 c 0
 456.344726562 667 559 618 559 525 c 0
 559 456 501 431 458 431 c 0
 414 431 361 464 361 519 c 0
 361 564.603515625 395 591 411 593.82421875 c 1
 389 597 374.639648438 598 351 598 c 0
 269.52734375 598 191 568 191 516 c 0
 191 455.177431054 325.925966995 431.5 412.980626807 431.476388921 c 1
 523.134756174 429.726689512 586 330.975932876 586 217 c 0
 586 95 500.052817527 -1 369 -1 c 0
 359 -1 348.666666667 -0.333333333333 338 1 c 1
 338 26 l 1
 346 25 354 24 362 24 c 0
 469 24 543 100 543 200 c 0
 543 301 484 371 393 371 c 0
 316.349609375 371 263 313 247 236 c 1
 255 240 263.333333333 241 270 241 c 0
 318 241 352 202 352 136 c 0
 352 56 295 -2 208 -2 c 0
 97 -2 34 96 34 207 c 0
389.400390625 520 m 0
 389.400390625 485.056640625 420.778320312 456.532226562 460 456.532226562 c 0
 499.221679688 456.532226562 530.599609375 485.056640625 530.599609375 520 c 0
 530.599609375 554.943359375 499.221679688 583.467773438 460 583.467773438 c 0
 420.778320312 583.467773438 389.400390625 554.943359375 389.400390625 520 c 0
EndSplineSet
LCarets2: 1 0
Ligature2: "si_abvs_2-0 subtable" si_Ga si_MatraIi
Ligature2: "si_abvs_2 subtable" si_Ga si_MatraIi
EndChar

StartChar: si_GU
Encoding: 112 -1 92
GlifName: si_G_U_
Width: 636
VWidth: 1000
Flags: HMW
LayerCount: 2
Back
Fore
SplineSet
306 -80 m 4
 306 -30 336 9 379 21 c 5
 385 -6 l 5
 363 -14 344 -34 344 -63 c 4
 344 -109.283325195 394.047637939 -132 445.5 -132 c 4
 506.5 -132 553.692382812 -93.734375 553.692382812 -45 c 4
 553.692382812 -42.0390625 553.418945312 -39.0380859375 553 -36 c 5
 583 -36 l 5
 585.354492188 -45.416015625 585.434570312 -60.2900390625 585.434570312 -69.5 c 4
 585.434570312 -122.145088196 541.701171875 -191.5 441 -191.5 c 4
 377.709960938 -191.5 306 -149.233265477 306 -80 c 4
34 207 m 0
 34 330 109 431.5 220 431.5 c 0
 223.953128016 431.5 228.954101562 431.25 233 431 c 1
 233 408 l 1
 229.64453125 408.284179688 225.310546875 408.450195312 222 408.450195312 c 0
 136 408.450195312 69 332 69 230 c 0
 69 147 117.309455467 71 206 71 c 0
 265 71 318 98.6416015625 318 158 c 0
 318 196 298.453333284 217 267 217 c 0
 259.666666667 217 250 215 243 210 c 1
 242 204 241 195.333333333 241 192 c 1
 216 192 l 1
 226.196066844 316.90181884 288 431.5 410 431.5 c 0
 522 431.5 586 332 586 217 c 0
 586 95 506 0 426 0 c 0
 416 0 394 -2 380 -8 c 1
 370 18 l 1
 389 26 407 27 415 27 c 0
 478 27 543 100 543 200 c 0
 543 301 484 371 393 371 c 0
 316.349609375 371 263 313 247 236 c 1
 255 240 263.333333333 241 270 241 c 0
 318 241 352 202 352 136 c 0
 352 56 295 -2 208 -2 c 0
 97 -2 34 96 34 207 c 0
EndSplineSet
Validated: 5
LCarets2: 1 0
Ligature2: "si_blws_1-0 subtable" si_Ga si_MatraU
Ligature2: "si_blws_1 subtable" si_Ga si_MatraU
EndChar

StartChar: si_GUu
Encoding: 113 -1 93
GlifName: si_G_U_u
Width: 636
VWidth: 1000
Flags: HMW
LayerCount: 2
Back
Fore
SplineSet
336 -129 m 0
 336 -93.3486328125 367.5625 -72 400 -67 c 1
 345 -39 l 1
 432 -14 l 1
 338.5 1 l 1
 387 13 l 1
 506.5 -7 l 1
 401.5 -44 l 1
 461 -76 l 1
 433 -83 376 -85.5 376 -115 c 0
 376 -146 417.923828125 -155 460 -155 c 0
 514 -155 559.728515625 -131 559.728515625 -82 c 0
 559.728515625 -77 559.193359375 -69.38671875 554 -59 c 1
 587 -59 l 1
 590.590820312 -71.1181640625 591.303710938 -82.8330078125 591.303710938 -94 c 0
 591.303710938 -161 540 -205 458 -205 c 0
 400 -205 336 -187.465820312 336 -129 c 0
EndSplineSet
Refer: 14 3484 N 1 0 0 1 0 0 2
Validated: 5
LCarets2: 1 0
Ligature2: "si_blws_3-0 subtable" si_Ga si_MatraUu
Ligature2: "si_blws_3 subtable" si_Ga si_MatraUu
EndChar

StartChar: si_GA.reph
Encoding: 115 -1 95
GlifName: si_G_A_.reph
Width: 889
VWidth: 1000
Flags: HMW
LayerCount: 2
Back
Fore
SplineSet
599 110.099609375 m 0
 599 117.506835938 599.333007812 124.9140625 600 132.3203125 c 1
 627 132.3203125 l 1
 626.333007812 127.606445312 626 122.556640625 626 117.169921875 c 0
 626 68.6904296875 650 36 695 36.400390625 c 0
 753.998046875 36.92578125 781 90.5400390625 781 201 c 0
 781 311.459960938 754 365.599609375 695 365.599609375 c 0
 657 365.599609375 626 333.309570312 626 284.830078125 c 0
 626 279.443359375 626.333007812 274.393554688 627 269.6796875 c 1
 600 269.6796875 l 1
 599.333007812 277.0859375 599 284.494140625 599 291.900390625 c 0
 599 360.728515625 651 403 710 403 c 0
 801 403 847 329.26953125 847 201 c 0
 847 72.73046875 801 -1 710 -1 c 0
 642.587890625 -1 599 41.271484375 599 110.099609375 c 0
34 207 m 0
 34 330 109 431.5 220 431.5 c 0
 223.953128016 431.5 228.954101562 431.25 233 431 c 1
 233 408 l 1
 229.64453125 408.284179688 225.310546875 408.450195312 222 408.450195312 c 0
 136 408.450195312 69 332 69 230 c 0
 69 147 117.309455467 71 206 71 c 0
 265 71 318 98.6416015625 318 158 c 0
 318 196 298.453333284 217 267 217 c 0
 259.666666667 217 250 215 243 210 c 1
 242 204 241 195.333333333 241 192 c 1
 216 192 l 1
 226.196066844 316.90181884 288 431.5 410 431.5 c 0
 522 431.5 586 332 586 217 c 0
 586 95 500.052817527 -1 369 -1 c 0
 359 -1 348.666666667 -0.333333333333 338 1 c 1
 338 26 l 1
 346 25 354 24 362 24 c 0
 469 24 543 100 543 200 c 0
 543 301 484 371 393 371 c 0
 316.349609375 371 263 313 247 236 c 1
 255 240 263.333333333 241 270 241 c 0
 318 241 352 202 352 136 c 0
 352 56 295 -2 208 -2 c 0
 97 -2 34 96 34 207 c 0
EndSplineSet
Refer: 80 -1 N 1 0 0 1 380 -26 2
Colour: ff0000
EndChar

StartChar: si_Gh.halant
Encoding: 120 -1 96
GlifName: si_G_h.halant
Width: 677
VWidth: 1000
Flags: HMW
LayerCount: 2
Back
Fore
SplineSet
51 154 m 0
 51 226 92 269 144 285 c 1
 177.760742188 297.19921875 231.875 308 269 308 c 2
 281 308 l 1
 281.08203125 310.041015625 281.0859375 310.041015625 281.0859375 312 c 0
 281.0859375 360 249 395 212 395 c 0
 173 395 162 371 156.5 355 c 0
 149.951171875 335.948242188 139.87109375 323 118 323 c 0
 102 323 82 333.368164062 82 359 c 0
 82 406 132 431.5 187 431.5 c 0
 275 431.5 313.146484375 369 313.146484375 296 c 0
 313.146484375 292.721679688 313.100585938 286.387695312 313 283 c 1
 216 283 l 2
 163 283 89 248 89 175 c 0
 89 116.176395544 142 71 212 71 c 0
 228 71 241.666992188 72.6669921875 245 76 c 1
 243 86 242 98 242 106 c 0
 242 180 295 200 332 200 c 0
 365 200 420 180 420 108 c 0
 420 101 419 87 417 79 c 1
 421.42388011 75.6679341213 439.705037723 71 471 71 c 0
 540 71 593 113 593 178 c 0
 593 248 541 291 448 291 c 0
 412 291 386 289 353 282 c 1
 352.814453125 285.706054688 352.717070236 287.374324769 352.717070236 290.99999647 c 0
 352.717070236 375 400.57421875 432 476 432 c 0
 530 432 579 408 579 350 c 0
 579 328.666992188 565 306 550 297 c 1
 597.333333333 273.666666667 628 221.08203125 628 166 c 0
 628 58 555.929102634 0 464 0 c 0
 440 0 412.666666667 4 382 12 c 1
 379.333333333 17.3333333333 378 23.3333333333 378 30 c 0
 378 64 391 78 391 108 c 0
 391 142 367.440429688 171 332 171 c 0
 306 171 272 153 272 106 c 0
 272 71 281 69 281 35 c 256
 281 27.6669921875 280 17 277 11 c 1
 246 2 217.666666667 -1 199 -1 c 0
 108.173759358 -1 51 76 51 154 c 0
5 276 m 1
 5 308 l 1
 279 308 l 1
 309 283 l 1
 147 283 l 2
 76 282 21 278.666992188 5 276 c 1
382 310 m 1
 395 314 419 316 445 316 c 0
 479 316 511.998046875 310.734375 525 306 c 1
 537 319 540 334 540 346 c 256
 540 379 506.477539062 393 470 393 c 0
 418 393 386.666666667 364.666666667 382 310 c 1
478 413 m 1
 505 396 l 1
 505 477 l 1
 520.333007812 470.333007812 535.333007812 467 550 467 c 0
 593.19140625 467 628 497 628 541 c 0
 628 633 532 638 478 680 c 1
 478 413 l 1
505 502 m 1
 505 637 l 1
 552 606 591 586 591 544 c 0
 591 520 576 495 538 495 c 0
 524.666992188 495 513.666992188 497.333007812 505 502 c 1
EndSplineSet
Validated: 5
LCarets2: 1 0
Ligature2: "si_halant_1-0 subtable" si_Gha si_Halant
Ligature2: "si_halant_1 subtable" si_Gha si_Halant
EndChar

StartChar: si_GhI
Encoding: 121 -1 97
GlifName: si_G_hI_
Width: 677
VWidth: 1000
Flags: HMW
LayerCount: 2
Back
Fore
SplineSet
51 154 m 4
 51 226 92 269 144 285 c 5
 177.760742188 297.19921875 231.875 308 269 308 c 6
 281 308 l 5
 281.08203125 310.041015625 281.0859375 310.041015625 281.0859375 312 c 4
 281.0859375 360 249 395 212 395 c 4
 173 395 162 371 156.5 355 c 4
 149.951171875 335.948242188 139.87109375 323 118 323 c 4
 102 323 82 333.368164062 82 359 c 4
 82 406 132 431.5 187 431.5 c 4
 275 431.5 313.146484375 369 313.146484375 296 c 4
 313.146484375 292.721679688 313.100585938 286.387695312 313 283 c 5
 216 283 l 6
 163 283 89 248 89 175 c 4
 89 116.176395544 142 71 212 71 c 4
 228 71 241.666992188 72.6669921875 245 76 c 5
 243 86 242 98 242 106 c 4
 242 180 295 200 332 200 c 4
 365 200 420 180 420 108 c 4
 420 101 419 87 417 79 c 5
 421.42388011 75.6679341213 439.705037723 71 471 71 c 4
 540 71 593 113 593 178 c 4
 593 248 541 291 448 291 c 4
 412 291 386 289 353 282 c 5
 352.814453125 285.706054688 352.717070236 287.374324769 352.717070236 290.99999647 c 4
 352.717070236 375 400.57421875 432 476 432 c 4
 530 432 579 408 579 350 c 4
 579 328.666992188 565 306 550 297 c 5
 597.333333333 273.666666667 628 221.08203125 628 166 c 4
 628 58 555.929102634 0 464 0 c 4
 440 0 412.666666667 4 382 12 c 5
 379.333333333 17.3333333333 378 23.3333333333 378 30 c 4
 378 64 391 78 391 108 c 4
 391 142 367.440429688 171 332 171 c 4
 306 171 272 153 272 106 c 4
 272 71 281 69 281 35 c 260
 281 27.6669921875 280 17 277 11 c 5
 246 2 217.666666667 -1 199 -1 c 4
 108.173759358 -1 51 76 51 154 c 4
5 276 m 5
 5 308 l 5
 279 308 l 5
 309 283 l 5
 147 283 l 6
 76 282 21 278.666992188 5 276 c 5
382 310 m 5
 395 314 419 316 445 316 c 4
 479 316 511.998046875 310.734375 525 306 c 5
 537 319 540 334 540 346 c 260
 540 379 506.477539062 393 470 393 c 4
 418 393 386.666666667 364.666666667 382 310 c 5
102.5 517 m 0
 102.5 442.45703125 168.642578125 407.07421875 245.5 404 c 1
 216 429 l 1
 190.271740367 433.937488561 136.5 453 136.5 508 c 0
 136.5 579.088867188 245.591796875 597 334.5 597 c 0
 423.408203125 597 532.5 579.088867188 532.5 508 c 0
 532.5 453 476.386552062 432.386001584 452 430 c 1
 423.5 404 l 1
 500.357421875 407.07421875 566.5 442.45703125 566.5 517 c 0
 566.5 625.291015625 453.87890625 670 334.5 670 c 0
 215.12109375 670 102.5 625.291015625 102.5 517 c 0
EndSplineSet
Validated: 5
Ligature2: "si_abvs_1-0 subtable" si_Gha si_MatraI
Ligature2: "si_abvs_1 subtable" si_Gha si_MatraI
EndChar

StartChar: si_GhIi
Encoding: 122 -1 98
GlifName: si_G_hI_i
Width: 677
VWidth: 1000
Flags: HMW
LayerCount: 2
Back
Fore
SplineSet
51 154 m 0
 51 226 92 269 144 285 c 1
 177.760742188 297.19921875 231.875 308 269 308 c 2
 281 308 l 1
 281.08203125 310.041015625 281.0859375 310.041015625 281.0859375 312 c 0
 281.0859375 360 249 395 212 395 c 0
 173 395 162 371 156.5 355 c 0
 149.951171875 335.948242188 139.87109375 323 118 323 c 0
 102 323 82 333.368164062 82 359 c 0
 82 406 132 431.5 187 431.5 c 0
 275 431.5 313.146484375 369 313.146484375 296 c 0
 313.146484375 292.721679688 313.100585938 286.387695312 313 283 c 1
 216 283 l 2
 163 283 89 248 89 175 c 0
 89 116.176395544 142 71 212 71 c 0
 228 71 241.666992188 72.6669921875 245 76 c 1
 243 86 242 98 242 106 c 0
 242 180 295 200 332 200 c 0
 365 200 420 180 420 108 c 0
 420 101 419 87 417 79 c 1
 421.42388011 75.6679341213 439.705037723 71 471 71 c 0
 540 71 593 113 593 178 c 0
 593 248 541 291 448 291 c 0
 412 291 386 289 353 282 c 1
 352.814453125 285.706054688 352.717070236 287.374324769 352.717070236 290.99999647 c 0
 352.717070236 375 400.57421875 432 476 432 c 0
 530 432 579 408 579 350 c 0
 579 328.666992188 565 306 550 297 c 1
 597.333333333 273.666666667 628 221.08203125 628 166 c 0
 628 58 555.929102634 0 464 0 c 0
 440 0 412.666666667 4 382 12 c 1
 379.333333333 17.3333333333 378 23.3333333333 378 30 c 0
 378 64 391 78 391 108 c 0
 391 142 367.440429688 171 332 171 c 0
 306 171 272 153 272 106 c 0
 272 71 281 69 281 35 c 256
 281 27.6669921875 280 17 277 11 c 1
 246 2 217.666666667 -1 199 -1 c 0
 108.173759358 -1 51 76 51 154 c 0
5 276 m 1
 5 308 l 1
 279 308 l 1
 309 283 l 1
 147 283 l 2
 76 282 21 278.666992188 5 276 c 1
382 310 m 1
 395 314 419 316 445 316 c 0
 479 316 511.998046875 310.734375 525 306 c 1
 537 319 540 334 540 346 c 256
 540 379 506.477539062 393 470 393 c 0
 418 393 386.666666667 364.666666667 382 310 c 1
422.5 514 m 4
 422.5 545 452.5 570 488.5 570 c 4
 524.5 570 554.5 545 554.5 514 c 4
 554.5 483 524.5 458 488.5 458 c 4
 452.5 458 422.5 483 422.5 514 c 4
85.5 517 m 0
 85.5 456 122.254882812 410.733398438 175.5 406 c 1
 182.5 426 l 1
 144.5 435 122.5 460.333007812 122.5 499 c 0
 122.5 578 243.3359375 600 337.5 600 c 0
 391.5 600 430.5 594 441.5 591 c 1
 422.5 582 390.5 560 390.5 515 c 0
 390.5 470 430.5 429 488.5 429 c 0
 544.77734375 429 589.5 468.768554688 589.5 524 c 0
 589.5 627.399414062 453.213867188 671 336.5 671 c 256
 209.446289062 671 85.5 624.2109375 85.5 517 c 0
EndSplineSet
Validated: 5
LCarets2: 1 0
Ligature2: "si_abvs_2-0 subtable" si_Gha si_MatraIi
Ligature2: "si_abvs_2 subtable" si_Gha si_MatraIi
EndChar

StartChar: si_GhU
Encoding: 123 -1 99
GlifName: si_G_hU_
Width: 677
VWidth: 1000
Flags: MW
LayerCount: 2
Back
Fore
SplineSet
51 154 m 4
 51 226 92 269 144 285 c 5
 177.760742188 297.19921875 231.875 308 269 308 c 6
 281 308 l 5
 281.08203125 310.041015625 281.0859375 310.041015625 281.0859375 312 c 4
 281.0859375 360 249 395 212 395 c 4
 173 395 162 371 156.5 355 c 4
 149.951171875 335.948242188 139.87109375 323 118 323 c 4
 102 323 82 333.368164062 82 359 c 4
 82 406 132 431.5 187 431.5 c 4
 275 431.5 313.146484375 369 313.146484375 296 c 4
 313.146484375 292.721679688 313.100585938 286.387695312 313 283 c 5
 216 283 l 6
 163 283 89 248 89 175 c 4
 89 116.176395544 142 71 212 71 c 4
 228 71 241.666992188 72.6669921875 245 76 c 5
 243 86 242 98 242 106 c 4
 242 180 295 200 332 200 c 4
 365 200 420 180 420 108 c 4
 420 101 419 87 417 79 c 5
 421.42388011 75.6679341213 439.705037723 71 471 71 c 4
 540 71 593 113 593 178 c 4
 593 248 541 291 448 291 c 4
 412 291 386 289 353 282 c 5
 352.814453125 285.706054688 352.717070236 287.374324769 352.717070236 290.99999647 c 4
 352.717070236 375 400.57421875 432 476 432 c 4
 530 432 579 408 579 350 c 4
 579 328.666992188 565 306 550 297 c 5
 597.333333333 273.666666667 628 221.08203125 628 166 c 4
 628 58 555.929102634 0 464 0 c 4
 440 0 412.666666667 4 382 12 c 5
 379.333333333 17.3333333333 378 23.3333333333 378 30 c 4
 378 64 391 78 391 108 c 4
 391 142 367.440429688 171 332 171 c 4
 306 171 272 153 272 106 c 4
 272 71 281 69 281 35 c 260
 281 27.6669921875 280 17 277 11 c 5
 246 2 217.666666667 -1 199 -1 c 4
 108.173759358 -1 51 76 51 154 c 4
5 276 m 5
 5 308 l 5
 279 308 l 5
 309 283 l 5
 147 283 l 6
 76 282 21 278.666992188 5 276 c 5
382 310 m 5
 395 314 419 316 445 316 c 4
 479 316 511.998046875 310.734375 525 306 c 5
 537 319 540 334 540 346 c 260
 540 379 506.477539062 393 470 393 c 4
 418 393 386.666666667 364.666666667 382 310 c 5
66.5 -142.5 m 0
 66.5 -90.4912109375 112.79296875 -50.5 168 -50.5 c 0
 209.90625 -50.5 247.25 -74.1416015625 262 -110 c 1
 232 -121.5 l 1
 224.982421875 -101.896484375 201 -80 168 -80 c 0
 131.295898438 -80 100 -106.713867188 100 -142.5 c 0
 100 -171.663085938 123.383789062 -199 189 -199 c 2
 583 -199 l 1
 583 128 l 1
 616 219 l 1
 616 -235 l 1
 172 -235 l 2
 102.83984375 -235 66.5 -186.091796875 66.5 -142.5 c 0
EndSplineSet
Validated: 5
LCarets2: 1 0
Ligature2: "si_blws_1-0 subtable" si_Gha si_MatraU
Ligature2: "si_blws_1 subtable" si_Gha si_MatraU
EndChar

StartChar: si_GhUu
Encoding: 124 -1 100
GlifName: si_G_hU_u
Width: 677
VWidth: 1000
Flags: HMW
LayerCount: 2
Back
Fore
SplineSet
67.5 -138 m 4
 67.5 -80 116.5 -40 169.5 -40 c 4
 211.5 -40 243.833007812 -55 266.5 -91 c 5
 236.5 -102 l 5
 224.5 -83 203.5 -68 174.5 -68 c 4
 135.5 -68 103.5 -92 103.5 -129 c 4
 103.5 -166.366210938 134.5 -191 177.5 -191 c 4
 261.5 -191 360 -117 455 -117 c 4
 498 -117 556.5 -136 583.5 -168 c 5
 583.5 121.5 l 5
 616.5 212 l 5
 616.5 -231 l 5
 593.5 -231 l 5
 578.5 -195 526 -144 458 -144 c 4
 367 -144 276.5 -237 178.5 -237 c 4
 123.5 -237 67.5 -206 67.5 -138 c 4
51 154 m 0
 51 226 92 269 144 285 c 1
 177.760742188 297.19921875 231.875 308 269 308 c 2
 281 308 l 1
 281.08203125 310.041015625 281.0859375 310.041015625 281.0859375 312 c 0
 281.0859375 360 249 395 212 395 c 0
 173 395 162 371 156.5 355 c 0
 149.951171875 335.948242188 139.87109375 323 118 323 c 0
 102 323 82 333.368164062 82 359 c 0
 82 406 132 431.5 187 431.5 c 0
 275 431.5 313.146484375 369 313.146484375 296 c 0
 313.146484375 292.721679688 313.100585938 286.387695312 313 283 c 1
 216 283 l 2
 163 283 89 248 89 175 c 0
 89 116.176395544 142 71 212 71 c 0
 228 71 241.666992188 72.6669921875 245 76 c 1
 243 86 242 98 242 106 c 0
 242 180 295 200 332 200 c 0
 365 200 420 180 420 108 c 0
 420 101 419 87 417 79 c 1
 421.42388011 75.6679341213 439.705037723 71 471 71 c 0
 540 71 593 113 593 178 c 0
 593 248 541 291 448 291 c 0
 412 291 386 289 353 282 c 1
 352.814453125 285.706054688 352.717070236 287.374324769 352.717070236 290.99999647 c 0
 352.717070236 375 400.57421875 432 476 432 c 0
 530 432 579 408 579 350 c 0
 579 328.666992188 565 306 550 297 c 1
 597.333333333 273.666666667 628 221.08203125 628 166 c 0
 628 58 555.929102634 0 464 0 c 0
 440 0 412.666666667 4 382 12 c 1
 379.333333333 17.3333333333 378 23.3333333333 378 30 c 0
 378 64 391 78 391 108 c 0
 391 142 367.440429688 171 332 171 c 0
 306 171 272 153 272 106 c 0
 272 71 281 69 281 35 c 256
 281 27.6669921875 280 17 277 11 c 1
 246 2 217.666666667 -1 199 -1 c 0
 108.173759358 -1 51 76 51 154 c 0
5 276 m 1
 5 308 l 1
 279 308 l 1
 309 283 l 1
 147 283 l 2
 76 282 21 278.666992188 5 276 c 1
382 310 m 1
 395 314 419 316 445 316 c 0
 479 316 511.998046875 310.734375 525 306 c 1
 537 319 540 334 540 346 c 256
 540 379 506.477539062 393 470 393 c 0
 418 393 386.666666667 364.666666667 382 310 c 1
EndSplineSet
Validated: 5
Ligature2: "si_blws_3-0 subtable" si_Gha si_MatraUu
Ligature2: "si_blws_3 subtable" si_Gha si_MatraUu
EndChar

StartChar: si_Gha.reph
Encoding: 125 -1 101
GlifName: si_G_ha.reph
Width: 677
VWidth: 1000
Flags: HMW
LayerCount: 2
Back
Fore
SplineSet
296.0859375 491 m 4
 296.0859375 470.446289062 314.68359375 453.806640625 337 453.806640625 c 4
 359.31640625 453.806640625 377.9140625 470.446289062 377.9140625 491 c 4
 377.9140625 511.553710938 359.31640625 528.193359375 337 528.193359375 c 4
 314.68359375 528.193359375 296.0859375 511.553710938 296.0859375 491 c 4
194 510 m 4
 194 574 252.120117188 611 334 611 c 4
 411 611 475 568 475 497 c 4
 475 473 466.666992188 451.333007812 450 432 c 5
 416.25 432 l 5
 429.419921875 444.38671875 444.75 468.734375 444.75 496 c 260
 444.75 553.241210938 394 583.75 333 583.75 c 4
 280.221679688 583.75 225.25 562.555664062 225.25 510 c 4
 225.25 470.924804688 266.303710938 452.215820312 289.5 450.25 c 5
 281.5 456.25 269 471 269 492 c 4
 269 527 300.353515625 552 336 552 c 4
 377 552 405 525 405 490 c 4
 405 451 370 425 312 425 c 4
 253 425 194 454 194 510 c 4
51 154 m 0
 51 226 92 269 144 285 c 1
 177.760742188 297.19921875 231.875 308 269 308 c 2
 281 308 l 1
 281.08203125 310.041015625 281.0859375 310.041015625 281.0859375 312 c 0
 281.0859375 360 249 395 212 395 c 0
 173 395 162 371 156.5 355 c 0
 149.951171875 335.948242188 139.87109375 323 118 323 c 0
 102 323 82 333.368164062 82 359 c 0
 82 406 132 431.5 187 431.5 c 0
 275 431.5 313.146484375 369 313.146484375 296 c 0
 313.146484375 292.721679688 313.100585938 286.387695312 313 283 c 1
 216 283 l 2
 163 283 89 248 89 175 c 0
 89 116.176395544 142 71 212 71 c 0
 228 71 241.666992188 72.6669921875 245 76 c 1
 243 86 242 98 242 106 c 0
 242 180 295 200 332 200 c 0
 365 200 420 180 420 108 c 0
 420 101 419 87 417 79 c 1
 421.42388011 75.6679341213 439.705037723 71 471 71 c 0
 540 71 593 113 593 178 c 0
 593 248 541 291 448 291 c 0
 412 291 386 289 353 282 c 1
 352.814453125 285.706054688 352.717070236 287.374324769 352.717070236 290.99999647 c 0
 352.717070236 375 400.57421875 432 476 432 c 0
 530 432 579 408 579 350 c 0
 579 328.666992188 565 306 550 297 c 1
 597.333333333 273.666666667 628 221.08203125 628 166 c 0
 628 58 555.929102634 0 464 0 c 0
 440 0 412.666666667 4 382 12 c 1
 379.333333333 17.3333333333 378 23.3333333333 378 30 c 0
 378 64 391 78 391 108 c 0
 391 142 367.440429688 171 332 171 c 0
 306 171 272 153 272 106 c 0
 272 71 281 69 281 35 c 256
 281 27.6669921875 280 17 277 11 c 1
 246 2 217.666666667 -1 199 -1 c 0
 108.173759358 -1 51 76 51 154 c 0
5 276 m 1
 5 308 l 1
 279 308 l 1
 309 283 l 1
 147 283 l 2
 76 282 21 278.666992188 5 276 c 1
382 310 m 1
 395 314 419 316 445 316 c 0
 479 316 511.998046875 310.734375 525 306 c 1
 537 319 540 334 540 346 c 256
 540 379 506.477539062 393 470 393 c 0
 418 393 386.666666667 364.666666667 382 310 c 1
EndSplineSet
Validated: 5
Ligature2: "si_abvs_7-0 subtable" si_Gha si_Reph
Ligature2: "si_abvs_7 subtable" si_Gha si_Reph
EndChar

StartChar: si_GhAa.reph
Encoding: 126 -1 102
GlifName: si_G_hA_a.reph
Width: 938
VWidth: 1000
Flags: HMW
LayerCount: 2
Back
Fore
SplineSet
296.0859375 491 m 4
 296.0859375 470.446289062 314.68359375 453.806640625 337 453.806640625 c 4
 359.31640625 453.806640625 377.9140625 470.446289062 377.9140625 491 c 4
 377.9140625 511.553710938 359.31640625 528.193359375 337 528.193359375 c 4
 314.68359375 528.193359375 296.0859375 511.553710938 296.0859375 491 c 4
194 510 m 4
 194 574 252.120117188 611 334 611 c 4
 411 611 475 568 475 497 c 4
 475 473 466.666992188 451.333007812 450 432 c 5
 416.25 432 l 5
 429.419921875 444.38671875 444.75 468.734375 444.75 496 c 260
 444.75 553.241210938 394 583.75 333 583.75 c 4
 280.221679688 583.75 225.25 562.555664062 225.25 510 c 4
 225.25 470.924804688 266.303710938 452.215820312 289.5 450.25 c 5
 281.5 456.25 269 471 269 492 c 4
 269 527 300.353515625 552 336 552 c 4
 377 552 405 525 405 490 c 4
 405 451 370 425 312 425 c 4
 253 425 194 454 194 510 c 4
640.5 109.099609375 m 0
 640.5 116.506835938 640.833007812 123.9140625 641.5 131.3203125 c 1
 668.5 131.3203125 l 1
 667.833007812 126.606445312 667.5 121.556640625 667.5 116.169921875 c 0
 667.5 67.6904296875 691.5 35 736.5 35.400390625 c 0
 795.498046875 35.92578125 822.5 89.5400390625 822.5 200 c 0
 822.5 310.459960938 795.5 364.599609375 736.5 364.599609375 c 0
 698.5 364.599609375 667.5 332.309570312 667.5 283.830078125 c 0
 667.5 278.443359375 667.833007812 273.393554688 668.5 268.6796875 c 1
 641.5 268.6796875 l 1
 640.833007812 276.0859375 640.5 283.494140625 640.5 290.900390625 c 0
 640.5 359.728515625 692.5 402 751.5 402 c 0
 842.5 402 888.5 328.26953125 888.5 200 c 0
 888.5 71.73046875 842.5 -2 751.5 -2 c 0
 684.087890625 -2 640.5 40.271484375 640.5 109.099609375 c 0
51 154 m 0
 51 226 92 269 144 285 c 1
 177.760742188 297.19921875 231.875 308 269 308 c 2
 281 308 l 1
 281.08203125 310.041015625 281.0859375 310.041015625 281.0859375 312 c 0
 281.0859375 360 249 395 212 395 c 0
 173 395 162 371 156.5 355 c 0
 149.951171875 335.948242188 139.87109375 323 118 323 c 0
 102 323 82 333.368164062 82 359 c 0
 82 406 132 431.5 187 431.5 c 0
 275 431.5 313.146484375 369 313.146484375 296 c 0
 313.146484375 292.721679688 313.100585938 286.387695312 313 283 c 1
 216 283 l 2
 163 283 89 248 89 175 c 0
 89 116.176395544 142 71 212 71 c 0
 228 71 241.666992188 72.6669921875 245 76 c 1
 243 86 242 98 242 106 c 0
 242 180 295 200 332 200 c 0
 365 200 420 180 420 108 c 0
 420 101 419 87 417 79 c 1
 421.42388011 75.6679341213 439.705037723 71 471 71 c 0
 540 71 593 113 593 178 c 0
 593 248 541 291 448 291 c 0
 412 291 386 289 353 282 c 1
 352.814453125 285.706054688 352.717070236 287.374324769 352.717070236 290.99999647 c 0
 352.717070236 375 400.57421875 432 476 432 c 0
 530 432 579 408 579 350 c 0
 579 328.666992188 565 306 550 297 c 1
 597.333333333 273.666666667 628 221.08203125 628 166 c 0
 628 58 555.929102634 0 464 0 c 0
 440 0 412.666666667 4 382 12 c 1
 379.333333333 17.3333333333 378 23.3333333333 378 30 c 0
 378 64 391 78 391 108 c 0
 391 142 367.440429688 171 332 171 c 0
 306 171 272 153 272 106 c 0
 272 71 281 69 281 35 c 256
 281 27.6669921875 280 17 277 11 c 1
 246 2 217.666666667 -1 199 -1 c 0
 108.173759358 -1 51 76 51 154 c 0
5 276 m 1
 5 308 l 1
 279 308 l 1
 309 283 l 1
 147 283 l 2
 76 282 21 278.666992188 5 276 c 1
382 310 m 1
 395 314 419 316 445 316 c 0
 479 316 511.998046875 310.734375 525 306 c 1
 537 319 540 334 540 346 c 256
 540 379 506.477539062 393 470 393 c 0
 418 393 386.666666667 364.666666667 382 310 c 1
EndSplineSet
Validated: 37
EndChar

StartChar: si_CI
Encoding: 139 -1 103
GlifName: si_C_I_
Width: 621
VWidth: 1000
Flags: HMW
LayerCount: 2
Back
Fore
SplineSet
69 562 m 4
 69 652 200 670 300 670 c 4
 436 670 546 639 546 554 c 4
 546 502 492 480 458 474 c 5
 408 490 l 5
 444 491 499 506 499 544 c 4
 499 600.2734375 408 611 300 611 c 4
 224.34375 611 111 605.885742188 111 554 c 4
 111 508 176 508 278 504 c 4
 342.869140625 501.456054688 437 499 492 459 c 4
 541.146484375 423.256835938 577 356 577 274 c 5
 538 297 l 5
 538 338.152717829 526.813476562 383.5625 499 414 c 4
 446 472 380.018554688 472.325195312 279 478 c 4
 190 483 69 476 69 562 c 4
64 165 m 0
 64 195.720703125 73.775390625 227.831054688 97 248 c 0
 113.126953125 262.004882812 132 273 158 278 c 1
 191.760742188 290.19921875 232.875 302 270 302 c 2
 287 302 l 1
 287.08203125 304.041015625 287.0859375 306.041015625 287.0859375 308 c 0
 287.0859375 362 254.125 395 215 395 c 0
 168.9453125 395 162.453125 371 157.5 355 c 0
 151.542373343 335.755174458 141.37109375 323 119.5 323 c 0
 103.5 323 83 333.868164062 83 359.5 c 0
 83 404.3125 133 431.5 188 431.5 c 0
 276 431.5 319.146484375 376 319.146484375 290 c 0
 319.146484375 286.721679688 319.100585938 280.387695312 319 277 c 1
 250 277 l 2
 205.559570312 277 166.1171875 264.814453125 141 249 c 0
 114 232 101 206.05078125 101 180 c 0
 101 94 208 71 298 71 c 0
 451 71 538 156 538 304 c 1
 577 274 l 1
 577 114 478 0 295 0 c 0
 174 0 64 46 64 165 c 0
14 270 m 1
 14 302 l 1
 285 302 l 1
 315 277 l 1
 148 277 l 2
 77 276 30 272.666992188 14 270 c 1
EndSplineSet
Validated: 5
LCarets2: 1 0
Ligature2: "si_abvs_1-0 subtable" si_Ca si_MatraI
Ligature2: "si_abvs_1 subtable" si_Ca si_MatraI
EndChar

StartChar: si_CIi
Encoding: 140 -1 104
GlifName: si_C_I_i
Width: 621
VWidth: 1000
Flags: HMW
LayerCount: 2
Back
Fore
SplineSet
393.697265625 555 m 4
 393.697265625 524.818359375 420.8671875 500.54296875 454 500.54296875 c 4
 487.1328125 500.54296875 514.302734375 524.818359375 514.302734375 555 c 4
 514.302734375 585.181640625 487.1328125 609.45703125 454 609.45703125 c 4
 420.8671875 609.45703125 393.697265625 585.181640625 393.697265625 555 c 4
69 562 m 4
 69 652 200 670 300 670 c 4
 436 670 546 639 546 558 c 4
 546 505 498 474 454 474 c 4
 410 474 362 505 362 558 c 4
 362 583 375 600 381 608 c 5
 374 609 342.211914062 611 300 611 c 4
 224.34375 611 111 605.885742188 111 554 c 4
 111 508 176 508 278 504 c 4
 342.869140625 501.456054688 437 499 492 459 c 4
 541.146484375 423.256835938 577 358.552246094 577 274 c 5
 538 286 l 5
 538 332.616662396 526.813476562 383.5625 499 414 c 4
 446 472 380.018554688 472.325195312 279 478 c 4
 190 483 69 476 69 562 c 4
64 165 m 0
 64 195.720703125 73.775390625 227.831054688 97 248 c 0
 113.126953125 262.004882812 132 273 158 278 c 1
 191.760742188 290.19921875 232.875 302 270 302 c 2
 287 302 l 1
 287.08203125 304.041015625 287.0859375 306.041015625 287.0859375 308 c 0
 287.0859375 362 254.125 395 215 395 c 0
 168.9453125 395 162.453125 371 157.5 355 c 0
 151.542373343 335.755174458 141.37109375 323 119.5 323 c 0
 103.5 323 83 333.868164062 83 359.5 c 0
 83 404.3125 133 431.5 188 431.5 c 0
 276 431.5 319.146484375 376 319.146484375 290 c 0
 319.146484375 286.721679688 319.100585938 280.387695312 319 277 c 1
 250 277 l 2
 205.559570312 277 166.1171875 264.814453125 141 249 c 0
 114 232 101 206.05078125 101 180 c 0
 101 94 208 71 298 71 c 0
 451 71 538 156 538 304 c 1
 577 274 l 1
 577 114 478 0 295 0 c 0
 174 0 64 46 64 165 c 0
14 270 m 1
 14 302 l 1
 285 302 l 1
 315 277 l 1
 148 277 l 2
 77 276 30 272.666992188 14 270 c 1
EndSplineSet
Validated: 5
Ligature2: "si_abvs_2-0 subtable" si_Ca si_MatraIi
Ligature2: "si_abvs_2 subtable" si_Ca si_MatraIi
EndChar

StartChar: si_CU
Encoding: 141 -1 105
GlifName: si_C_U_
Width: 597
VWidth: 1000
Flags: HMW
LayerCount: 2
Back
Fore
SplineSet
70.5 -142.5 m 0
 70.5 -90.4912109375 116.79296875 -50.5 172 -50.5 c 0
 213.90625 -50.5 251.25 -74.1416015625 266 -110 c 1
 236 -121.5 l 1
 228.982421875 -101.896484375 205 -80 172 -80 c 0
 135.295898438 -80 104 -106.713867188 104 -142.5 c 0
 104 -171.663085938 127.383789062 -199 193 -199 c 2
 533 -199 l 1
 533 128 l 1
 566 219 l 1
 566 -235 l 1
 176 -235 l 2
 106.83984375 -235 70.5 -186.091796875 70.5 -142.5 c 0
EndSplineSet
Refer: 2 3488 N 1 0 0 1 0 0 2
Validated: 5
LCarets2: 1 0
Ligature2: "si_blws_1-0 subtable" si_Ca si_MatraU
Ligature2: "si_blws_1 subtable" si_Ca si_MatraU
EndChar

StartChar: si_CUu
Encoding: 142 -1 106
GlifName: si_C_U_u
Width: 597
VWidth: 1000
Flags: HMW
LayerCount: 2
Back
Fore
SplineSet
70.5 -138 m 0
 70.5 -80 119.5 -40 172.5 -40 c 0
 214.5 -40 246.833007812 -55 269.5 -91 c 1
 239.5 -102 l 1
 227.5 -83 206.5 -68 177.5 -68 c 0
 138.5 -68 106.5 -92 106.5 -129 c 0
 106.5 -166.366210938 137.5 -191 180.5 -191 c 0
 264.5 -191 328 -117 423 -117 c 0
 470.59375 -117 506 -136 533 -168 c 1
 533 152 l 1
 566 212 l 1
 566 -231 l 1
 543 -231 l 1
 528 -195 490.875 -144 426 -144 c 0
 335 -144 279.5 -237 181.5 -237 c 0
 126.5 -237 70.5 -206 70.5 -138 c 0
EndSplineSet
Refer: 2 3488 N 1 0 0 1 0 0 2
Validated: 5
LCarets2: 1 0
Ligature2: "si_blws_3-0 subtable" si_Ca si_MatraUu
Ligature2: "si_blws_3 subtable" si_Ca si_MatraUu
EndChar

StartChar: si_Ca.reph
Encoding: 143 -1 107
GlifName: si_C_a.reph
Width: 597
VWidth: 1000
Flags: HMW
LayerCount: 2
Back
Fore
SplineSet
273.5859375 515.5 m 0
 273.5859375 494.946289062 292.18359375 478.306640625 314.5 478.306640625 c 0
 336.81640625 478.306640625 355.4140625 494.946289062 355.4140625 515.5 c 0
 355.4140625 536.053710938 336.81640625 552.693359375 314.5 552.693359375 c 0
 292.18359375 552.693359375 273.5859375 536.053710938 273.5859375 515.5 c 0
171.5 534.5 m 4
 171.5 598.5 229.620117188 635.5 311.5 635.5 c 4
 388.5 635.5 452.5 592.5 452.5 521.5 c 4
 452.5 497.5 444.166992188 475.833007812 427.5 456.5 c 5
 393.75 456.5 l 5
 406.919921875 468.88671875 422.25 493.234375 422.25 520.5 c 260
 422.25 577.741210938 371.5 608.25 310.5 608.25 c 4
 257.721679688 608.25 202.75 587.055664062 202.75 534.5 c 4
 202.75 495.424804688 243.803710938 476.715820312 267 474.75 c 5
 259 480.75 246.5 495.5 246.5 516.5 c 4
 246.5 551.5 277.853515625 576.5 313.5 576.5 c 4
 354.5 576.5 382.5 549.5 382.5 514.5 c 4
 382.5 475.5 347.5 449.5 289.5 449.5 c 4
 230.5 449.5 171.5 478.5 171.5 534.5 c 4
EndSplineSet
Refer: 2 3488 N 1 0 0 1 0 0 2
Validated: 5
LCarets2: 1 0
Ligature2: "si_abvs_7-0 subtable" si_Ca si_Reph
Ligature2: "si_abvs_7 subtable" si_Ca si_Reph
Colour: ff0000
EndChar

StartChar: si_ChI
Encoding: 148 -1 108
GlifName: si_C_hI_
Width: 598
VWidth: 1000
Flags: HMW
LayerCount: 2
Back
Fore
SplineSet
233 489.5 m 0
 233 576.568344116 303.321289062 657 382 657 c 256
 428.882360791 657 460.703125 626.416015625 460.705078125 583 c 0
 460.705078125 579.106445312 460.495882124 576.10238058 460 572 c 1
 459.982421875 571.995117188 430 544.015625 430 544 c 1
 433.998953036 550.486965313 436.180664192 564.622065929 436.180664062 575.5 c 0
 436.18066372 604.328288317 424.15790881 622 393 622 c 0
 335.619979858 622 276.5 550.291015625 276.5 486 c 0
 276.5 454.191558157 290.994140625 429.02734375 332 429.026367188 c 0
 345.841796875 429.026367188 357.15418162 431.185490911 374 436 c 1
 373.999205737 435.977760632 370.000994788 425.000980856 370 425 c 1
 357.177734375 416.841796875 329.2297384 407.634579889 327 407 c 1
 325.947157499 406.998779664 324.051330601 406.952148437 323 406.952148438 c 0
 260.12493891 406.952148438 233 439.4896989 233 489.5 c 0
EndSplineSet
Refer: 17 3489 N 1 0 0 1 0 0 2
Validated: 5
LCarets2: 1 0
Ligature2: "si_abvs_1-0 subtable" si_Cha si_MatraI
Ligature2: "si_abvs_1 subtable" si_Cha si_MatraI
EndChar

StartChar: si_ChIi
Encoding: 149 -1 109
GlifName: si_C_hI_i
Width: 598
VWidth: 1000
Flags: HMW
LayerCount: 2
Back
Fore
SplineSet
337.720703125 579 m 0
 337.720703125 551.83203125 359.33203125 530.220703125 386.5 530.220703125 c 0
 413.66796875 530.220703125 435.279296875 551.83203125 435.279296875 579 c 0
 435.279296875 606.16796875 413.66796875 627.779296875 386.5 627.779296875 c 0
 359.33203125 627.779296875 337.720703125 606.16796875 337.720703125 579 c 0
233 489.5 m 0
 233 576.568344116 303.260740622 656.5 386.75 656.5 c 256
 431.639829159 656.5 463.955078125 619.451778137 463.955078125 579 c 0
 463.955078125 540.548925031 433.976218835 501.5 386.75 501.5 c 0
 339.065417469 501.5 311.634765625 539.847290039 311.634765625 574.25 c 0
 311.634765625 574.75 311.711603731 576 311.75 576.75 c 1
 293.181439161 551.953941107 276.5 519.777445193 276.5 486 c 0
 276.5 454.191558157 290.994140625 429.02734375 332 429.026367188 c 0
 345.841796875 429.026367188 357.15418162 431.185490911 374 436 c 1
 373.999205737 435.977760632 370.000994788 425.000980856 370 425 c 1
 357.177734375 416.841796875 329.2297384 407.634579889 327 407 c 1
 325.947157499 406.998779664 324.051330601 406.952148437 323 406.952148438 c 0
 260.12493891 406.952148438 233 439.4896989 233 489.5 c 0
EndSplineSet
Refer: 17 3489 N 1 0 0 1 0 0 2
Validated: 5
Ligature2: "si_abvs_2-0 subtable" si_Cha si_MatraIi
Ligature2: "si_abvs_2 subtable" si_Cha si_MatraIi
EndChar

StartChar: si_ChU
Encoding: 150 -1 110
GlifName: si_C_hU_
Width: 598
VWidth: 1000
Flags: HMW
LayerCount: 2
Back
Fore
SplineSet
38.75 -142.5 m 0
 38.75 -90.4912109375 85.04296875 -50.5 140.25 -50.5 c 0
 182.15625 -50.5 219.5 -74.1416015625 234.25 -110 c 1
 204.25 -121.5 l 1
 197.232421875 -101.896484375 173.25 -80 140.25 -80 c 0
 103.545898438 -80 72.25 -106.713867188 72.25 -142.5 c 0
 72.25 -171.663085938 95.6337890625 -199 161.25 -199 c 2
 507.5 -199 l 1
 507.5 128 l 1
 540.5 198 l 1
 540.5 -235 l 1
 144.25 -235 l 2
 75.08984375 -235 38.75 -186.091796875 38.75 -142.5 c 0
EndSplineSet
Refer: 17 3489 N 1 0 0 1 0 0 2
Validated: 5
LCarets2: 1 0
Ligature2: "si_blws_1-0 subtable" si_Cha si_MatraU
Ligature2: "si_blws_1 subtable" si_Cha si_MatraU
EndChar

StartChar: si_ChUu
Encoding: 151 -1 111
GlifName: si_C_hU_u
Width: 598
VWidth: 1000
Flags: HMW
LayerCount: 2
Back
Fore
SplineSet
39 -138 m 0
 39 -80 88 -40 141 -40 c 0
 183 -40 215.333007812 -55 238 -91 c 1
 208 -102 l 1
 196 -83 175 -68 146 -68 c 0
 107 -68 75 -92 75 -129 c 0
 75 -166.366210938 106 -191 149 -191 c 0
 233 -191 299.75 -117 394.75 -117 c 0
 442.34375 -117 483.078689575 -137.891204834 507.75 -167.5 c 1
 507.75 140.75 l 1
 540.75 200.75 l 1
 540.75 -231 l 1
 517.75 -231 l 1
 502.75 -195 462.625 -144 397.75 -144 c 0
 306.75 -144 248 -237 150 -237 c 0
 95 -237 39 -206 39 -138 c 0
EndSplineSet
Refer: 17 3489 N 1 0 0 1 0 0 2
Validated: 5
LCarets2: 1 0
Ligature2: "si_blws_3-0 subtable" si_Cha si_MatraUu
Ligature2: "si_blws_3 subtable" si_Cha si_MatraUu
EndChar

StartChar: si_JI
Encoding: 153 -1 112
GlifName: si_J_I_
Width: 598
VWidth: 1000
Flags: HMW
LayerCount: 2
Back
Fore
SplineSet
233 489.5 m 0
 233 576.568344116 303.321289062 657 382 657 c 256
 428.882360791 657 460.703125 626.416015625 460.705078125 583 c 0
 460.705078125 579.106445312 460.495882124 576.10238058 460 572 c 1
 459.982421875 571.995117188 430 544.015625 430 544 c 1
 433.998953036 550.486965313 436.180664192 564.622065929 436.180664062 575.5 c 0
 436.18066372 604.328288317 424.15790881 622 393 622 c 0
 335.619979858 622 276.5 550.291015625 276.5 486 c 0
 276.5 454.191558157 290.994140625 429.02734375 332 429.026367188 c 0
 345.841796875 429.026367188 357.15418162 431.185490911 374 436 c 1
 373.999205737 435.977760632 370.000994788 425.000980856 370 425 c 1
 357.177734375 416.841796875 329.2297384 407.634579889 327 407 c 1
 325.947157499 406.998779664 324.051330601 406.952148437 323 406.952148438 c 0
 260.12493891 406.952148438 233 439.4896989 233 489.5 c 0
EndSplineSet
Refer: 16 3490 N 1 0 0 1 0 0 2
Validated: 5
Ligature2: "si_abvs_1-0 subtable" si_Ja si_MatraI
Ligature2: "si_abvs_1 subtable" si_Ja si_MatraI
EndChar

StartChar: si_JU
Encoding: 155 -1 113
GlifName: si_J_U_
Width: 598
VWidth: 1000
Flags: HMW
LayerCount: 2
Back
Fore
SplineSet
38.75 -142.5 m 0
 38.75 -90.4912109375 85.04296875 -50.5 140.25 -50.5 c 0
 182.15625 -50.5 219.5 -74.1416015625 234.25 -110 c 1
 204.25 -121.5 l 1
 197.232421875 -101.896484375 173.25 -80 140.25 -80 c 0
 103.545898438 -80 72.25 -106.713867188 72.25 -142.5 c 0
 72.25 -171.663085938 95.6337890625 -199 161.25 -199 c 2
 507.5 -199 l 1
 507.5 128 l 1
 540.5 198 l 1
 540.5 -235 l 1
 144.25 -235 l 2
 75.08984375 -235 38.75 -186.091796875 38.75 -142.5 c 0
EndSplineSet
Refer: 16 3490 N 1 0 0 1 0 0 2
Validated: 5
LCarets2: 1 0
Ligature2: "si_blws_1-0 subtable" si_Ja si_MatraU
Ligature2: "si_blws_1 subtable" si_Ja si_MatraU
EndChar

StartChar: si_JUu
Encoding: 156 -1 114
GlifName: si_J_U_u
Width: 598
VWidth: 1000
Flags: HMW
LayerCount: 2
Back
Fore
SplineSet
39 -138 m 0
 39 -80 88 -40 141 -40 c 0
 183 -40 215.333007812 -55 238 -91 c 1
 208 -102 l 1
 196 -83 175 -68 146 -68 c 0
 107 -68 75 -92 75 -129 c 0
 75 -166.366210938 106 -191 149 -191 c 0
 233 -191 299.75 -117 394.75 -117 c 0
 442.34375 -117 483.078689575 -137.891204834 507.75 -167.5 c 1
 507.75 140.75 l 1
 540.75 200.75 l 1
 540.75 -231 l 1
 517.75 -231 l 1
 502.75 -195 462.625 -144 397.75 -144 c 0
 306.75 -144 248 -237 150 -237 c 0
 95 -237 39 -206 39 -138 c 0
EndSplineSet
Refer: 16 3490 N 1 0 0 1 0 0 2
Validated: 5
Ligature2: "si_blws_3-0 subtable" si_Ja si_MatraUu
Ligature2: "si_blws_3 subtable" si_Ja si_MatraUu
EndChar

StartChar: si_Ja.reph
Encoding: 157 -1 115
GlifName: si_J_a.reph
Width: 598
VWidth: 1000
Flags: HMW
LayerCount: 2
Back
Fore
SplineSet
202.3359375 491 m 0
 202.3359375 470.446289062 220.93359375 453.806640625 243.25 453.806640625 c 0
 265.56640625 453.806640625 284.1640625 470.446289062 284.1640625 491 c 0
 284.1640625 511.553710938 265.56640625 528.193359375 243.25 528.193359375 c 0
 220.93359375 528.193359375 202.3359375 511.553710938 202.3359375 491 c 0
100.25 510 m 0
 100.25 574 158.370117188 611 240.25 611 c 0
 317.25 611 381.25 568 381.25 497 c 0
 381.25 473 372.916992188 451.333007812 356.25 432 c 1
 322.5 432 l 1
 335.669921875 444.38671875 351 468.734375 351 496 c 256
 351 553.241210938 300.25 583.75 239.25 583.75 c 0
 186.471679688 583.75 131.5 562.555664062 131.5 510 c 0
 131.5 470.924804688 172.553710938 452.215820312 195.75 450.25 c 1
 187.75 456.25 175.25 471 175.25 492 c 0
 175.25 527 206.603515625 552 242.25 552 c 0
 283.25 552 311.25 525 311.25 490 c 0
 311.25 451 276.25 425 218.25 425 c 0
 159.25 425 100.25 454 100.25 510 c 0
EndSplineSet
Refer: 16 3490 N 1 0 0 1 0 0 2
Validated: 5
LCarets2: 1 0
Ligature2: "si_abvs_7-0 subtable" si_Ja si_Reph
Ligature2: "si_abvs_7 subtable" si_Ja si_Reph
EndChar

StartChar: si_vocalicL
Encoding: 13 3471 118
GlifName: si_vocalicL_
Width: 820
VWidth: 1000
Flags: HMW
LayerCount: 2
Back
Fore
SplineSet
640.25 53 m 4
 640.25 39 651.25 28 665.25 28 c 4
 679.25 28 690.25 39 690.25 53 c 4
 690.25 67 679.25 78 665.25 78 c 4
 651.25 78 640.25 67 640.25 53 c 4
582 445 m 4
 582 467.208984375 597.873046875 481 630 481 c 260
 716.6328125 481 773 378.197265625 773 240 c 4
 773 147.280273438 741.7890625 1.25 665.5 1.25 c 4
 636.333984375 1.25 613.5 23.4150390625 613.5 53.25 c 132
 613.5 78.56640625 632.803710938 104.75 665.5 104.75 c 4
 682.580078125 104.75 701.07421875 96.658203125 710.75 77.75 c 5
 732.647460938 112.99609375 743 187.75 743 239.75 c 4
 743 351.61328125 701.530273438 452 633.5 452 c 4
 625.361328125 452 612 449.567382812 612 436 c 4
 612 424 617.438459039 409.775221691 629.25 394 c 5
 616.29296875 402.963867188 596.709960938 419.403320312 589 422 c 5
 583.578125 428.529296875 582 439.666992188 582 445 c 4
113.75 53 m 4
 113.75 39 124.75 28 138.75 28 c 4
 152.75 28 163.75 39 163.75 53 c 4
 163.75 67 152.75 78 138.75 78 c 4
 124.75 78 113.75 67 113.75 53 c 4
31 240 m 4
 31 378.197199519 87.3675312996 481 174 481 c 260
 206.126953125 481 222 467.208926439 222 445 c 4
 222 439.666992188 221.421875 432.529296875 216 426 c 5
 208.290039062 423.403320312 185.70703125 412.963867188 172.75 404 c 5
 181.727539062 413.703125 192 424 192 436 c 4
 192 449.567440748 178.638671875 452 170.5 452 c 4
 102.470182858 452 61 351.61328125 61 239.75 c 4
 61 187.75 71.3528260663 112.996250703 93.25 77.75 c 5
 102.926089323 96.6577607798 121.419517071 104.75 138.5 104.75 c 4
 171.196517944 104.75 190.5 78.56640625 190.5 53.25 c 132
 190.5 23.4150390625 167.666015625 1.25 138.5 1.25 c 4
 62.2109375 1.25 31 147.279786257 31 240 c 4
132.825195312 183.5546875 m 4
 132.825195312 274.624023438 200.723632812 326.927734375 308.494140625 326.927734375 c 4
 321.494140625 326.927734375 332.702148438 326.2890625 345.494140625 325 c 5
 345.955078125 328.82421875 346.17578125 332.491210938 346.17578125 336 c 4
 346.17578125 375 320.6171875 395.274414062 289.494140625 395.274414062 c 4
 257.463867188 395.274414062 245.0546875 378.802734375 240.147460938 360 c 4
 236.494140625 346 223.83984375 328.073242188 195.494140625 328.073242188 c 4
 176.494140625 328.073242188 156.819335938 340 156.819335938 365 c 4
 156.819335938 409 204.494140625 433.625976562 259.68359375 433.625976562 c 4
 332.041992188 433.625976562 376.36328125 401 376.36328125 334 c 4
 376.36328125 322.63671875 375.125976562 311.303710938 372.494140625 298 c 5
 354.674804688 300.375976562 319.724609375 301.717773438 318.494140625 301.717773438 c 4
 241.21484375 301.717773438 170.494140625 275.73828125 170.494140625 201 c 4
 170.494140625 106.583984375 294.494140625 71 408.494140625 71 c 4
 515.044921875 71 641.494140625 110 641.494140625 205 c 4
 641.494140625 277.999023438 573.494140625 303.612304688 495.494140625 303.612304688 c 4
 472.313476562 303.612304688 448.420898438 301.168945312 425.494140625 297 c 5
 423.56640625 307.923828125 422.637695312 318.266601562 422.637695312 328 c 4
 422.637695312 397 467.451171875 433.118164062 540.338867188 433.118164062 c 4
 606.494140625 433.118164062 642.512695312 392.965820312 642.512695312 354 c 4
 642.512695312 334 634.041992188 316.666992188 615.494140625 303 c 5
 655.826171875 279.47265625 675.5 240.743164062 675.5 186.451171875 c 4
 675.5 55.5615234375 549.138671875 0 408.494140625 0 c 4
 260.083984375 0 132.825195312 45.919921875 132.825195312 183.5546875 c 4
454.678710938 336 m 4
 454.678710938 332.227539062 454.95703125 328.864257812 455.494140625 325 c 5
 472.44921875 327.0546875 488.838867188 328.09765625 504.494140625 328.09765625 c 4
 537.494140625 328.09765625 565.954101562 323.764648438 590.494140625 315 c 5
 601.826171875 325.703125 606.97265625 338.485351562 606.97265625 351 c 4
 606.97265625 380 580.494140625 404.637695312 533.494140625 404.637695312 c 4
 490.271484375 404.637695312 454.678710938 381 454.678710938 336 c 4
EndSplineSet
Validated: 5
EndChar

StartChar: si_NgI
Encoding: 131 -1 120
GlifName: si_N_gI_
Width: 617
VWidth: 1000
Flags: HMW
LayerCount: 2
Back
Fore
SplineSet
74.5 562 m 4
 74.5 476 188.5 483 277.5 478 c 0
 378.518554688 472.325195312 439 472 492 414 c 0
 519.813531616 383.562550307 534 328.842806175 534 279 c 1
 570 254 l 1
 570 348.695913792 534.146484375 423.256835938 485 459 c 0
 430.000141778 499.000194944 341.369140625 501.456054688 276.5 504 c 0
 174.5 508 116.5 508 116.5 554 c 4
 116.5 605.885742188 222.84375 611 298.5 611 c 0
 406.5 611 492 600.2734375 492 544 c 0
 492 506 437 491 401 490 c 1
 451 474 l 1
 485 480 539 502 539 554 c 0
 539 639 434.5 670 298.5 670 c 0
 198.5 670 74.5 652 74.5 562 c 4
87.990234375 346.602539062 m 0
 87.990234375 319.533203125 111.912109375 297.5 141.5 297.5 c 0
 171.087890625 297.5 195.009765625 319.533203125 195.009765625 346.602539062 c 0
 195.009765625 373.671875 171.087890625 395.705078125 141.5 395.705078125 c 0
 111.912109375 395.705078125 87.990234375 373.671875 87.990234375 346.602539062 c 0
51 140.25 m 0
 51 212.25 108.784179688 257.5 179 257.5 c 0
 215 257.5 244.5 250.75 279.5 250.75 c 0
 325.5 250.75 343.25 273.75 343.25 309.75 c 0
 343.25 381.358398438 266.830078125 411.211914062 213.75 411.211914062 c 0
 199.41881304 411.211914062 189.790910587 410.17143243 181.75 409 c 1
 200.75 399 222.5 379.75522422 222.5 345.25 c 0
 222.5 309.180664062 189.25 271.75 141.25 271.75 c 0
 100.252929688 271.75 60.5 302.727191925 60.5 345.75 c 0
 60.5 401.989155545 119.234549455 434 207.5 434 c 0
 310.5 434 372 378.705702066 372 306.25 c 0
 372 265.25 347.614257812 223.5 280.25 223.5 c 0
 238.93359375 223.5 224 230.5 181 230.5 c 0
 131.791992188 230.5 89 204.25 89 156.25 c 0
 89 104.25 129.615234375 71 186 71 c 0
 235.067382812 71 284 96.162109375 284 144 c 2
 284 177 l 1
 311 177 l 1
 311 144 l 2
 311 97.7841796875 361.8359375 70 412 70 c 0
 492 70 534 160.069075584 534 283.25 c 1
 547.11328125 270.540039062 561.037390706 267.791281103 570 260 c 1
 570 114 516 0 416 0 c 0
 354.286132812 0 329.342773438 21.388671875 298 59 c 1
 267.333007812 20.3330078125 233 0 188 0 c 0
 106.568359375 0 51 60.353515625 51 140.25 c 0
EndSplineSet
Validated: 5
Ligature2: "si_abvs_1-0 subtable" si_Nga si_MatraI
Ligature2: "si_abvs_1 subtable" si_Nga si_MatraI
EndChar

StartChar: si_NgIi
Encoding: 132 -1 121
GlifName: si_N_gI_i
Width: 617
VWidth: 1000
Flags: HMW
LayerCount: 2
Back
Fore
SplineSet
385.947265625 555 m 0
 385.947265625 585.181640625 413.1171875 609.45703125 446.25 609.45703125 c 0
 479.3828125 609.45703125 506.552734375 585.181640625 506.552734375 555 c 0
 506.552734375 524.818359375 479.3828125 500.54296875 446.25 500.54296875 c 0
 413.1171875 500.54296875 385.947265625 524.818359375 385.947265625 555 c 0
73.75 562 m 0
 73.75 476 188.5 483 277.5 478 c 0
 378.518554688 472.325195312 438.25 472 491.25 414 c 0
 519.063531616 383.562550307 534 332.301574707 534 279 c 5
 570 254 l 1
 570 346.640129089 533.396484375 423.256835938 484.25 459 c 0
 429.250141778 499.000194944 341.369140625 501.456054688 276.5 504 c 0
 174.5 508 115.75 508 115.75 554 c 0
 115.75 605.885742188 222.84375 611 298.5 611 c 0
 340.711914062 611 366.25 609 373.25 608 c 1
 367.25 600 354.25 583 354.25 558 c 0
 354.25 505 402.25 474 446.25 474 c 0
 490.25 474 538.25 505 538.25 558 c 0
 538.25 639 434.5 670 298.5 670 c 0
 198.5 670 73.75 652 73.75 562 c 0
87.990234375 346.602539062 m 0
 87.990234375 319.533203125 111.912109375 297.5 141.5 297.5 c 0
 171.087890625 297.5 195.009765625 319.533203125 195.009765625 346.602539062 c 0
 195.009765625 373.671875 171.087890625 395.705078125 141.5 395.705078125 c 0
 111.912109375 395.705078125 87.990234375 373.671875 87.990234375 346.602539062 c 0
51 140.25 m 0
 51 212.25 108.784179688 257.5 179 257.5 c 0
 215 257.5 244.5 250.75 279.5 250.75 c 0
 325.5 250.75 343.25 273.75 343.25 309.75 c 0
 343.25 381.358398438 266.830078125 411.211914062 213.75 411.211914062 c 0
 199.41881304 411.211914062 189.790910587 410.17143243 181.75 409 c 1
 200.75 399 222.5 379.75522422 222.5 345.25 c 0
 222.5 309.180664062 189.25 271.75 141.25 271.75 c 0
 100.252929688 271.75 60.5 302.727191925 60.5 345.75 c 0
 60.5 401.989155545 119.234549455 434 207.5 434 c 0
 310.5 434 372 378.705702066 372 306.25 c 0
 372 265.25 347.614257812 223.5 280.25 223.5 c 0
 238.93359375 223.5 224 230.5 181 230.5 c 0
 131.791992188 230.5 89 204.25 89 156.25 c 0
 89 104.25 129.615234375 71 186 71 c 0
 235.067382812 71 284 96.162109375 284 144 c 2
 284 177 l 1
 311 177 l 1
 311 144 l 2
 311 97.7841796875 361.8359375 70 412 70 c 0
 492 70 534 160.069075584 534 283.25 c 1
 547.11328125 270.540039062 561.037390706 267.791281103 570 260 c 1
 570 114 516 0 416 0 c 0
 354.286132812 0 329.342773438 21.388671875 298 59 c 1
 267.333007812 20.3330078125 233 0 188 0 c 0
 106.568359375 0 51 60.353515625 51 140.25 c 0
EndSplineSet
Validated: 5
Ligature2: "si_abvs_2-0 subtable" si_Nga si_MatraIi
Ligature2: "si_abvs_2 subtable" si_Nga si_MatraIi
EndChar

StartChar: si_NngI
Encoding: 134 -1 122
GlifName: si_N_ngI_
Width: 749
VWidth: 1000
Flags: HMW
LayerCount: 2
Back
Fore
SplineSet
151.25 207 m 0
 151.25 330 227.25 431.5 324.25 431.5 c 0
 326.154016288 431.5 327.176027844 431.178022273 329.25 431 c 1
 329.25 408 l 1
 325.89453125 408.284179688 328.560546875 408.450195312 325.25 408.450195312 c 0
 253.25 408.450195312 186.25 332 186.25 230 c 0
 186.25 147 234.559570312 71 323.25 71 c 0
 382.25 71 435.25 98.6416015625 435.25 158 c 0
 435.25 196 415.703125 217 384.25 217 c 0
 376.916992188 217 367.25 215 360.25 210 c 1
 359.25 204 358.25 195.333007812 358.25 192 c 1
 333.25 192 l 1
 343.446289062 316.901367188 405.25 431.5 527.25 431.5 c 0
 639.25 431.5 703.25 332 703.25 217 c 0
 703.25 95 617.302734375 -1 486.25 -1 c 0
 476.25 -1 465.916992188 -0.3330078125 455.25 1 c 1
 455.25 26 l 1
 463.25 25 471.25 24 479.25 24 c 0
 586.25 24 660.25 100 660.25 200 c 0
 660.25 301 601.25 371 510.25 371 c 0
 433.599609375 371 380.25 313 364.25 236 c 1
 372.25 240 380.583007812 241 387.25 241 c 0
 435.25 241 469.25 202 469.25 136 c 0
 469.25 56 412.25 -2 325.25 -2 c 0
 214.25 -2 151.25 96 151.25 207 c 0
267.25 537 m 0
 267.25 462 354.25 414.333007812 514.25 411 c 1
 530.25 431.5 l 1
 529.255859375 431.494140625 529.255859375 431.4921875 528.25 431.4921875 c 0
 442.25 431.5 308.25 455.697265625 308.25 516 c 0
 308.25 568 386.77734375 598 468.25 598 c 0
 547.923828125 598 647.25 576.842773438 647.25 512 c 0
 647.25 462.295898438 604.25 430.805664062 546.25 430.805664062 c 0
 543.610351562 430.805664062 540.943359375 430.8671875 538.25 431 c 1
 556.25 409 l 1
 637.25 415 676.25 461 676.25 523 c 0
 676.25 618 573.594726562 667 468.25 667 c 0
 366.234375 667 267.25 628 267.25 537 c 0
27 221 m 0
 27 352.699751668 99.7561968728 433 239 433 c 0
 248 433 299 431.837563515 325 431.5 c 1
 304 420.5 273 415 256 409 c 1
 120 409 56 342 56 218 c 0
 56 137.333007812 83 75.3330078125 135 30 c 1
 135 0 l 1
 68.5828449348 33.2085775326 27 120.069879655 27 221 c 0
EndSplineSet
Validated: 5
LCarets2: 1 0
Ligature2: "si_abvs_1-0 subtable" si_Nnga si_MatraI
Ligature2: "si_abvs_1 subtable" si_Nnga si_MatraI
EndChar

StartChar: si_NngIi
Encoding: 135 -1 123
GlifName: si_N_ngI_i
Width: 749
VWidth: 1000
Flags: HMW
LayerCount: 2
Back
Fore
SplineSet
507.0625 520 m 4
 507.0625 554.244140625 537.8125 582.198242188 576.25 582.198242188 c 4
 614.6875 582.198242188 645.4375 554.244140625 645.4375 520 c 4
 645.4375 485.755859375 614.6875 457.801757812 576.25 457.801757812 c 4
 537.8125 457.801757812 507.0625 485.755859375 507.0625 520 c 4
266.25 537 m 4
 266.25 462 353.25 412.083007812 513.25 408.75 c 5
 529.25 431.5 l 5
 528.255859375 431.494140625 528.255859375 431.4921875 527.25 431.4921875 c 4
 441.25 431.5 307.25 455.697265625 307.25 516 c 4
 307.25 568 385.77734375 598 467.25 598 c 4
 490.889648438 598 505.25 597 527.25 593.82421875 c 5
 511.25 591 477.25 564.603515625 477.25 519 c 4
 477.25 464 530.25 431 574.25 431 c 4
 617.25 431 675.25 456 675.25 525 c 4
 675.25 618 572.594726562 667 467.25 667 c 4
 365.234375 667 266.25 628 266.25 537 c 4
151.25 207 m 0
 151.25 330 227.25 431.5 324.25 431.5 c 0
 326.154016288 431.5 327.176027844 431.178022273 329.25 431 c 1
 329.25 408 l 1
 325.89453125 408.284179688 328.560546875 408.450195312 325.25 408.450195312 c 0
 253.25 408.450195312 186.25 332 186.25 230 c 0
 186.25 147 234.559570312 71 323.25 71 c 0
 382.25 71 435.25 98.6416015625 435.25 158 c 0
 435.25 196 415.703125 217 384.25 217 c 0
 376.916992188 217 367.25 215 360.25 210 c 1
 359.25 204 358.25 195.333007812 358.25 192 c 1
 333.25 192 l 1
 343.446289062 316.901367188 405.25 431.5 527.25 431.5 c 0
 639.25 431.5 703.25 332 703.25 217 c 0
 703.25 95 617.302734375 -1 486.25 -1 c 0
 476.25 -1 465.916992188 -0.3330078125 455.25 1 c 1
 455.25 26 l 1
 463.25 25 471.25 24 479.25 24 c 0
 586.25 24 660.25 100 660.25 200 c 0
 660.25 301 601.25 371 510.25 371 c 0
 433.599609375 371 380.25 313 364.25 236 c 1
 372.25 240 380.583007812 241 387.25 241 c 0
 435.25 241 469.25 202 469.25 136 c 0
 469.25 56 412.25 -2 325.25 -2 c 0
 214.25 -2 151.25 96 151.25 207 c 0
27 221 m 0
 27 352.699751668 99.7561968728 433 239 433 c 0
 248 433 299 431.837563515 325 431.5 c 1
 304 420.5 273 415 256 409 c 1
 120 409 56 342 56 218 c 0
 56 137.333007812 83 75.3330078125 135 30 c 1
 135 0 l 1
 68.5828449348 33.2085775326 27 120.069879655 27 221 c 0
EndSplineSet
Validated: 5
Ligature2: "si_abvs_2-0 subtable" si_Nnga si_MatraIi
Ligature2: "si_abvs_2 subtable" si_Nnga si_MatraIi
EndChar

StartChar: si_NngU
Encoding: 136 -1 124
GlifName: si_N_ngU_
Width: 749
VWidth: 1000
Flags: HMW
LayerCount: 2
Back
Fore
SplineSet
422.75 -80 m 0
 422.75 -30 452.75 9 495.75 21 c 1
 501.75 -6 l 1
 479.75 -14 460.75 -34 460.75 -63 c 0
 460.75 -109.283203125 510.797851562 -132 562.25 -132 c 0
 623.25 -132 670.442382812 -93.734375 670.442382812 -45 c 0
 670.442382812 -42.0390625 670.168945312 -39.0380859375 669.75 -36 c 1
 699.75 -36 l 1
 702.104492188 -45.416015625 702.184570312 -60.2900390625 702.184570312 -69.5 c 0
 702.184570312 -122.145507812 658.451171875 -191.5 557.75 -191.5 c 0
 489.993164062 -191.5 422.75 -149.233398438 422.75 -80 c 0
150.75 207 m 0
 150.75 330 225.75 431.5 336.75 431.5 c 0
 340.703125 431.5 345.704101562 431.25 349.75 431 c 1
 349.75 408 l 1
 346.39453125 408.284179688 342.060546875 408.450195312 338.75 408.450195312 c 0
 252.75 408.450195312 185.75 332 185.75 230 c 0
 185.75 147 234.059570312 71 322.75 71 c 0
 381.75 71 434.75 98.6416015625 434.75 158 c 0
 434.75 196 415.203125 217 383.75 217 c 0
 376.416992188 217 366.75 215 359.75 210 c 1
 358.75 204 357.75 195.333007812 357.75 192 c 1
 332.75 192 l 1
 342.946289062 316.901367188 404.75 431.5 526.75 431.5 c 0
 638.75 431.5 702.75 332 702.75 217 c 0
 702.75 95 622.75 0 542.75 0 c 0
 532.75 0 510.75 -2 496.75 -8 c 1
 486.75 18 l 1
 505.75 26 523.75 27 531.75 27 c 0
 594.75 27 659.75 100 659.75 200 c 0
 659.75 301 600.75 371 509.75 371 c 0
 433.099609375 371 379.75 313 363.75 236 c 1
 371.75 240 380.083007812 241 386.75 241 c 0
 434.75 241 468.75 202 468.75 136 c 0
 468.75 56 411.75 -2 324.75 -2 c 0
 213.75 -2 150.75 96 150.75 207 c 0
27 221 m 0
 27 352.699751668 99.7561968728 433 239 433 c 0
 248 433 299 431.837563515 325 431.5 c 1
 304 420.5 273 415 256 409 c 1
 120 409 56 342 56 218 c 0
 56 137.333007812 83 75.3330078125 135 30 c 1
 135 0 l 1
 68.5828449348 33.2085775326 27 120.069879655 27 221 c 0
EndSplineSet
Validated: 5
LCarets2: 1 0
Ligature2: "si_blws_1-0 subtable" si_Nnga si_MatraU
Ligature2: "si_blws_1 subtable" si_Nnga si_MatraU
EndChar

StartChar: si_NngUu
Encoding: 137 -1 125
GlifName: si_N_ngU_u
Width: 749
VWidth: 1000
Flags: HMW
LayerCount: 2
Back
Fore
SplineSet
452.75 -129 m 0
 452.75 -93.3486328125 484.3125 -72 516.75 -67 c 1
 461.75 -39 l 1
 548.75 -14 l 1
 455.25 1 l 1
 503.75 13 l 1
 623.25 -7 l 1
 518.25 -44 l 1
 577.75 -76 l 1
 549.75 -83 492.75 -85.5 492.75 -115 c 0
 492.75 -146 534.673828125 -155 576.75 -155 c 0
 630.75 -155 676.478515625 -131 676.478515625 -82 c 0
 676.478515625 -77 675.943359375 -69.38671875 670.75 -59 c 1
 703.75 -59 l 1
 707.340820312 -71.1181640625 708.053710938 -82.8330078125 708.053710938 -94 c 0
 708.053710938 -161 656.75 -205 574.75 -205 c 0
 516.75 -205 452.75 -187.465820312 452.75 -129 c 0
EndSplineSet
Refer: 31 3487 N 1 0 0 1 0 0 2
Validated: 5
LCarets2: 1 0
Ligature2: "si_blws_3-0 subtable" si_Nnga si_MatraUu
Ligature2: "si_blws_3 subtable" si_Nnga si_MatraUu
EndChar

StartChar: si_JhI
Encoding: 162 -1 126
GlifName: si_J_hI_
Width: 1087
VWidth: 1000
Flags: HMW
LayerCount: 2
Back
Fore
SplineSet
70 95 m 1
 76 98.3333333333 82.3333333333 100 89 100 c 0
 118 100 142 71 199 71 c 0
 250.182680149 71 281 101.864211954 281 162 c 0
 281 164.208984375 281.041015625 161.3046875 281 163 c 1
 307 163 l 1
 306.963867188 161.6640625 307 163.330078125 307 162 c 0
 307 96.92631064 334 71 392 71 c 0
 454.088867188 71 474 123 474 159 c 0
 474 242 400.87890625 291 298 291 c 0
 241.333007812 291 203 282 182 273 c 1
 164.666992188 258.333007812 145 234.666992188 129 212 c 0
 100.333007812 171.333007812 80.6666666667 131.666666667 70 95 c 1
21 22 m 1
 28.6966338402 91.2697045622 74.4524773728 184.16496867 109 232 c 0
 135 268 150 282 168 301 c 1
 180 314 193 330 193 352 c 0
 193 374 183.407917035 392 158 392 c 0
 144 392 122.478515625 384.287109375 116 363 c 0
 109 340 112.653628896 340.109331446 106 323 c 0
 99 305 84 297 69 297 c 0
 35 297 29 328 29 340 c 0
 29 394.098632812 79.3632281498 433 136 433 c 0
 185.711963719 433 220.079101562 402 220.079101562 356 c 0
 220.079101562 351.467773438 219.723632812 345.794921875 219 341 c 1
 279.982820511 397.272717953 371 434 475 434 c 0
 575 434 642 414 671 398 c 1
 614 390 l 1
 570 402 518 406 474 406 c 0
 342 406 266.999323864 350.053699149 219 308 c 1
 243 314 274.666992188 316 302 316 c 0
 422 316 515 251 515 126 c 0
 515 67.8472233203 482 -1 397 -1 c 0
 351 -1 317.333333333 20.3333333333 296 63 c 1
 278.666666667 21.6666666667 246.021148364 -1 204 -1 c 0
 117 -1 120 73 87 73 c 0
 64.6748046875 73 50 51 47 11 c 1
 21 22 l 1
EndSplineSet
Refer: 189 -1 N 1 0 0 1 450 0 2
LCarets2: 1 0
Ligature2: "si_abvs_1-0 subtable" si_Jha si_MatraI
Ligature2: "si_abvs_1 subtable" si_Jha si_MatraI
EndChar

StartChar: si_JhIi
Encoding: 163 -1 127
GlifName: si_J_hI_i
Width: 1087
VWidth: 1000
Flags: HMW
LayerCount: 2
Back
Fore
SplineSet
70 95 m 1
 76 98.3333333333 82.3333333333 100 89 100 c 0
 118 100 142 71 199 71 c 0
 250.182680149 71 281 101.864211954 281 162 c 0
 281 164.208984375 281.041015625 161.3046875 281 163 c 1
 307 163 l 1
 306.963867188 161.6640625 307 163.330078125 307 162 c 0
 307 96.92631064 334 71 392 71 c 0
 454.088867188 71 474 123 474 159 c 0
 474 242 400.87890625 291 298 291 c 0
 241.333007812 291 203 282 182 273 c 1
 164.666992188 258.333007812 145 234.666992188 129 212 c 0
 100.333007812 171.333007812 80.6666666667 131.666666667 70 95 c 1
21 22 m 1
 28.6966338402 91.2697045622 74.4524773728 184.16496867 109 232 c 0
 135 268 150 282 168 301 c 1
 180 314 193 330 193 352 c 0
 193 374 183.407917035 392 158 392 c 0
 144 392 122.478515625 384.287109375 116 363 c 0
 109 340 112.653628896 340.109331446 106 323 c 0
 99 305 84 297 69 297 c 0
 35 297 29 328 29 340 c 0
 29 394.098632812 79.3632281498 433 136 433 c 0
 185.711963719 433 220.079101562 402 220.079101562 356 c 0
 220.079101562 351.467773438 219.723632812 345.794921875 219 341 c 1
 279.982820511 397.272717953 371 434 475 434 c 0
 575 434 642 414 671 398 c 1
 614 390 l 1
 570 402 518 406 474 406 c 0
 342 406 266.999323864 350.053699149 219 308 c 1
 243 314 274.666992188 316 302 316 c 0
 422 316 515 251 515 126 c 0
 515 67.8472233203 482 -1 397 -1 c 0
 351 -1 317.333333333 20.3333333333 296 63 c 1
 278.666666667 21.6666666667 246.021148364 -1 204 -1 c 0
 117 -1 120 73 87 73 c 0
 64.6748046875 73 50 51 47 11 c 1
 21 22 l 1
EndSplineSet
Refer: 190 -1 N 1 0 0 1 450 0 2
Ligature2: "si_abvs_2-0 subtable" si_Jha si_MatraIi
Ligature2: "si_abvs_2 subtable" si_Jha si_MatraIi
EndChar

StartChar: si_JhU
Encoding: 164 -1 128
GlifName: si_J_hU_
Width: 1087
VWidth: 1000
Flags: HMW
LayerCount: 2
Back
Fore
SplineSet
501.5 -142.5 m 0
 501.5 -90.4912109375 547.79296875 -50.5 603 -50.5 c 0
 644.90625 -50.5 682.25 -74.1416015625 697 -110 c 1
 667 -121.5 l 1
 659.982421875 -101.896484375 636 -80 603 -80 c 0
 566.295898438 -80 535 -106.713867188 535 -142.5 c 0
 535 -171.663085938 558.383789062 -199 624 -199 c 2
 992 -199 l 1
 992 128 l 1
 1025 219 l 1
 1025 -235 l 1
 607 -235 l 2
 537.83984375 -235 501.5 -186.091796875 501.5 -142.5 c 0
EndSplineSet
Refer: 56 3491 N 1 0 0 1 0 0 2
Validated: 5
LCarets2: 1 0
Ligature2: "si_blws_1-0 subtable" si_Jha si_MatraU
Ligature2: "si_blws_1 subtable" si_Jha si_MatraU
EndChar

StartChar: si_JhUu
Encoding: 165 -1 129
GlifName: si_J_hU_u
Width: 1087
VWidth: 1000
Flags: HMW
LayerCount: 2
Back
Fore
SplineSet
501 -138 m 0
 501 -80 550 -40 603 -40 c 0
 645 -40 677.333007812 -55 700 -91 c 1
 670 -102 l 1
 658 -83 637 -68 608 -68 c 0
 569 -68 537 -92 537 -129 c 0
 537 -166.366210938 568 -191 611 -191 c 0
 695 -191 778 -117 873 -117 c 0
 916 -117 965 -136 992 -168 c 1
 992 152 l 1
 1025 212 l 1
 1025 -231 l 1
 1002 -231 l 1
 987 -195 944 -144 876 -144 c 0
 785 -144 710 -237 612 -237 c 0
 557 -237 501 -206 501 -138 c 0
EndSplineSet
Refer: 56 3491 N 1 0 0 1 0 0 2
Validated: 5
Ligature2: "si_blws_3-0 subtable" si_Jha si_MatraUu
Ligature2: "si_blws_3 subtable" si_Jha si_MatraUu
EndChar

StartChar: si_Jha.reph
Encoding: 166 -1 130
GlifName: si_J_ha.reph
Width: 1087
VWidth: 1000
Flags: HMW
LayerCount: 2
Back
Fore
SplineSet
723.5859375 622.443359375 m 0
 723.5859375 642.997070312 742.18359375 659.63671875 764.5 659.63671875 c 0
 786.81640625 659.63671875 805.4140625 642.997070312 805.4140625 622.443359375 c 0
 805.4140625 601.889648438 786.81640625 585.25 764.5 585.25 c 0
 742.18359375 585.25 723.5859375 601.889648438 723.5859375 622.443359375 c 0
621.5 641.443359375 m 0
 621.5 585.443359375 680.5 556.443359375 739.5 556.443359375 c 0
 797.5 556.443359375 832.5 582.443359375 832.5 621.443359375 c 0
 832.5 656.443359375 804.5 683.443359375 763.5 683.443359375 c 0
 727.853515625 683.443359375 696.5 658.443359375 696.5 623.443359375 c 0
 696.5 602.443359375 709 587.693359375 717 581.693359375 c 1
 693.803710938 583.659179688 652.75 602.368164062 652.75 641.443359375 c 0
 652.75 693.999023438 707.721679688 715.193359375 760.5 715.193359375 c 0
 821.5 715.193359375 872.25 684.684570312 872.25 627.443359375 c 256
 872.25 600.177734375 856.919921875 575.830078125 843.75 563.443359375 c 1
 877.5 563.443359375 l 1
 894.166992188 582.776367188 902.5 604.443359375 902.5 628.443359375 c 0
 902.5 699.443359375 838.5 742.443359375 761.5 742.443359375 c 0
 679.620117188 742.443359375 621.5 705.443359375 621.5 641.443359375 c 0
EndSplineSet
Refer: 56 3491 N 1 0 0 1 0 0 2
Validated: 5
EndChar

StartChar: si_JhU.reph
Encoding: 167 -1 131
GlifName: si_J_hU_.reph
Width: 1087
VWidth: 1000
Flags: HMW
LayerCount: 2
Back
Fore
SplineSet
501.5 -142.5 m 0
 501.5 -90.4912109375 547.79296875 -50.5 603 -50.5 c 0
 644.90625 -50.5 682.25 -74.1416015625 697 -110 c 1
 667 -121.5 l 1
 659.982421875 -101.896484375 636 -80 603 -80 c 0
 566.295898438 -80 535 -106.713867188 535 -142.5 c 0
 535 -171.663085938 558.383789062 -199 624 -199 c 2
 992 -199 l 1
 992 128 l 1
 1025 219 l 1
 1025 -235 l 1
 607 -235 l 2
 537.83984375 -235 501.5 -186.091796875 501.5 -142.5 c 0
723.5859375 622 m 0
 723.5859375 642.553710938 742.18359375 659.193359375 764.5 659.193359375 c 0
 786.81640625 659.193359375 805.4140625 642.553710938 805.4140625 622 c 0
 805.4140625 601.446289062 786.81640625 584.806640625 764.5 584.806640625 c 0
 742.18359375 584.806640625 723.5859375 601.446289062 723.5859375 622 c 0
621.5 641 m 0
 621.5 585 680.5 556 739.5 556 c 0
 797.5 556 832.5 582 832.5 621 c 0
 832.5 656 804.5 683 763.5 683 c 0
 727.853515625 683 696.5 658 696.5 623 c 0
 696.5 602 709 587.25 717 581.25 c 1
 693.803710938 583.215820312 652.75 601.924804688 652.75 641 c 0
 652.75 693.555664062 707.721679688 714.75 760.5 714.75 c 0
 821.5 714.75 872.25 684.241210938 872.25 627 c 256
 872.25 599.734375 856.919921875 575.38671875 843.75 563 c 1
 877.5 563 l 1
 894.166992188 582.333007812 902.5 604 902.5 628 c 0
 902.5 699 838.5 742 761.5 742 c 0
 679.620117188 742 621.5 705 621.5 641 c 0
EndSplineSet
Refer: 56 3491 N 1 0 0 1 0 0 2
Validated: 5
EndChar

StartChar: si_JhUu.reph
Encoding: 168 -1 132
GlifName: si_J_hU_u.reph
Width: 1087
VWidth: 1000
Flags: HMW
LayerCount: 2
Back
Fore
SplineSet
723.5859375 622 m 0
 723.5859375 642.553710938 742.18359375 659.193359375 764.5 659.193359375 c 0
 786.81640625 659.193359375 805.4140625 642.553710938 805.4140625 622 c 0
 805.4140625 601.446289062 786.81640625 584.806640625 764.5 584.806640625 c 0
 742.18359375 584.806640625 723.5859375 601.446289062 723.5859375 622 c 0
621.5 641 m 0
 621.5 585 680.5 556 739.5 556 c 0
 797.5 556 832.5 582 832.5 621 c 0
 832.5 656 804.5 683 763.5 683 c 0
 727.853515625 683 696.5 658 696.5 623 c 0
 696.5 602 709 587.25 717 581.25 c 1
 693.803710938 583.215820312 652.75 601.924804688 652.75 641 c 0
 652.75 693.555664062 707.721679688 714.75 760.5 714.75 c 0
 821.5 714.75 872.25 684.241210938 872.25 627 c 256
 872.25 599.734375 856.919921875 575.38671875 843.75 563 c 1
 877.5 563 l 1
 894.166992188 582.333007812 902.5 604 902.5 628 c 0
 902.5 699 838.5 742 761.5 742 c 0
 679.620117188 742 621.5 705 621.5 641 c 0
501 -138 m 0
 501 -80 550 -40 603 -40 c 0
 645 -40 677.333007812 -55 700 -91 c 1
 670 -102 l 1
 658 -83 637 -68 608 -68 c 0
 569 -68 537 -92 537 -129 c 0
 537 -166.366210938 568 -191 611 -191 c 0
 695 -191 778 -117 873 -117 c 0
 916 -117 965 -136 992 -168 c 1
 992 152 l 1
 1025 212 l 1
 1025 -231 l 1
 1002 -231 l 1
 987 -195 944 -144 876 -144 c 0
 785 -144 710 -237 612 -237 c 0
 557 -237 501 -206 501 -138 c 0
EndSplineSet
Refer: 56 3491 N 1 0 0 1 0 0 2
Validated: 5
EndChar

StartChar: si_NyAa
Encoding: 173 -1 133
GlifName: si_N_yA_a
Width: 1288
VWidth: 1000
Flags: HMW
LayerCount: 2
Back
Fore
SplineSet
996.25 109.599609375 m 0
 996.25 117.006835938 996.583007812 124.4140625 997.25 131.8203125 c 1
 1024.25 131.8203125 l 1
 1023.58300781 127.106445312 1023.25 122.056640625 1023.25 116.669921875 c 0
 1023.25 68.1904296875 1047.25 35.5 1092.25 35.900390625 c 0
 1151.24804688 36.42578125 1178.25 90.0400390625 1178.25 200.5 c 0
 1178.25 310.959960938 1151.25 365.099609375 1092.25 365.099609375 c 0
 1054.25 365.099609375 1023.25 332.809570312 1023.25 284.330078125 c 0
 1023.25 278.943359375 1023.58300781 273.893554688 1024.25 269.1796875 c 1
 997.25 269.1796875 l 1
 996.583007812 276.5859375 996.25 283.994140625 996.25 291.400390625 c 0
 996.25 360.228515625 1048.25 402.5 1107.25 402.5 c 0
 1198.25 402.5 1244.25 328.76953125 1244.25 200.5 c 0
 1244.25 72.23046875 1198.25 -1.5 1107.25 -1.5 c 0
 1039.83789062 -1.5 996.25 40.771484375 996.25 109.599609375 c 0
EndSplineSet
Refer: 32 3492 N 1 0 0 1 0 0 2
Validated: 37
LCarets2: 1 0
Ligature2: "si_blws_5-0 subtable" si_Nya si_MatraAa
Ligature2: "si_blws_5 subtable" si_Nya si_MatraAa
EndChar

StartChar: si_NyI
Encoding: 174 -1 134
GlifName: si_N_yI_
Width: 1024
VWidth: 1000
Flags: HMW
LayerCount: 2
Back
Fore
SplineSet
607.080078125 517.5 m 0
 607.080078125 453.779724598 663.813981682 420.484313607 718 414 c 1
 729 440.75 l 1
 694.413472745 440.750033071 638.120117188 460.228515625 638.120117188 508.5 c 0
 638.120117188 572.923828125 722.984375 597.5 795 597.5 c 0
 867.015625 597.5 952.629882812 570.184570312 952.629882812 508.5 c 0
 952.629882812 459.552105578 904.934570312 426.502929688 855.5 426.5 c 0
 849.245117188 426.5 830.918614767 427.224835351 818.75 429.25 c 1
 867.08984375 404.5 l 1
 919.583984375 405.690429688 982.919921875 442.95703125 982.919921875 517.5 c 0
 982.919921875 616.564453125 891.697265625 670.5 795 670.5 c 0
 698.302734375 670.5 607.080078125 618.064453125 607.080078125 517.5 c 0
EndSplineSet
Refer: 32 3492 N 1 0 0 1 0 0 2
Validated: 5
Ligature2: "si_abvs_1-0 subtable" si_Nya si_MatraI
Ligature2: "si_abvs_1 subtable" si_Nya si_MatraI
EndChar

StartChar: si_NyIi
Encoding: 175 -1 135
GlifName: si_N_yI_i
Width: 1024
VWidth: 1000
Flags: HMW
LayerCount: 2
Back
Fore
SplineSet
781.25 432.5 m 1024,85,86
818.75 513.5 m 0,123,124
 818.75 482.5 848.75 457.5 884.75 457.5 c 0,125,126
 920.75 457.5 950.75 482.5 950.75 513.5 c 0,127,128
 950.75 544.5 920.75 569.5 884.75 569.5 c 0,129,130
 848.75 569.5 818.75 544.5 818.75 513.5 c 0,123,124
607.080078125 524.5 m 0,131,132
 607.080078125 614.389662904 698.302734375 670.5 795 670.5 c 0,133,134
 891.697265625 670.5 982.919921875 613.822265625 982.919921875 522.25 c 0,135,136
 982.919921875 462.766601562 935.463867188 428.5 884.25 428.5 c 0,137,138
 824.575195312 428.5 786.75 469.5 786.75 514.5 c 0,139,140
 786.75 559.5 823.216796875 586.7578125 850 591.5 c 1,141,142
 839 594.5 808.609375 597.5 795 597.5 c 0,143,144
 722.984375 597.5 642.120117188 570.052734375 642.120117188 513.25 c 0,145,146
 642.120117188 464.978515625 697.372008814 439.5 747 439.5 c 1,147,-1
 660 440 l 1,148,149
 647.525289975 445.077141727 607.080078125 473.125 607.080078125 524.5 c 0,131,132
EndSplineSet
Refer: 32 3492 N 1 0 0 1 0 0 2
Validated: 5
Ligature2: "si_abvs_2-0 subtable" si_Nya si_MatraIi
Ligature2: "si_abvs_2 subtable" si_Nya si_MatraIi
EndChar

StartChar: si_NyU
Encoding: 176 -1 136
GlifName: si_N_yU_
Width: 1024
VWidth: 1000
Flags: HMW
LayerCount: 2
Back
Fore
SplineSet
195 95 m 1
 201 98.3330078125 207.333007812 100 214 100 c 0
 243 100 267 71 324 71 c 0
 375.182617188 71 406 101.864257812 406 162 c 0
 406 164.208984375 406.041015625 161.3046875 406 163 c 1
 432 163 l 1
 431.963867188 161.6640625 432 163.330078125 432 162 c 0
 432 96.9267578125 459 71 517 71 c 0
 579.088867188 71 599 123 599 159 c 0
 599 242 525.87890625 291 423 291 c 0
 366.333007812 291 328 282 307 273 c 1
 289.666992188 258.333007812 270 234.666992188 254 212 c 0
 225.333007812 171.333007812 205.666992188 131.666992188 195 95 c 1
146 22 m 1
 153.696289062 91.26953125 199.452148438 184.165039062 234 232 c 0
 260 268 275 282 293 301 c 1
 305 314 318 330 318 352 c 0
 318 374 308.408203125 392 283 392 c 0
 269 392 247.478515625 384.287109375 241 363 c 0
 234 340 237.653320312 340.109375 231 323 c 0
 224 305 209 297 194 297 c 0
 160 297 154 328 154 340 c 0
 154 394.098632812 204.36328125 433 261 433 c 0
 310.711914062 433 345.079101562 402 345.079101562 356 c 0
 345.079101562 351.467773438 344.723632812 345.794921875 344 341 c 1
 372.357403847 362.046370158 409.339493752 388.188406944 480 412 c 0
 550.909946961 435.895651054 608.200195312 442 689.25 442 c 0
 715.791992188 442 783.740234375 439.388671875 827.5 427.25 c 1
 725.25 413.5 l 1
 714.280273438 414.815429688 693.461914062 415 683.25 415 c 0
 633.81640625 415 596.183440039 410.733531298 564 405 c 0
 480.979432402 390.209753149 419.010754317 364.724364206 344 308 c 1
 368 314 399.666992188 316 427 316 c 0
 547 316 640 251 640 126 c 0
 640 67.84765625 607 -1 522 -1 c 0
 476 -1 442.333007812 20.3330078125 421 63 c 1
 403.666992188 21.6669921875 371.021484375 -1 329 -1 c 0
 242 -1 245 73 212 73 c 0
 189.674804688 73 175 51 172 11 c 1
 146 22 l 1
27 221 m 0
 27 352.699751668 99.755859375 434.25 239 434.25 c 0
 248 434.25 271 434.25 293 428.25 c 1
 272 417.25 194 406.5 177 400.5 c 5
 102 382.5 56 319.267578125 56 218 c 0
 56 137.333007812 83 75.3330078125 135 30 c 1
 135 0 l 1
 68.5828449348 33.2085775326 27 120.069879655 27 221 c 0
604.75 -143 m 0
 604.75 -90.9912109375 651.04296875 -51 706.25 -51 c 0
 748.15625 -51 785.5 -74.6416015625 800.25 -110.5 c 1
 770.25 -122 l 1
 763.232421875 -102.396484375 739.25 -80.5 706.25 -80.5 c 0
 669.545898438 -80.5 638.25 -107.213867188 638.25 -143 c 0
 638.25 -172.163085938 661.633789062 -199.5 727.25 -199.5 c 2
 945.75 -199.5 l 1
 945.75 68.5 l 1
 978.75 78.25 l 1
 978.75 -235.5 l 1
 710.25 -235.5 l 2
 641.08984375 -235.5 604.75 -186.591796875 604.75 -143 c 0
603 168.5 m 0
 603 273.5 676 316.5 795 316.5 c 2
 915 316.5 l 1
 905.276367188 362.685546875 853.75 395.5 809.75 395.5 c 0
 790.75 395.5 774.798828125 383.411132812 766.25 365.5 c 128
 755.75 343.5 739.551757812 335.5 724.75 335.5 c 0
 699.75 335.5 686.75 350.5 686.75 371.5 c 0
 686.75 407.783203125 726.75 432.5 781.75 432.5 c 0
 867.489257812 432.5 932.904296875 388.502929688 951 293.5 c 1
 814 293.5 l 2
 726 293.5 680 256.5 680 172.5 c 0
 680 88.5 750 26.5 833 26.5 c 0
 879.077148438 26.5 923.051757812 49.54296875 956 91.5 c 1
 979 78.25 l 1
 939.400390625 32.86328125 900.458007812 -1.5 806 -1.5 c 0
 675 -1.5 603 68.5 603 168.5 c 0
EndSplineSet
Validated: 5
Ligature2: "si_blws_1-0 subtable" si_Nya si_MatraU
Ligature2: "si_blws_1 subtable" si_Nya si_MatraU
EndChar

StartChar: si_NyUu
Encoding: 177 -1 137
GlifName: si_N_yU_u
Width: 1024
VWidth: 1000
Flags: HMW
LayerCount: 2
Back
Fore
SplineSet
195 95 m 1
 201 98.3330078125 207.333007812 100 214 100 c 0
 243 100 267 71 324 71 c 0
 375.182617188 71 406 101.864257812 406 162 c 0
 406 164.208984375 406.041015625 161.3046875 406 163 c 1
 432 163 l 1
 431.963867188 161.6640625 432 163.330078125 432 162 c 0
 432 96.9267578125 459 71 517 71 c 0
 579.088867188 71 599 123 599 159 c 0
 599 242 525.87890625 291 423 291 c 0
 366.333007812 291 328 282 307 273 c 1
 289.666992188 258.333007812 270 234.666992188 254 212 c 0
 225.333007812 171.333007812 205.666992188 131.666992188 195 95 c 1
146 22 m 1
 153.696289062 91.26953125 199.452148438 184.165039062 234 232 c 0
 260 268 275 282 293 301 c 1
 305 314 318 330 318 352 c 0
 318 374 308.408203125 392 283 392 c 0
 269 392 247.478515625 384.287109375 241 363 c 0
 234 340 237.653320312 340.109375 231 323 c 0
 224 305 209 297 194 297 c 0
 160 297 154 328 154 340 c 0
 154 394.098632812 204.36328125 433 261 433 c 0
 310.711914062 433 345.079101562 402 345.079101562 356 c 0
 345.079101562 351.467773438 344.723632812 345.794921875 344 341 c 1
 372.357403847 362.046370158 409.339493752 388.188406944 480 412 c 0
 550.909946961 435.895651054 608.200195312 442 689.25 442 c 0
 715.791992188 442 783.740234375 439.388671875 827.5 427.25 c 1
 725.25 413.5 l 1
 714.280273438 414.815429688 693.461914062 415 683.25 415 c 0
 633.81640625 415 596.183440039 410.733531298 564 405 c 0
 480.979432402 390.209753149 419.010754317 364.724364206 344 308 c 1
 368 314 399.666992188 316 427 316 c 0
 547 316 640 251 640 126 c 0
 640 67.84765625 607 -1 522 -1 c 0
 476 -1 442.333007812 20.3330078125 421 63 c 1
 403.666992188 21.6669921875 371.021484375 -1 329 -1 c 0
 242 -1 245 73 212 73 c 0
 189.674804688 73 175 51 172 11 c 1
 146 22 l 1
27 221 m 0
 27 352.699751668 99.755859375 434.25 239 434.25 c 0
 248 434.25 271 434.25 293 428.25 c 1
 272 417.25 194 406.5 177 400.5 c 5
 102 382.5 56 319.267578125 56 218 c 0
 56 137.333007812 83 75.3330078125 135 30 c 1
 135 0 l 1
 68.5828449348 33.2085775326 27 120.069879655 27 221 c 0
603 168.5 m 0
 603 273.5 676 316.5 795 316.5 c 2
 915 316.5 l 1
 905.276367188 362.685546875 853.75 395.5 809.75 395.5 c 0
 790.75 395.5 774.798828125 383.411132812 766.25 365.5 c 128
 755.75 343.5 739.551757812 335.5 724.75 335.5 c 0
 699.75 335.5 686.75 350.5 686.75 371.5 c 0
 686.75 407.783203125 726.75 432.5 781.75 432.5 c 0
 867.489257812 432.5 932.904296875 388.502929688 951 293.5 c 1
 814 293.5 l 2
 726 293.5 680 256.5 680 172.5 c 0
 680 88.5 750 26.5 833 26.5 c 0
 879.077148438 26.5 923.051757812 49.54296875 956 91.5 c 1
 979 78.25 l 1
 939.400390625 32.86328125 900.458007812 -1.5 806 -1.5 c 0
 675 -1.5 603 68.5 603 168.5 c 0
604.75 -139.25 m 0
 604.75 -81.25 653.75 -41.25 706.75 -41.25 c 0
 748.75 -41.25 781.083007812 -56.25 803.75 -92.25 c 1
 773.75 -103.25 l 1
 761.75 -84.25 740.75 -69.25 711.75 -69.25 c 0
 672.75 -69.25 640.75 -93.25 640.75 -130.25 c 0
 640.75 -167.616210938 668.75 -192.25 711.75 -192.25 c 0
 766.961914062 -192.25 794.424804688 -128 872 -128 c 0
 897.478515625 -128 926.534179688 -136.723632812 946 -160.25 c 1
 946 71.5 l 1
 979 78.25 l 1
 979 -232.25 l 1
 956 -232.25 l 1
 942.064453125 -194.477539062 922.302734375 -155 877.75 -155 c 0
 800.296875 -155 780.529296875 -238.25 704.5 -238.25 c 0
 656.534179688 -238.25 604.75 -207.25 604.75 -139.25 c 0
EndSplineSet
Validated: 5
Ligature2: "si_blws_3-0 subtable" si_Nya si_MatraUu
Ligature2: "si_blws_3 subtable" si_Nya si_MatraUu
EndChar

StartChar: si_JnyAa
Encoding: 182 -1 138
GlifName: si_J_nyA_a
Width: 1104
VWidth: 1000
Flags: HMW
LayerCount: 2
Back
Fore
SplineSet
134 207 m 4
 134 330 209 431.5 320 431.5 c 4
 323.953125 431.5 328.954101562 431.25 333 431 c 5
 333 408 l 5
 329.64453125 408.284179688 325.310546875 408.450195312 322 408.450195312 c 4
 236 408.450195312 169 332 169 230 c 4
 169 147 217.309570312 71 306 71 c 4
 365 71 418 98.6416015625 418 158 c 4
 418 196 398.453125 217 367 217 c 4
 359.666992188 217 349 214 344 210 c 5
 343 204 342 195.333007812 342 192 c 5
 315 192 l 5
 328.677595439 352.298149849 406.221009374 438 560 438 c 4
 591 438 640.988111734 436.424769759 674 426 c 5
 553 409.25 l 5
 547.39453125 409.405273438 543.216796875 409.5 537.5 409.5 c 4
 430.520985901 409.5 369.280935389 339.916498026 347 236 c 5
 355 240 363.333007812 241 370 241 c 4
 418 241 452 202 452 136 c 4
 452 56 395 -2 308 -2 c 4
 197 -2 134 96 134 207 c 4
814.25 110.099609375 m 0
 814.25 117.506835938 814.583007812 124.9140625 815.25 132.3203125 c 1
 842.25 132.3203125 l 1
 841.583007812 127.606445312 841.25 122.556640625 841.25 117.169921875 c 0
 841.25 68.6904296875 865.25 36 910.25 36.400390625 c 0
 969.248046875 36.92578125 996.25 90.5400390625 996.25 201 c 0
 996.25 311.459960938 969.25 365.599609375 910.25 365.599609375 c 0
 872.25 365.599609375 841.25 333.309570312 841.25 284.830078125 c 0
 841.25 279.443359375 841.583007812 274.393554688 842.25 269.6796875 c 1
 815.25 269.6796875 l 1
 814.583007812 277.0859375 814.25 284.494140625 814.25 291.900390625 c 0
 814.25 360.728515625 866.25 403 925.25 403 c 0
 1016.25 403 1062.25 329.26953125 1062.25 201 c 0
 1062.25 72.73046875 1016.25 -1 925.25 -1 c 0
 857.837890625 -1 814.25 41.271484375 814.25 110.099609375 c 0
421 169 m 0
 421 274 494 317 613 317 c 2
 733 317 l 1
 723.276367188 363.185546875 694 396 650 396 c 0
 631 396 615.048828125 383.911132812 606.5 366 c 128
 596 344 579.801757812 336 565 336 c 0
 540 336 527 351 527 372 c 0
 527 408.283203125 567 433 622 433 c 0
 707.739257812 433 750.904296875 389.002929688 769 294 c 1
 632 294 l 2
 544 294 498 257 498 173 c 0
 498 89 568 27 651 27 c 0
 697.077148438 27 734 46 774 92 c 1
 797 75 l 1
 766.459960938 39.3701171875 696 -28 696 -104 c 0
 696 -170.098632812 735.217773438 -195.1171875 799 -210 c 1
 799 -238 l 1
 785 -240.666992188 767 -242 745 -242 c 0
 674.43359375 -240.040039062 639 -199.018554688 639 -142 c 0
 639 -103.333007812 662.333007812 -52.6669921875 709 10 c 1
 674 0 651.333007812 -1 624 -1 c 0
 493 -1 421 69 421 169 c 0
27 221 m 0
 27 352.699751668 99.7561968728 433 239 433 c 0
 248 433 301 433 324 431.5 c 1
 320 431.5 231 406 231 406 c 1
 97 406 56 312.399347689 56 218 c 0
 56 137.333007812 83 75.3330078125 135 30 c 1
 135 0 l 1
 68.5828449348 33.2085775326 27 120.069879655 27 221 c 0
EndSplineSet
Validated: 37
Ligature2: "si_blws_5-0 subtable" si_Jnya si_MatraAa
Ligature2: "si_blws_5 subtable" si_Jnya si_MatraAa
EndChar

StartChar: si_JnyI
Encoding: 183 -1 139
GlifName: si_J_nyI_
Width: 842
VWidth: 1000
Flags: HMW
LayerCount: 2
Back
Fore
SplineSet
424.91015625 517.5 m 0
 424.91015625 453.779296875 481.64453125 420.484375 535.830078125 414 c 1
 554 438 l 1
 512.707843885 438 455.950195312 460.228515625 455.950195312 508.5 c 0
 455.950195312 572.923828125 540.814453125 597.5 612.830078125 597.5 c 0
 684.845703125 597.5 770.459960938 570.184570312 770.459960938 508.5 c 0
 770.459960938 459.551757812 722.764648438 426.502929688 673.330078125 426.5 c 0
 667.075195312 426.5 648.749023438 427.224609375 636.580078125 429.25 c 1
 684.919921875 404.5 l 1
 737.4140625 405.690429688 800.75 442.95703125 800.75 517.5 c 0
 800.75 616.564453125 709.52734375 670.5 612.830078125 670.5 c 0
 516.1328125 670.5 424.91015625 618.064453125 424.91015625 517.5 c 0
134 207 m 0
 134 330 209 431.5 320 431.5 c 0
 323.953125 431.5 328.954101562 431.25 333 431 c 1
 333 408 l 1
 329.64453125 408.284179688 325.310546875 408.450195312 322 408.450195312 c 0
 236 408.450195312 169 332 169 230 c 0
 169 147 217.309570312 71 306 71 c 0
 365 71 418 98.6416015625 418 158 c 0
 418 196 398.453125 217 367 217 c 0
 359.666992188 217 349 214 344 210 c 1
 343 204 342 195.333007812 342 192 c 1
 315 192 l 1
 328.677595439 352.298149849 406.221009374 438 560 438 c 0
 591 438 640.988111734 436.424769759 674 426 c 1
 553 409.25 l 1
 547.39453125 409.405273438 543.216796875 409.5 537.5 409.5 c 0
 430.520985901 409.5 369.280935389 339.916498026 347 236 c 1
 355 240 363.333007812 241 370 241 c 0
 418 241 452 202 452 136 c 0
 452 56 395 -2 308 -2 c 0
 197 -2 134 96 134 207 c 0
421 169 m 0
 421 274 494 317 613 317 c 2
 733 317 l 1
 723.276367188 363.185546875 694 396 650 396 c 0
 631 396 615.048828125 383.911132812 606.5 366 c 128
 596 344 579.801757812 336 565 336 c 0
 540 336 527 351 527 372 c 0
 527 408.283203125 567 433 622 433 c 0
 707.739257812 433 750.904296875 389.002929688 769 294 c 1
 632 294 l 2
 544 294 498 257 498 173 c 0
 498 89 568 27 651 27 c 0
 697.077148438 27 734 46 774 92 c 1
 797 75 l 1
 766.459960938 39.3701171875 696 -28 696 -104 c 0
 696 -170.098632812 735.217773438 -195.1171875 799 -210 c 1
 799 -238 l 1
 785 -240.666992188 767 -242 745 -242 c 0
 674.43359375 -240.040039062 639 -199.018554688 639 -142 c 0
 639 -103.333007812 662.333007812 -52.6669921875 709 10 c 1
 674 0 651.333007812 -1 624 -1 c 0
 493 -1 421 69 421 169 c 0
27 221 m 0
 27 352.699751668 99.7561968728 433 239 433 c 0
 248 433 301 433 324 431.5 c 1
 320 431.5 231 406 231 406 c 1
 97 406 56 312.399347689 56 218 c 0
 56 137.333007812 83 75.3330078125 135 30 c 1
 135 0 l 1
 68.5828449348 33.2085775326 27 120.069879655 27 221 c 0
EndSplineSet
Validated: 5
Ligature2: "si_abvs_1-0 subtable" si_Jnya si_MatraI
Ligature2: "si_abvs_1 subtable" si_Jnya si_MatraI
EndChar

